<svg width="16" height="16" viewBox="0 0 16 16" fill="none" xmlns="http://www.w3.org/2000/svg">
<mask id="path-1-inside-1_2164_5049" fill="white">
<path d="M9.99999 15.1667H5.99999C2.37999 15.1667 0.833328 13.62 0.833328 10V6.00001C0.833328 2.38001 2.37999 0.833344 5.99999 0.833344H9.99999C13.62 0.833344 15.1667 2.38001 15.1667 6.00001V10C15.1667 13.62 13.62 15.1667 9.99999 15.1667ZM5.99999 1.83334C2.92666 1.83334 1.83333 2.92668 1.83333 6.00001V10C1.83333 13.0733 2.92666 14.1667 5.99999 14.1667H9.99999C13.0733 14.1667 14.1667 13.0733 14.1667 10V6.00001C14.1667 2.92668 13.0733 1.83334 9.99999 1.83334H5.99999Z"/>
</mask>
<path d="M9.99999 15.1667H5.99999C2.37999 15.1667 0.833328 13.62 0.833328 10V6.00001C0.833328 2.38001 2.37999 0.833344 5.99999 0.833344H9.99999C13.62 0.833344 15.1667 2.38001 15.1667 6.00001V10C15.1667 13.62 13.62 15.1667 9.99999 15.1667ZM5.99999 1.83334C2.92666 1.83334 1.83333 2.92668 1.83333 6.00001V10C1.83333 13.0733 2.92666 14.1667 5.99999 14.1667H9.99999C13.0733 14.1667 14.1667 13.0733 14.1667 10V6.00001C14.1667 2.92668 13.0733 1.83334 9.99999 1.83334H5.99999Z" fill="#191919"/>
<path d="M9.99999 14.1667H5.99999V16.1667H9.99999V14.1667ZM5.99999 14.1667C4.30479 14.1667 3.33318 13.8006 2.76627 13.2337C2.19936 12.6668 1.83333 11.6952 1.83333 10H-0.166672C-0.166672 11.9248 0.240629 13.5365 1.35205 14.6479C2.46348 15.7594 4.0752 16.1667 5.99999 16.1667V14.1667ZM1.83333 10V6.00001H-0.166672V10H1.83333ZM1.83333 6.00001C1.83333 4.3048 2.19936 3.33319 2.76627 2.76628C3.33318 2.19938 4.30479 1.83334 5.99999 1.83334V-0.166656C4.0752 -0.166656 2.46348 0.240644 1.35205 1.35207C0.240629 2.4635 -0.166672 4.07522 -0.166672 6.00001H1.83333ZM5.99999 1.83334H9.99999V-0.166656H5.99999V1.83334ZM9.99999 1.83334C11.6952 1.83334 12.6668 2.19938 13.2337 2.76628C13.8006 3.33319 14.1667 4.3048 14.1667 6.00001H16.1667C16.1667 4.07522 15.7594 2.4635 14.6479 1.35207C13.5365 0.240644 11.9248 -0.166656 9.99999 -0.166656V1.83334ZM14.1667 6.00001V10H16.1667V6.00001H14.1667ZM14.1667 10C14.1667 11.6952 13.8006 12.6668 13.2337 13.2337C12.6668 13.8006 11.6952 14.1667 9.99999 14.1667V16.1667C11.9248 16.1667 13.5365 15.7594 14.6479 14.6479C15.7594 13.5365 16.1667 11.9248 16.1667 10H14.1667ZM5.99999 0.833343C4.39277 0.833343 3.00531 1.10882 2.05705 2.05707C1.1088 3.00532 0.833328 4.39279 0.833328 6.00001H2.83333C2.83333 4.5339 3.10452 3.83803 3.47127 3.47128C3.83802 3.10454 4.53388 2.83334 5.99999 2.83334V0.833343ZM0.833328 6.00001V10H2.83333V6.00001H0.833328ZM0.833328 10C0.833328 11.6072 1.1088 12.9947 2.05705 13.9429C3.00531 14.8912 4.39277 15.1667 5.99999 15.1667V13.1667C4.53388 13.1667 3.83802 12.8955 3.47127 12.5287C3.10452 12.162 2.83333 11.4661 2.83333 10H0.833328ZM5.99999 15.1667H9.99999V13.1667H5.99999V15.1667ZM9.99999 15.1667C11.6072 15.1667 12.9947 14.8912 13.9429 13.9429C14.8912 12.9947 15.1667 11.6072 15.1667 10H13.1667C13.1667 11.4661 12.8955 12.162 12.5287 12.5287C12.162 12.8955 11.4661 13.1667 9.99999 13.1667V15.1667ZM15.1667 10V6.00001H13.1667V10H15.1667ZM15.1667 6.00001C15.1667 4.39279 14.8912 3.00532 13.9429 2.05707C12.9947 1.10882 11.6072 0.833343 9.99999 0.833343V2.83334C11.4661 2.83334 12.162 3.10454 12.5287 3.47128C12.8955 3.83803 13.1667 4.5339 13.1667 6.00001H15.1667ZM9.99999 0.833343H5.99999V2.83334H9.99999V0.833343Z" fill="#191919" mask="url(#path-1-inside-1_2164_5049)"/>
<mask id="path-3-inside-2_2164_5049" fill="white">
<path d="M10.3867 12.8333C10.1133 12.8333 9.88667 12.6067 9.88667 12.3333V9.73334C9.88667 9.46 10.1133 9.23334 10.3867 9.23334C10.66 9.23334 10.8867 9.46 10.8867 9.73334V12.3333C10.8867 12.6067 10.66 12.8333 10.3867 12.8333Z"/>
</mask>
<path d="M10.3867 12.8333C10.1133 12.8333 9.88667 12.6067 9.88667 12.3333V9.73334C9.88667 9.46 10.1133 9.23334 10.3867 9.23334C10.66 9.23334 10.8867 9.46 10.8867 9.73334V12.3333C10.8867 12.6067 10.66 12.8333 10.3867 12.8333Z" fill="#191919"/>
<path d="M10.3867 11.8333C10.6656 11.8333 10.8867 12.0544 10.8867 12.3333H8.88667C8.88667 13.159 9.56105 13.8333 10.3867 13.8333V11.8333ZM10.8867 12.3333V9.73334H8.88667V12.3333H10.8867ZM10.8867 9.73334C10.8867 10.0123 10.6656 10.2333 10.3867 10.2333V8.23334C9.56105 8.23334 8.88667 8.90772 8.88667 9.73334H10.8867ZM10.3867 10.2333C10.1077 10.2333 9.88667 10.0123 9.88667 9.73334H11.8867C11.8867 8.90772 11.2123 8.23334 10.3867 8.23334V10.2333ZM9.88667 9.73334V12.3333H11.8867V9.73334H9.88667ZM9.88667 12.3333C9.88667 12.0544 10.1077 11.8333 10.3867 11.8333V13.8333C11.2123 13.8333 11.8867 13.159 11.8867 12.3333H9.88667Z" fill="#191919" mask="url(#path-3-inside-2_2164_5049)"/>
<mask id="path-5-inside-3_2164_5049" fill="white">
<path d="M10.3867 5.46666C10.1133 5.46666 9.88667 5.23999 9.88667 4.96666V3.66666C9.88667 3.39332 10.1133 3.16666 10.3867 3.16666C10.66 3.16666 10.8867 3.39332 10.8867 3.66666V4.96666C10.8867 5.23999 10.66 5.46666 10.3867 5.46666Z"/>
</mask>
<path d="M10.3867 5.46666C10.1133 5.46666 9.88667 5.23999 9.88667 4.96666V3.66666C9.88667 3.39332 10.1133 3.16666 10.3867 3.16666C10.66 3.16666 10.8867 3.39332 10.8867 3.66666V4.96666C10.8867 5.23999 10.66 5.46666 10.3867 5.46666Z" fill="#191919"/>
<path d="M10.3867 4.46666C10.6656 4.46666 10.8867 4.68771 10.8867 4.96666H8.88667C8.88667 5.79227 9.56105 6.46666 10.3867 6.46666V4.46666ZM10.8867 4.96666V3.66666H8.88667V4.96666H10.8867ZM10.8867 3.66666C10.8867 3.94561 10.6656 4.16666 10.3867 4.16666V2.16666C9.56105 2.16666 8.88667 2.84104 8.88667 3.66666H10.8867ZM10.3867 4.16666C10.1077 4.16666 9.88667 3.94561 9.88667 3.66666H11.8867C11.8867 2.84104 11.2123 2.16666 10.3867 2.16666V4.16666ZM9.88667 3.66666V4.96666H11.8867V3.66666H9.88667ZM9.88667 4.96666C9.88667 4.68771 10.1077 4.46666 10.3867 4.46666V6.46666C11.2123 6.46666 11.8867 5.79227 11.8867 4.96666H9.88667Z" fill="#191919" mask="url(#path-5-inside-3_2164_5049)"/>
<path d="M8.65334 6.70001C8.65334 7.6572 9.42948 8.43334 10.3867 8.43334C9.43053 8.43334 8.65334 7.65615 8.65334 6.70001ZM8.65334 6.70001C8.65334 5.74282 9.42948 4.96667 10.3867 4.96667M8.65334 6.70001C8.65334 5.74387 9.43053 4.96667 10.3867 4.96667M10.3867 4.96667C11.3439 4.96667 12.12 5.74282 12.12 6.70001C12.12 5.74211 11.3344 4.96667 10.3867 4.96667Z" fill="#191919" stroke="#191919"/>
<mask id="path-8-inside-4_2164_5049" fill="white">
<path d="M5.61333 12.8333C5.33999 12.8333 5.11333 12.6067 5.11333 12.3333V11.0333C5.11333 10.76 5.33999 10.5333 5.61333 10.5333C5.88666 10.5333 6.11333 10.76 6.11333 11.0333V12.3333C6.11333 12.6067 5.89333 12.8333 5.61333 12.8333Z"/>
</mask>
<path d="M5.61333 12.8333C5.33999 12.8333 5.11333 12.6067 5.11333 12.3333V11.0333C5.11333 10.76 5.33999 10.5333 5.61333 10.5333C5.88666 10.5333 6.11333 10.76 6.11333 11.0333V12.3333C6.11333 12.6067 5.89333 12.8333 5.61333 12.8333Z" fill="#191919"/>
<path d="M5.61333 11.8333C5.89228 11.8333 6.11333 12.0544 6.11333 12.3333H4.11333C4.11333 13.1589 4.78771 13.8333 5.61333 13.8333V11.8333ZM6.11333 12.3333V11.0333H4.11333V12.3333H6.11333ZM6.11333 11.0333C6.11333 11.3123 5.89228 11.5333 5.61333 11.5333V9.53333C4.78771 9.53333 4.11333 10.2077 4.11333 11.0333H6.11333ZM5.61333 11.5333C5.33438 11.5333 5.11333 11.3123 5.11333 11.0333H7.11333C7.11333 10.2077 6.43894 9.53333 5.61333 9.53333V11.5333ZM5.11333 11.0333V12.3333H7.11333V11.0333H5.11333ZM5.11333 12.3333C5.11333 12.0631 5.33237 11.8333 5.61333 11.8333V13.8333C6.45428 13.8333 7.11333 13.1502 7.11333 12.3333H5.11333Z" fill="#191919" mask="url(#path-8-inside-4_2164_5049)"/>
<mask id="path-10-inside-5_2164_5049" fill="white">
<path d="M5.61333 6.76666C5.33999 6.76666 5.11333 6.53999 5.11333 6.26666V3.66666C5.11333 3.39332 5.33999 3.16666 5.61333 3.16666C5.88666 3.16666 6.11333 3.39332 6.11333 3.66666V6.26666C6.11333 6.53999 5.89333 6.76666 5.61333 6.76666Z"/>
</mask>
<path d="M5.61333 6.76666C5.33999 6.76666 5.11333 6.53999 5.11333 6.26666V3.66666C5.11333 3.39332 5.33999 3.16666 5.61333 3.16666C5.88666 3.16666 6.11333 3.39332 6.11333 3.66666V6.26666C6.11333 6.53999 5.89333 6.76666 5.61333 6.76666Z" fill="#191919"/>
<path d="M5.61333 5.76666C5.89228 5.76666 6.11333 5.9877 6.11333 6.26666H4.11333C4.11333 7.09227 4.78771 7.76666 5.61333 7.76666V5.76666ZM6.11333 6.26666V3.66666H4.11333V6.26666H6.11333ZM6.11333 3.66666C6.11333 3.94561 5.89228 4.16666 5.61333 4.16666V2.16666C4.78771 2.16666 4.11333 2.84104 4.11333 3.66666H6.11333ZM5.61333 4.16666C5.33438 4.16666 5.11333 3.94561 5.11333 3.66666H7.11333C7.11333 2.84104 6.43895 2.16666 5.61333 2.16666V4.16666ZM5.11333 3.66666V6.26666H7.11333V3.66666H5.11333ZM5.11333 6.26666C5.11333 5.99641 5.33237 5.76666 5.61333 5.76666V7.76666C6.45428 7.76666 7.11333 7.08356 7.11333 6.26666H5.11333Z" fill="#191919" mask="url(#path-10-inside-5_2164_5049)"/>
<path d="M5.59375 11.0332C4.64837 11.0228 3.88452 10.2552 3.88002 9.30842C3.88453 10.2542 4.6494 11.0227 5.59375 11.0332ZM3.88002 9.29161C3.88454 8.34108 4.65441 7.57121 5.60494 7.5667C4.65545 7.57122 3.88455 8.34212 3.88002 9.29161ZM7.34667 9.30001C7.34667 10.2507 6.5811 11.0227 5.63293 11.0332C6.58007 11.0227 7.34667 10.2496 7.34667 9.30001Z" fill="#191919" stroke="#191919"/>
</svg>
