<svg width="16" height="16" viewBox="0 0 16 16" fill="none" xmlns="http://www.w3.org/2000/svg">
<mask id="path-1-inside-1_2164_5069" fill="white">
<path d="M9.62001 12.5467C9.49334 12.5467 9.36667 12.5 9.26667 12.4C9.07334 12.2067 9.07334 11.8867 9.26667 11.6933L12.96 7.99999L9.26667 4.30665C9.07334 4.11332 9.07334 3.79332 9.26667 3.59999C9.46001 3.40665 9.78001 3.40665 9.97334 3.59999L14.02 7.64665C14.2133 7.83999 14.2133 8.15999 14.02 8.35332L9.97334 12.4C9.87334 12.5 9.74667 12.5467 9.62001 12.5467Z"/>
</mask>
<path d="M9.62001 12.5467C9.49334 12.5467 9.36667 12.5 9.26667 12.4C9.07334 12.2067 9.07334 11.8867 9.26667 11.6933L12.96 7.99999L9.26667 4.30665C9.07334 4.11332 9.07334 3.79332 9.26667 3.59999C9.46001 3.40665 9.78001 3.40665 9.97334 3.59999L14.02 7.64665C14.2133 7.83999 14.2133 8.15999 14.02 8.35332L9.97334 12.4C9.87334 12.5 9.74667 12.5467 9.62001 12.5467Z" fill="white"/>
<path d="M9.26667 11.6933L8.55957 10.9862L9.26667 11.6933ZM12.96 7.99999L13.6671 8.70709L14.3742 7.99999L13.6671 7.29288L12.96 7.99999ZM9.26667 4.30665L8.55957 5.01376H8.55957L9.26667 4.30665ZM9.97334 3.59999L9.26623 4.30709H9.26623L9.97334 3.59999ZM14.02 7.64665L14.7271 6.93955L14.02 7.64665ZM14.02 8.35332L14.7271 9.06043L14.02 8.35332ZM9.97334 12.4L9.26623 11.6929H9.26623L9.97334 12.4ZM9.62001 11.5467C9.74424 11.5467 9.87636 11.5955 9.97378 11.6929L8.55957 13.1071C8.85699 13.4045 9.24244 13.5467 9.62001 13.5467V11.5467ZM9.97378 11.6929C10.171 11.8901 10.171 12.2032 9.97378 12.4004L8.55957 10.9862C7.97571 11.5701 7.97571 12.5232 8.55957 13.1071L9.97378 11.6929ZM9.97378 12.4004L13.6671 8.70709L12.2529 7.29288L8.55957 10.9862L9.97378 12.4004ZM13.6671 7.29288L9.97378 3.59955L8.55957 5.01376L12.2529 8.70709L13.6671 7.29288ZM9.97378 3.59955C10.171 3.79674 10.171 4.1099 9.97378 4.30709L8.55957 2.89288C7.97571 3.47674 7.97571 4.4299 8.55957 5.01376L9.97378 3.59955ZM9.97378 4.30709C9.77659 4.50428 9.46342 4.50428 9.26623 4.30709L10.6804 2.89288C10.0966 2.30902 9.14342 2.30902 8.55957 2.89288L9.97378 4.30709ZM9.26623 4.30709L13.3129 8.35376L14.7271 6.93955L10.6804 2.89288L9.26623 4.30709ZM13.3129 8.35376C13.1157 8.15657 13.1157 7.8434 13.3129 7.64621L14.7271 9.06043C15.311 8.47657 15.311 7.5234 14.7271 6.93955L13.3129 8.35376ZM13.3129 7.64621L9.26623 11.6929L10.6804 13.1071L14.7271 9.06043L13.3129 7.64621ZM9.26623 11.6929C9.36365 11.5955 9.49577 11.5467 9.62001 11.5467V13.5467C9.99758 13.5467 10.383 13.4045 10.6804 13.1071L9.26623 11.6929Z" fill="white" mask="url(#path-1-inside-1_2164_5069)"/>
<mask id="path-3-inside-2_2164_5069" fill="white">
<path d="M13.5533 8.5H2.33334C2.06001 8.5 1.83334 8.27333 1.83334 8C1.83334 7.72667 2.06001 7.5 2.33334 7.5H13.5533C13.8267 7.5 14.0533 7.72667 14.0533 8C14.0533 8.27333 13.8267 8.5 13.5533 8.5Z"/>
</mask>
<path d="M13.5533 8.5H2.33334C2.06001 8.5 1.83334 8.27333 1.83334 8C1.83334 7.72667 2.06001 7.5 2.33334 7.5H13.5533C13.8267 7.5 14.0533 7.72667 14.0533 8C14.0533 8.27333 13.8267 8.5 13.5533 8.5Z" fill="white"/>
<path d="M13.5533 7.5H2.33334V9.5H13.5533V7.5ZM2.33334 7.5C2.61229 7.5 2.83334 7.72105 2.83334 8H0.833344C0.833344 8.82562 1.50773 9.5 2.33334 9.5V7.5ZM2.83334 8C2.83334 8.27895 2.61229 8.5 2.33334 8.5V6.5C1.50773 6.5 0.833344 7.17438 0.833344 8H2.83334ZM2.33334 8.5H13.5533V6.5H2.33334V8.5ZM13.5533 8.5C13.2744 8.5 13.0533 8.27895 13.0533 8H15.0533C15.0533 7.17438 14.379 6.5 13.5533 6.5V8.5ZM13.0533 8C13.0533 7.72105 13.2744 7.5 13.5533 7.5V9.5C14.379 9.5 15.0533 8.82562 15.0533 8H13.0533Z" fill="white" mask="url(#path-3-inside-2_2164_5069)"/>
</svg>
