<svg width="14" height="14" viewBox="0 0 14 14" fill="none" xmlns="http://www.w3.org/2000/svg">
<path d="M12.1294 5.50289V5.39409C12.1333 4.30541 11.7879 3.2442 11.144 2.36639C10.5 1.48858 9.59146 0.840465 8.55185 0.51729H8.51345C7.97651 0.353599 7.41707 0.275839 6.85585 0.28689C5.51941 0.360229 4.26135 0.940809 3.3384 1.91014C2.41546 2.87947 1.89722 4.16447 1.88944 5.50289C1.51441 5.63482 1.18958 5.87991 0.959791 6.20434C0.730003 6.52877 0.60659 6.91653 0.60659 7.31409C0.60659 7.71165 0.730003 8.09941 0.959791 8.42384C1.18958 8.74826 1.51441 8.99336 1.88944 9.12529C2.02126 10.3891 2.61835 11.5588 3.56463 12.4069C4.51091 13.255 5.73875 13.7209 7.00945 13.7141H7.15664C8.38542 13.6546 9.55338 13.1617 10.4532 12.3228C11.353 11.4839 11.9265 10.3533 12.0718 9.13169C12.4513 9.00722 12.7825 8.76754 13.0193 8.446C13.2561 8.12447 13.3868 7.7371 13.3932 7.33781C13.3995 6.93852 13.2812 6.54719 13.0547 6.2183C12.8282 5.88941 12.5048 5.63934 12.1294 5.50289ZM7.12465 12.4341C6.19818 12.4609 5.29328 12.1517 4.57694 11.5636C3.86059 10.9754 3.38113 10.148 3.22704 9.23409H10.7598C10.6036 10.0993 10.1595 10.8863 9.49958 11.4672C8.83964 12.0481 8.00268 12.3889 7.12465 12.4341ZM11.4894 7.95409H2.52944C2.35971 7.95409 2.19692 7.88666 2.0769 7.76664C1.95687 7.64661 1.88944 7.48383 1.88944 7.31409C1.88944 7.14435 1.95687 6.98156 2.0769 6.86154C2.19692 6.74152 2.35971 6.67409 2.52944 6.67409H3.80944C3.97918 6.67409 4.14197 6.60666 4.26199 6.48664C4.38202 6.36661 4.44944 6.20383 4.44944 6.03409C4.44944 5.86435 4.38202 5.70156 4.26199 5.58154C4.14197 5.46152 3.97918 5.39409 3.80944 5.39409H3.16944C3.19809 4.73016 3.38785 4.08317 3.72235 3.50895C4.05685 2.93473 4.52604 2.45051 5.08945 2.09809V4.11409C5.08945 4.28383 5.15687 4.44662 5.2769 4.56664C5.39692 4.68666 5.55971 4.75409 5.72945 4.75409C5.89918 4.75409 6.06197 4.68666 6.18199 4.56664C6.30202 4.44662 6.36945 4.28383 6.36945 4.11409V1.61169C6.54316 1.58267 6.71837 1.56344 6.89425 1.55409H7.00945C7.22393 1.55711 7.43787 1.57637 7.64945 1.61169V4.11409C7.64945 4.28383 7.71687 4.44662 7.8369 4.56664C7.95692 4.68666 8.11971 4.75409 8.28945 4.75409C8.45918 4.75409 8.62197 4.68666 8.74199 4.56664C8.86202 4.44662 8.92945 4.28383 8.92945 4.11409V2.07889C9.20093 2.23609 9.4542 2.42282 9.68465 2.63569C10.0536 2.99402 10.3469 3.42284 10.547 3.89668C10.7471 4.37052 10.8499 4.87973 10.8494 5.39409H10.2094C10.0397 5.39409 9.87692 5.46152 9.7569 5.58154C9.63687 5.70156 9.56945 5.86435 9.56945 6.03409C9.56945 6.20383 9.63687 6.36661 9.7569 6.48664C9.87692 6.60666 10.0397 6.67409 10.2094 6.67409H11.4894C11.6592 6.67409 11.822 6.74152 11.942 6.86154C12.062 6.98156 12.1294 7.14435 12.1294 7.31409C12.1294 7.48383 12.062 7.64661 11.942 7.76664C11.822 7.88666 11.6592 7.95409 11.4894 7.95409Z" fill="currentColor"/>
</svg>
