<svg width="32" height="32" viewBox="0 0 32 32" fill="none" xmlns="http://www.w3.org/2000/svg">
<path d="M14.1333 4.56675L14.1326 4.56582C14.1205 4.54967 14.1083 4.53358 14.0963 4.51754C13.7831 4.10157 13.499 3.72413 13.0797 3.48667C12.633 3.23368 12.0933 3.16675 11.3333 3.16675H9.33333C8.13117 3.16675 7.1382 3.22315 6.33089 3.39357C5.51801 3.56516 4.85726 3.85969 4.35609 4.36189C3.85496 4.86403 3.56192 5.52516 3.39149 6.33717C3.22222 7.14365 3.16666 8.13479 3.16666 9.33341V22.6667C3.16666 23.8654 3.22222 24.8565 3.39149 25.663C3.56192 26.475 3.85496 27.1361 4.35609 27.6383C4.85726 28.1405 5.51801 28.435 6.33089 28.6066C7.1382 28.777 8.13117 28.8334 9.33333 28.8334H22.6667C23.8688 28.8334 24.8618 28.777 25.6691 28.6066C26.482 28.435 27.1427 28.1405 27.6439 27.6383C28.145 27.1361 28.4381 26.475 28.6085 25.663C28.7778 24.8565 28.8333 23.8654 28.8333 22.6667V14.6667C28.8333 13.4681 28.7778 12.477 28.6085 11.6705C28.4381 10.8585 28.145 10.1974 27.6439 9.69522C27.1427 9.19302 26.482 8.8985 25.6691 8.7269C24.8618 8.55649 23.8688 8.50008 22.6667 8.50008H18.6667C17.8708 8.50008 17.3999 8.3635 17.0634 8.1657C16.7189 7.96322 16.4627 7.66807 16.1325 7.23233C16.1323 7.23205 16.1321 7.23177 16.1319 7.23149L14.1333 4.56675ZM22.6667 29.8334H9.33333C6.41055 29.8334 4.67812 29.3811 3.64855 28.3515C2.61898 27.322 2.16666 25.5895 2.16666 22.6667V9.33341C2.16666 6.41063 2.61898 4.67821 3.64855 3.64863C4.67812 2.61906 6.41055 2.16675 9.33333 2.16675H11.3333C12.4469 2.16675 13.1169 2.34823 13.6065 2.63368C14.1038 2.92368 14.4692 3.35014 14.9336 3.96715C14.9337 3.96724 14.9338 3.96734 14.9338 3.96743L16.9333 6.63341C16.9444 6.64814 16.9554 6.66292 16.9665 6.67772C17.1516 6.92529 17.3417 7.17968 17.6197 7.32792C17.9213 7.48876 18.2701 7.50008 18.6667 7.50008H22.6667C25.5894 7.50008 27.3219 7.95239 28.3514 8.98197C29.381 10.0115 29.8333 11.744 29.8333 14.6667V22.6667C29.8333 25.5895 29.381 27.322 28.3514 28.3515C27.3219 29.3811 25.5894 29.8334 22.6667 29.8334Z" fill="#8C95AF" stroke="currentColor"/>
<path d="M26.6667 9.00675C26.3961 9.00675 26.1667 8.77727 26.1667 8.50675V6.66675C26.1667 5.55695 25.9334 4.6464 25.3102 4.02319C24.687 3.39999 23.7765 3.16675 22.6667 3.16675H10.6667C10.3961 3.16675 10.1667 2.93727 10.1667 2.66675C10.1667 2.39622 10.3961 2.16675 10.6667 2.16675H22.6667C24.1909 2.16675 25.2971 2.58425 26.0231 3.3103C26.7492 4.03635 27.1667 5.14249 27.1667 6.66675V8.50675C27.1667 8.77727 26.9372 9.00675 26.6667 9.00675Z" fill="#8C95AF" stroke="currentColor"/>
</svg>
