<svg width="32" height="32" viewBox="0 0 32 32" fill="none" xmlns="http://www.w3.org/2000/svg">
<path d="M14.5 11.3333V10.8333H14H3.58618L15.3333 2.61033L27.0805 10.8333H16.6667H16.1667V11.3333V28.1667H14.5V11.3333ZM15.6199 4.84361L15.3333 4.64316L15.0468 4.84361L10.1668 8.25695L8.86614 9.16667H10.4533H20.2133H21.8005L20.4999 8.25695L15.6199 4.84361ZM3.83333 21.6533V21.6068L3.82476 21.5611L2.82353 16.2253L4.45534 15.9173L5.37545 20.76L5.45272 21.1667H5.86667H10.8333V28.1667H9.16667V23.3333V22.8333H8.66667H6.02667H5.52916L5.52667 23.3308L5.50249 28.1667H3.83333V21.6533ZM24.8 21.1667H25.2139L25.2912 20.76L26.2113 15.9173L27.8431 16.2253L26.8419 21.5611L26.8333 21.6068V21.6533V28.1667H25.1642L25.14 23.3308L25.1375 22.8333H24.64H22H21.5V23.3333V28.1667H19.8333V21.1667H24.8Z" fill="currentColor" stroke="currentColor"/>
</svg>
