<svg width="14" height="12" viewBox="0 0 14 12" fill="none" xmlns="http://www.w3.org/2000/svg">
<path d="M6.99967 11.3334H0.333008V10.0001H4.16634C3.67967 8.12675 2.20634 6.66008 0.333008 6.17342C0.759674 6.06675 1.20634 6.00008 1.66634 6.00008C4.61301 6.00008 6.99967 8.38675 6.99967 11.3334ZM13.6663 6.17342C13.2397 6.06675 12.793 6.00008 12.333 6.00008C10.3797 6.00008 8.67967 7.05342 7.74634 8.62008C7.93967 9.06008 8.09967 9.52008 8.19301 10.0001C8.27967 10.4334 8.32634 10.8801 8.32634 11.3334H13.6597V10.0001H9.82634C10.3197 8.12675 11.793 6.66008 13.6663 6.17342ZM9.42634 5.34675C9.94634 3.95342 10.913 2.78675 12.153 2.01341C9.29301 2.10675 6.99967 4.44675 6.99967 7.33342C6.99967 7.34008 6.99967 7.34675 6.99967 7.34675C7.63301 6.50008 8.46634 5.81342 9.42634 5.34675ZM6.61301 3.90008C6.05301 2.44008 4.91967 1.26008 3.46634 0.666748C4.42634 1.90675 4.99967 3.45341 4.99967 5.14008C4.99967 5.28008 4.97967 5.41341 4.97301 5.54675C5.25967 5.70675 5.52634 5.89341 5.78634 6.09342C5.92634 5.30675 6.21967 4.56675 6.61301 3.90008Z" fill="currentColor"/>
</svg>
