<svg width="32" height="32" viewBox="0 0 32 32" fill="none" xmlns="http://www.w3.org/2000/svg">
<path d="M10.8173 23.8743C9.96549 20.5955 7.67106 17.9127 4.65117 16.5253C4.87708 16.5087 5.10454 16.5 5.33335 16.5C10.7829 16.5 15.2275 20.782 15.488 26.1667H3.16669V24.5H10.3334H10.9798L10.8173 23.8743ZM21.6534 24.5H28.82V26.1667H19.1443C19.1164 25.3981 19.0247 24.6412 18.8773 23.9035C18.699 22.9871 18.4061 22.112 18.055 21.2802C19.8616 18.4099 23.0356 16.5 26.6667 16.5C26.8955 16.5 27.1229 16.5087 27.3488 16.5253C24.3287 17.9127 22.033 20.5951 21.1698 23.8727L21.0046 24.5H21.6534ZM16.6053 17.1987C17.2111 13.0143 20.3687 9.66608 24.4469 8.76225C22.6904 10.2406 21.3073 12.1479 20.456 14.3322C19.0097 15.0609 17.7061 16.0326 16.6053 17.1987ZM13.2444 15.3231C12.9935 15.147 12.7359 14.9776 12.4692 14.818C12.4716 14.7911 12.474 14.7635 12.4765 14.7348C12.4884 14.5968 12.5 14.4425 12.5 14.28C12.5 11.5033 11.7485 8.90975 10.4414 6.67434C12.3337 7.87963 13.8154 9.65959 14.6727 11.759C14.0474 12.8597 13.5525 14.0567 13.2444 15.3231Z" fill="#191919" stroke="#191919"/>
</svg>
