<svg width="32" height="32" viewBox="0 0 32 32" fill="none" xmlns="http://www.w3.org/2000/svg">
<path d="M5.14596 9.79231L5.14597 9.79231L12.3325 4.19243C13.1616 3.54589 14.2626 3.2253 15.3441 3.20183C16.4257 3.17836 17.5426 3.45082 18.4069 4.05722L5.14596 9.79231ZM5.14596 9.79231L5.14365 9.79413C4.59366 10.2279 4.10566 10.9067 3.75641 11.6158C3.40747 12.3243 3.16663 13.1249 3.16663 13.8267V23.7067C3.16663 26.5276 5.45527 28.8334 8.27996 28.8334H23.72C26.5428 28.8334 28.8333 26.5429 28.8333 23.72V14.0134C28.8333 13.268 28.5703 12.4243 28.1849 11.6855C27.8003 10.9481 27.2599 10.2505 26.6446 9.829L18.4072 4.05744L5.14596 9.79231ZM4.5336 9.00806L4.53395 9.00778L11.7203 3.40806C13.7063 1.86334 16.9185 1.78844 18.9792 3.23587L18.9797 3.2362L27.2197 9.00954L27.2206 9.01015C27.933 9.50705 28.5912 10.3081 29.0718 11.2282C29.5523 12.1483 29.8333 13.1456 29.8333 14.0134V23.72C29.8333 27.0846 27.0965 29.8334 23.72 29.8334H8.27996C4.90408 29.8334 2.16663 27.0852 2.16663 23.7067V13.8267C2.16663 13.0146 2.42009 12.0669 2.85543 11.1805C3.29068 10.2942 3.88732 9.51072 4.5336 9.00806Z" fill="#191919" stroke="#191919"/>
<path d="M16 24.5C15.7295 24.5 15.5 24.2705 15.5 24V20C15.5 19.7295 15.7295 19.5 16 19.5C16.2705 19.5 16.5 19.7295 16.5 20V24C16.5 24.2705 16.2705 24.5 16 24.5Z" fill="#191919" stroke="#191919"/>
</svg>
