<svg width="10" height="14" viewBox="0 0 10 14" fill="none" xmlns="http://www.w3.org/2000/svg">
<path d="M5.00086 0.666748C4.69419 0.666748 4.38086 0.693415 4.06753 0.760081C2.22753 1.11341 0.760861 2.60008 0.414195 4.44008C0.0941948 6.18008 0.734195 7.78008 1.89419 8.81342C2.18086 9.06675 2.33419 9.42008 2.33419 9.79342V11.3334C2.33419 12.0667 2.93419 12.6667 3.66753 12.6667H3.85419C4.08753 13.0667 4.50753 13.3334 5.00086 13.3334C5.49419 13.3334 5.92086 13.0667 6.14753 12.6667H6.3342C7.06753 12.6667 7.66753 12.0667 7.66753 11.3334V9.79342C7.66753 9.42675 7.81419 9.06675 8.09419 8.82008C9.06086 7.96675 9.66753 6.72008 9.66753 5.33342C9.66753 2.75341 7.58086 0.666748 5.00086 0.666748ZM6.3342 10.0001H3.66753V9.33342H6.3342V10.0001ZM3.66753 11.3334V10.6667H6.3342V11.3334H3.66753ZM7.20753 7.82675C7.14753 7.88008 7.10086 7.94675 7.04753 8.00008H2.94753C2.89419 7.94008 2.84753 7.87341 2.78753 7.82008C1.90753 7.03341 1.51419 5.86008 1.72753 4.68675C1.96753 3.39341 3.03419 2.32008 4.32086 2.06675C4.54753 2.02008 4.77419 2.00008 5.00086 2.00008C6.84086 2.00008 8.3342 3.49341 8.3342 5.33342C8.3342 6.28675 7.92753 7.19341 7.20753 7.82675Z" fill="currentColor"/>
<path d="M5.3342 6.00008H4.66753V8.00008H5.3342V6.00008Z" fill="currentColor"/>
<path d="M3.92053 4.58256L3.44913 5.05396L4.86333 6.46816L5.33473 5.99676L3.92053 4.58256Z" fill="currentColor"/>
<path d="M4.66819 6.00354L5.13959 6.47494L6.55379 5.06074L6.08239 4.58934L4.66819 6.00354Z" fill="currentColor"/>
</svg>
