<svg width="32" height="32" viewBox="0 0 32 32" fill="none" xmlns="http://www.w3.org/2000/svg">
<path d="M14.2298 4.01117L14.2298 4.01107C10.7539 4.67853 7.97649 7.49156 7.32037 10.9715C6.71391 14.2712 7.9258 17.2971 10.1207 19.2528C10.8036 19.8566 11.1688 20.7006 11.1688 21.5867V24.6667C11.1688 25.8572 12.145 26.8334 13.3355 26.8334H13.7088H13.996L14.1407 27.0814C14.524 27.7386 15.2054 28.1667 16.0022 28.1667C16.8028 28.1667 17.4929 27.7355 17.8605 27.0869L18.0041 26.8334H18.2955H18.6688C19.8593 26.8334 20.8355 25.8572 20.8355 24.6667V21.5867C20.8355 20.7234 21.1807 19.8619 21.8581 19.265L14.2298 4.01117ZM14.2298 4.01117L14.2395 4.00909M14.2298 4.01117L14.2395 4.00909M14.2395 4.00909C14.8264 3.88422 15.4176 3.83337 16.0022 3.83337M14.2395 4.00909L16.0022 3.83337M16.0022 3.83337C20.886 3.83337 24.8355 7.78285 24.8355 12.6667C24.8355 15.2908 23.6882 17.6493 21.8583 19.2649L16.0022 3.83337ZM18.6688 22.5H19.1688V22V20.6667V20.1667H18.6688H13.3355H12.8355V20.6667V22V22.5H13.3355H18.6688ZM12.8355 24.6667V25.1667H13.3355H18.6688H19.1688V24.6667V23.3334V22.8334H18.6688H13.3355H12.8355V23.3334V24.6667ZM11.8955 18C11.8599 17.96 11.8259 17.9186 11.7918 17.8771C11.7236 17.7941 11.6555 17.7112 11.5755 17.64C9.81548 16.0667 9.02882 13.72 9.45548 11.3734C9.93548 8.78671 12.0688 6.64004 14.6421 6.13337C15.0955 6.04004 15.5488 6.00004 16.0022 6.00004C19.6822 6.00004 22.6688 8.98671 22.6688 12.6667L11.8955 18ZM20.7469 18.0278C22.2946 16.6657 23.1688 14.7158 23.1688 12.6667C23.1688 8.71057 19.9583 5.50004 16.0022 5.50004C15.5199 5.50004 15.0332 5.54254 14.5435 5.64321C11.7707 6.19007 9.48127 8.49396 8.96387 11.2821L8.96355 11.2839C8.50648 13.7978 9.34954 16.3208 11.2423 18.0128L11.2433 18.0137C11.2756 18.0425 11.3103 18.0802 11.3572 18.1361C11.3683 18.1493 11.3817 18.1656 11.3966 18.1838C11.4335 18.2287 11.4797 18.2849 11.5218 18.3322L11.671 18.5H11.8955H14.8355H15.3355H16.6688H17.1688H20.0955H20.3026L20.449 18.3536C20.5091 18.2935 20.5665 18.2265 20.609 18.1767C20.6163 18.1683 20.6231 18.1603 20.6294 18.153C20.6793 18.095 20.714 18.0571 20.7469 18.0278ZM15.8355 17.5V15.5349L15.9966 15.3738L16.1688 15.5461V17.5H15.8355ZM18.4009 12.1213L17.0222 13.5H16.8836L16.7172 13.3336L18.1652 11.8857L18.4009 12.1213ZM13.8415 11.8721L15.303 13.3336L15.1366 13.5H14.998L13.6058 12.1078L13.8415 11.8721Z" fill="currentColor" stroke="currentColor"/>
</svg>
