<svg width="136" height="31" viewBox="0 0 136 31" fill="none" xmlns="http://www.w3.org/2000/svg">
<path d="M8.16508 6.35259C10.5263 6.35259 12.2536 6.98963 13.3441 8.26667C14.4346 9.54074 14.9813 11.8222 14.9813 15.1022C14.9813 18.3822 14.3505 20.6548 13.0918 21.9081C11.8331 23.1615 9.66111 23.7867 6.58193 23.7867C5.61462 23.7867 3.84822 23.677 1.28574 23.4548L0.00300217 23.3215V0.0977783H4.52414V7.25037C5.96309 6.65185 7.17674 6.35259 8.16808 6.35259H8.16508ZM6.57893 19.7956C8.08697 19.7956 9.09634 19.4341 9.61605 18.7141C10.1327 17.9941 10.3911 16.7022 10.3911 14.8385C10.3911 11.843 9.44482 10.3467 7.55826 10.3467C6.65703 10.3467 5.80387 10.4563 4.99277 10.6785L4.52113 10.7793V19.6622C5.55454 19.7511 6.24247 19.7956 6.57893 19.7956Z" fill="#191919"/>
<path d="M27.5023 6.75256H32.0235V23.3896H27.5384V22.4592C25.9192 23.3452 24.5133 23.7896 23.3206 23.7896C20.9805 23.7896 19.4063 23.1526 18.5982 21.8755C17.7871 20.6015 17.3846 18.4652 17.3846 15.4696V6.75256H21.9057V15.5377C21.9057 17.1792 22.0409 18.2992 22.3113 18.8977C22.5816 19.4963 23.2335 19.7955 24.2669 19.7955C25.3003 19.7955 26.1895 19.6415 27.0667 19.3303L27.5053 19.197V6.75256H27.5023Z" fill="#191919"/>
<path d="M44.5475 6.75256H49.0686V23.3896H44.5835V22.4592C42.9643 23.3452 41.5584 23.7896 40.3658 23.7896C38.0256 23.7896 36.4515 23.1526 35.6434 21.8755C34.8323 20.6015 34.4297 18.4652 34.4297 15.4696V6.75256H38.9509V15.5377C38.9509 17.1792 39.086 18.2992 39.3564 18.8977C39.6268 19.4963 40.2787 19.7955 41.3121 19.7955C42.3004 19.7955 43.2347 19.6415 44.1119 19.3303L44.5505 19.197V6.75256H44.5475Z" fill="#191919"/>
<path d="M70.722 23.3452C69.2169 23.68 68.0634 23.8459 67.2823 23.8459C65.2576 23.8459 63.8727 23.3985 63.1277 22.5008C62.3887 21.6 62.0192 19.9408 62.0192 17.523V10.0859H60.3069C57.9877 10.0859 55.999 11.7837 55.999 14.083V23.4489H51.4689V6.81186H55.9569V8.57483C58.1019 6.85038 60.0215 7.16742 62.0192 7.13483V2.18372H66.5373V6.81186H70.6859V10.6015H66.5373V17.4252C66.5373 18.0919 66.5523 18.56 66.5914 18.8385C66.6244 19.12 66.7446 19.3541 66.9609 19.5585C67.1712 19.757 67.5046 19.8548 67.9552 19.8548L70.5177 19.7867L70.725 23.3452H70.722Z" fill="#191919"/>
<path d="M79.6651 23.7274C79.1755 23.7274 78.6257 23.6622 78.0129 23.5318C77.4 23.4014 76.8052 23.2414 76.2285 23.0459C75.6517 22.8503 75.138 22.6459 74.6934 22.4296L75.5285 21.6207V30.3051H73.1252V10.0177C73.1252 9.3481 73.3415 8.80884 73.7771 8.39699C74.2097 7.98513 74.7715 7.6681 75.4624 7.43995C76.1503 7.2118 76.8863 7.0518 77.6644 6.95402C78.4425 6.85625 79.1785 6.80884 79.8664 6.80884C81.2002 6.80884 82.4589 7.07847 83.6395 7.61773C84.8171 8.15699 85.7754 9.07254 86.5114 10.3555C87.2444 11.6414 87.6139 13.3866 87.6139 15.5911C87.6139 17.2562 87.3075 18.6962 86.6977 19.917C86.0848 21.1377 85.1896 22.077 84.012 22.7377C82.8314 23.3955 81.3865 23.7274 79.6741 23.7274H79.6651ZM79.602 21.5229C80.8067 21.5229 81.798 21.2681 82.5761 20.7614C83.3541 20.2548 83.9399 19.5466 84.3335 18.6399C84.727 17.7333 84.9253 16.6962 84.9253 15.5288C84.9253 14.3614 84.7931 13.2711 84.5317 12.2548C84.2704 11.2385 83.7657 10.4237 83.0207 9.80736C82.2757 9.19106 81.1912 8.88291 79.7673 8.88291C78.6287 8.88291 77.6374 9.01328 76.7932 9.27106C75.9491 9.52884 75.5285 9.89921 75.5285 10.3733V20.3881C76.2074 20.7762 76.8864 21.0637 77.5653 21.2474C78.2442 21.4311 78.9231 21.5229 79.602 21.5229Z" fill="#3457BF"/>
<path d="M92.4174 23.4074H90.0142V1.18518H92.4174V23.4074Z" fill="#3457BF"/>
<path d="M104.71 23.514C105.819 23.3422 106.717 22.9748 107.408 22.4088C108.099 21.8459 108.444 20.9925 108.444 19.8429V12.0029C108.444 11.3096 108.351 10.6874 108.165 10.1362C107.979 9.58513 107.714 9.09625 107.375 8.6755C107.035 8.25476 106.624 7.9081 106.14 7.6355C105.656 7.36588 105.107 7.15847 104.494 7.01921C103.878 6.87995 103.211 6.80884 102.484 6.80884C101.409 6.80884 100.3 6.92439 99.1586 7.14958C98.017 7.37476 97.1068 7.70662 96.4279 8.13921V10.474C97.1308 9.93476 97.969 9.53773 98.9453 9.28884C99.9216 9.03995 100.85 8.9155 101.727 8.9155C103.109 8.9155 104.175 9.20884 104.92 9.79254C105.665 10.3762 106.041 11.2977 106.041 12.5511V19.9733C106.041 20.7081 105.674 21.1792 104.938 21.3866C104.202 21.594 103.121 21.6948 101.697 21.6948C100.973 21.6948 100.264 21.597 99.5731 21.4014C98.8822 21.2059 98.3114 20.8711 97.8608 20.394C97.4102 19.917 97.1849 19.2799 97.1849 18.4799C97.1849 17.4844 97.5574 16.7259 98.3054 16.2074C99.0504 15.6888 100.117 15.4281 101.499 15.4281C102.64 15.4281 103.686 15.5644 104.641 15.834C105.596 16.1037 106.323 16.4237 106.368 16.7911L106.828 14.6488C105.951 14.3881 105.485 14.157 104.968 13.9496C104.452 13.7451 103.866 13.5881 103.208 13.4785C102.55 13.3718 101.769 13.3155 100.871 13.3155C99.6873 13.3155 98.6389 13.4933 97.7286 13.8518C96.8184 14.2103 96.1034 14.794 95.5897 15.6059C95.073 16.4177 94.8147 17.4962 94.8147 18.8355C94.8147 19.8103 95.0069 20.6162 95.3915 21.2533C95.776 21.8933 96.2807 22.394 96.9055 22.7614C97.5304 23.1288 98.2093 23.3896 98.9453 23.5407C99.6813 23.6918 100.411 23.7688 101.135 23.7688C102.409 23.7688 103.599 23.6829 104.707 23.5081L104.71 23.514Z" fill="#3457BF"/>
<path d="M110.85 8.53038C111.379 8.2726 111.926 8.03852 112.488 7.83408C113.049 7.62963 113.623 7.46075 114.206 7.33334C114.789 7.20593 115.384 7.10519 115.99 7.04297C116.597 6.97778 117.207 6.94519 117.826 6.94519C119.433 6.94519 120.713 7.17926 121.659 7.64149C122.605 8.10667 123.296 8.78223 123.726 9.66815C124.155 10.5541 124.372 11.6237 124.372 12.877V23.4104H121.969V12.877C121.969 12.4889 121.92 12.077 121.821 11.6444C121.722 11.2119 121.53 10.797 121.248 10.397C120.962 9.99704 120.524 9.67408 119.932 9.42519C119.34 9.1763 118.55 9.05186 117.565 9.05186C116.886 9.05186 116.183 9.10519 115.459 9.21482C114.735 9.32445 114.002 9.48445 113.257 9.70075V23.4104H110.853V8.53038H110.85Z" fill="#3457BF"/>
<path d="M135.484 9.2118V7.13477C130.629 7.13477 128.623 7.38662 127.517 8.72291C127.012 9.33328 126.772 10.1185 126.772 10.9066V23.4044H129.175V13.037C129.199 10.4681 129.31 9.06069 135.484 9.20884V9.2118Z" fill="#3457BF"/>
</svg>
