<svg width="49" height="48" viewBox="0 0 49 48" fill="none" xmlns="http://www.w3.org/2000/svg">
<path d="M40.4646 23.9556C38.5699 28.5442 36.0596 32.7978 33.2582 36.8714C30.8467 40.3805 28.291 43.7909 25.7754 47.2267C25.0263 48.2501 23.8459 48.2514 23.0768 47.2681C18.7545 41.7455 14.6993 36.0388 11.265 29.9131C9.58794 26.9217 8.06307 23.8555 7.21517 20.5065C6.34992 17.0867 6.864 13.7711 8.27938 10.6235C10.8778 4.85143 15.371 1.41433 21.5987 0.248175C21.9258 0.188133 22.2583 0.150773 22.5894 0.124088C23.2036 0.0733852 23.8179 0.0400283 24.4334 0C33.0646 0.038694 40.3725 6.28711 41.8039 14.8105C42.3433 18.0221 41.6784 21.0189 40.4646 23.9556Z" fill="#575AB9"/>
<path d="M32.1944 14.7543V14.5911C32.2003 12.9581 31.6821 11.3663 30.7162 10.0496C29.7503 8.73285 28.3875 7.76068 26.828 7.27592H26.7704C25.965 7.03038 25.1259 6.91374 24.284 6.93032C22.2794 7.04033 20.3923 7.9112 19.0079 9.36519C17.6235 10.8192 16.8461 12.7467 16.8344 14.7543C16.2719 14.9522 15.7846 15.3199 15.44 15.8065C15.0953 16.2931 14.9102 16.8748 14.9102 17.4711C14.9102 18.0675 15.0953 18.6491 15.44 19.1357C15.7846 19.6224 16.2719 19.99 16.8344 20.1879C17.0322 22.0837 17.9278 23.8382 19.3472 25.1104C20.7666 26.3825 22.6084 27.0814 24.5144 27.0711H24.7352C26.5784 26.9819 28.3303 26.2425 29.6801 24.9842C31.0298 23.7258 31.89 22.0299 32.108 20.1975C32.6772 20.0108 33.174 19.6513 33.5292 19.169C33.8845 18.6867 34.0805 18.1056 34.09 17.5067C34.0995 16.9078 33.922 16.3208 33.5823 15.8274C33.2425 15.3341 32.7574 14.959 32.1944 14.7543ZM24.6872 25.1511C23.2975 25.1913 21.9402 24.7275 20.8657 23.8453C19.7912 22.9631 19.072 21.722 18.8408 20.3511H30.14C29.9057 21.6489 29.2395 22.8294 28.2496 23.7008C27.2597 24.5722 26.0043 25.0833 24.6872 25.1511ZM31.2344 18.4311H17.7944C17.5398 18.4311 17.2957 18.33 17.1156 18.1499C16.9356 17.9699 16.8344 17.7257 16.8344 17.4711C16.8344 17.2165 16.9356 16.9723 17.1156 16.7923C17.2957 16.6123 17.5398 16.5111 17.7944 16.5111H19.7144C19.969 16.5111 20.2132 16.41 20.3933 16.2299C20.5733 16.0499 20.6744 15.8057 20.6744 15.5511C20.6744 15.2965 20.5733 15.0523 20.3933 14.8723C20.2132 14.6923 19.969 14.5911 19.7144 14.5911H18.7544C18.7974 13.5952 19.0821 12.6247 19.5838 11.7634C20.0855 10.9021 20.7893 10.1758 21.6344 9.64712V12.6711C21.6344 12.9257 21.7356 13.1699 21.9156 13.3499C22.0957 13.53 22.3398 13.6311 22.5944 13.6311C22.849 13.6311 23.0932 13.53 23.2733 13.3499C23.4533 13.1699 23.5544 12.9257 23.5544 12.6711V8.91752C23.815 8.87398 24.0778 8.84514 24.3416 8.83112H24.5144C24.8362 8.83565 25.1571 8.86453 25.4744 8.91752V12.6711C25.4744 12.9257 25.5756 13.1699 25.7556 13.3499C25.9357 13.53 26.1798 13.6311 26.4344 13.6311C26.689 13.6311 26.9332 13.53 27.1133 13.3499C27.2933 13.1699 27.3944 12.9257 27.3944 12.6711V9.61832C27.8017 9.85412 28.1816 10.1342 28.5272 10.4535C29.0807 10.991 29.5206 11.6342 29.8207 12.345C30.1209 13.0558 30.2752 13.8196 30.2744 14.5911H29.3144C29.0598 14.5911 28.8156 14.6923 28.6356 14.8723C28.4556 15.0523 28.3544 15.2965 28.3544 15.5511C28.3544 15.8057 28.4556 16.0499 28.6356 16.2299C28.8156 16.41 29.0598 16.5111 29.3144 16.5111H31.2344C31.489 16.5111 31.7332 16.6123 31.9133 16.7923C32.0933 16.9723 32.1944 17.2165 32.1944 17.4711C32.1944 17.7257 32.0933 17.9699 31.9133 18.1499C31.7332 18.33 31.489 18.4311 31.2344 18.4311Z" fill="white"/>
</svg>
