<svg width="34" height="34" viewBox="0 0 34 34" fill="none" xmlns="http://www.w3.org/2000/svg">
<path d="M15.7951 20.3941L15.8036 29.38L14.4544 28.0309C14.2294 27.8058 13.9241 27.6794 13.6059 27.6794C13.2876 27.6794 12.9824 27.8058 12.7574 28.0309C12.5323 28.2559 12.4059 28.5611 12.4059 28.8794C12.4059 29.1977 12.5323 29.5029 12.7574 29.7279L16.1515 33.122C16.2637 33.2316 16.3963 33.3181 16.5418 33.3766C16.8352 33.4978 17.1648 33.4978 17.4582 33.3766C17.6037 33.3181 17.7363 33.2316 17.8485 33.122L21.2426 29.7279C21.4677 29.5029 21.5941 29.1977 21.5941 28.8794C21.5941 28.5611 21.4677 28.2559 21.2426 28.0309C21.0176 27.8058 20.7124 27.6794 20.3941 27.6794C20.0759 27.6794 19.7706 27.8058 19.5456 28.0309L18.1964 29.38L18.2049 20.3941C18.2049 20.0746 18.078 19.7681 17.852 19.5421C17.626 19.3161 17.3196 19.1892 17 19.1892C16.6804 19.1892 16.374 19.3161 16.148 19.5421C15.922 19.7681 15.7951 20.0746 15.7951 20.3941ZM4.61998 15.8036L5.96913 14.4544C6.19418 14.2294 6.32061 13.9241 6.32061 13.6059C6.32061 13.2876 6.19418 12.9824 5.96914 12.7574C5.74409 12.5323 5.43887 12.4059 5.12061 12.4059C4.80235 12.4059 4.49712 12.5323 4.27208 12.7574L0.877966 16.1515C0.768424 16.2637 0.68194 16.3963 0.623408 16.5418C0.502175 16.8352 0.502175 17.1648 0.623408 17.4582C0.68194 17.6037 0.768424 17.7363 0.877966 17.8485L4.27208 21.2426C4.49712 21.4677 4.80235 21.5941 5.12061 21.5941C5.43887 21.5941 5.74409 21.4677 5.96914 21.2426C6.19418 21.0176 6.32061 20.7124 6.32061 20.3941C6.32061 20.0759 6.19418 19.7706 5.96913 19.5456L4.61998 18.1964L13.6059 18.2049C13.7643 18.2056 13.9213 18.1748 14.0678 18.1145C14.2142 18.0542 14.3473 17.9655 14.4593 17.8534C14.5714 17.7414 14.6601 17.6083 14.7204 17.4619C14.7807 17.3154 14.8114 17.1584 14.8108 17C14.8114 16.8416 14.7807 16.6846 14.7204 16.5381C14.6601 16.3917 14.5714 16.2586 14.4593 16.1466C14.3473 16.0345 14.2142 15.9458 14.0678 15.8855C13.9213 15.8252 13.7643 15.7944 13.6059 15.7951L4.61998 15.8036ZM28.0309 12.7574C27.8058 12.9824 27.6794 13.2876 27.6794 13.6059C27.6794 13.9241 27.8058 14.2294 28.0309 14.4544L29.38 15.8036L20.3941 15.7951C20.0746 15.7951 19.7681 15.922 19.5421 16.148C19.3161 16.374 19.1892 16.6804 19.1892 17C19.1892 17.3196 19.3161 17.626 19.5421 17.852C19.7681 18.078 20.0746 18.2049 20.3941 18.2049L29.38 18.1964L28.0309 19.5456C27.8058 19.7706 27.6794 20.0759 27.6794 20.3941C27.6794 20.7124 27.8058 21.0176 28.0309 21.2426C28.2559 21.4677 28.5611 21.5941 28.8794 21.5941C29.1977 21.5941 29.5029 21.4677 29.7279 21.2426L33.122 17.8485C33.2316 17.7363 33.3181 17.6037 33.3766 17.4582C33.4978 17.1648 33.4978 16.8352 33.3766 16.5418C33.3181 16.3963 33.2316 16.2637 33.122 16.1515L29.7279 12.7574C29.5029 12.5323 29.1977 12.4059 28.8794 12.4059C28.5611 12.4059 28.2559 12.5323 28.0309 12.7574ZM17.4582 0.623406C17.1648 0.502174 16.8352 0.502174 16.5418 0.623407C16.3963 0.68194 16.2637 0.768422 16.1515 0.877965L12.7574 4.27208C12.5323 4.49712 12.4059 4.80235 12.4059 5.12061C12.4059 5.43887 12.5323 5.74409 12.7574 5.96913C12.9824 6.19418 13.2876 6.32061 13.6059 6.32061C13.9241 6.32061 14.2294 6.19418 14.4544 5.96913L15.8036 4.61997L15.7951 13.6059C15.7944 13.7643 15.8252 13.9213 15.8855 14.0678C15.9458 14.2142 16.0345 14.3473 16.1466 14.4593C16.2586 14.5714 16.3917 14.6601 16.5381 14.7204C16.6846 14.7807 16.8416 14.8114 17 14.8108C17.1584 14.8114 17.3154 14.7807 17.4619 14.7204C17.6083 14.6601 17.7414 14.5714 17.8534 14.4593C17.9655 14.3473 18.0542 14.2142 18.1145 14.0678C18.1748 13.9213 18.2056 13.7643 18.2049 13.6059L18.1964 4.61997L19.5456 5.96913C19.7706 6.19418 20.0759 6.32061 20.3941 6.32061C20.7124 6.32061 21.0176 6.19418 21.2426 5.96913C21.4677 5.74409 21.5941 5.43886 21.5941 5.12061C21.5941 4.80235 21.4677 4.49712 21.2426 4.27208L17.8485 0.877966C17.7363 0.768423 17.6037 0.681939 17.4582 0.623406Z" fill="#191919"/>
</svg>
