<svg width="32" height="32" viewBox="0 0 32 32" fill="none" xmlns="http://www.w3.org/2000/svg">
<path d="M7.79081 13.2999L7.79161 13.3015C8.24741 14.1827 9.23193 14.6633 10.4403 14.6633H21.5603C22.7709 14.6633 23.7502 14.1817 24.2326 13.3074L24.2327 13.3075L24.2365 13.2999C24.6923 12.4035 24.4915 11.3291 23.7899 10.3605C23.7897 10.3603 23.7896 10.3601 23.7894 10.3599L18.2317 2.5898C18.2314 2.58946 18.2312 2.58912 18.231 2.58878C17.1324 1.02284 14.8833 1.02 13.7961 2.57572C13.7959 2.5761 13.7956 2.57647 13.7953 2.57685L8.23786 10.3599C8.23769 10.3602 8.23753 10.3604 8.23736 10.3606C7.53579 11.3292 7.33504 12.4036 7.79082 13.2999L7.79081 13.2999ZM10.2679 11.8154L10.2679 11.8155L10.2705 11.8117L15.8287 4.01434C15.8786 3.94814 15.9246 3.90205 15.962 3.87455C15.9834 3.85874 15.9968 3.85282 16.0024 3.85073C16.0087 3.85256 16.0232 3.85816 16.0469 3.87476C16.0859 3.90202 16.1374 3.95062 16.2003 4.03008L21.7559 11.8105C21.756 11.8107 21.7562 11.811 21.7564 11.8112C21.849 11.943 21.9028 12.0483 21.934 12.1246C21.8541 12.145 21.7365 12.1633 21.5736 12.1633H10.4536C10.2856 12.1633 10.1642 12.1472 10.0821 12.1292C10.1129 12.0546 10.1687 11.9493 10.2679 11.8154ZM10.0469 12.2497C10.0469 12.2524 10.0468 12.2538 10.0468 12.2539C10.0467 12.254 10.0467 12.2526 10.0469 12.2497Z" fill="currentColor" stroke="currentColor" stroke-width="0.5"/>
<path d="M20.7373 12.6818L20.7373 12.6818L20.7348 12.6784C20.5022 12.3627 20.1216 12.1633 19.7202 12.1633H12.2935C11.8986 12.1633 11.513 12.3445 11.276 12.6824L5.95714 20.1475C5.37334 20.954 5.14704 21.6721 5.11228 22.2739C5.07757 22.8748 5.23478 23.3423 5.39102 23.6473C5.54692 23.9517 5.83417 24.3552 6.34153 24.6819C6.85004 25.0093 7.56495 25.25 8.56022 25.25H23.4535C24.4488 25.25 25.1607 25.0093 25.6662 24.6814C26.1707 24.3543 26.4541 23.9505 26.6094 23.6473C26.7649 23.3437 26.926 22.8767 26.8949 22.2771C26.8638 21.6763 26.6407 20.9609 26.0564 20.1606C26.0561 20.1601 26.0558 20.1597 26.0554 20.1592L20.7373 12.6818ZM7.97711 21.6118L12.9385 14.65H19.0579L24.0098 21.6116L24.0114 21.6137C24.2128 21.8908 24.3165 22.1108 24.3613 22.2695C24.3836 22.3486 24.3901 22.4083 24.3892 22.4497C24.3888 22.4701 24.3866 22.4849 24.3843 22.4947C24.3822 22.5039 24.3802 22.5079 24.3801 22.5081L24.3801 22.5082L24.3765 22.5149L24.3732 22.5219C24.3732 22.5219 24.3732 22.5219 24.3732 22.522C24.3713 22.5247 24.332 22.5841 24.172 22.6444C24.0173 22.7028 23.7788 22.75 23.4402 22.75H8.54688C8.20844 22.75 7.97351 22.7028 7.82079 22.6447C7.68091 22.5915 7.62696 22.5362 7.61129 22.5148C7.60386 22.49 7.59157 22.4131 7.63135 22.2676C7.67475 22.1089 7.77524 21.8893 7.9757 21.6137L7.97571 21.6137L7.97711 21.6118Z" fill="currentColor" stroke="currentColor" stroke-width="0.5"/>
<path d="M14.75 29.3333C14.75 30.0181 15.3153 30.5833 16 30.5833C16.6847 30.5833 17.25 30.0181 17.25 29.3333V24C17.25 23.3153 16.6847 22.75 16 22.75C15.3153 22.75 14.75 23.3153 14.75 24V29.3333Z" fill="currentColor" stroke="currentColor" stroke-width="0.5"/>
</svg>
