<svg width="32" height="32" viewBox="0 0 32 32" fill="none" xmlns="http://www.w3.org/2000/svg">
<path d="M4.98988 23.5224L4.98992 23.5224L4.9879 23.5171C4.66091 22.6489 4.76518 21.6753 5.30774 20.7789L5.30834 20.7779L6.84167 18.2312L6.84207 18.2306C7.03483 17.9093 7.20277 17.461 7.32205 17.0277C7.44142 16.5941 7.52665 16.1226 7.52665 15.7466V11.8933C7.52665 7.20945 11.3428 3.39331 16.0267 3.39331C20.7105 3.39331 24.5267 7.20945 24.5267 11.8933V15.7466C24.5267 16.1162 24.6121 16.5879 24.731 17.0234C24.8501 17.4594 25.0174 17.9128 25.2085 18.2392L25.2085 18.2392L25.2112 18.2439L26.7307 20.7763C26.7308 20.7766 26.731 20.7768 26.7311 20.777C27.2263 21.6066 27.3189 22.6087 26.9839 23.521C26.6506 24.4291 25.9271 25.1188 25.017 25.4184L25.0139 25.4194C22.1336 26.3882 19.0809 26.8733 16.0267 26.8733C12.9734 26.8733 9.92123 26.3885 7.02773 25.42C6.03245 25.0757 5.30502 24.3891 4.98988 23.5224ZM6.17163 21.2887L6.17022 21.2911C5.82373 21.8738 5.69056 22.5541 5.93149 23.1748C6.1572 23.8046 6.69787 24.2388 7.34508 24.4598L7.34786 24.4608C13.024 26.3619 19.0419 26.3619 24.7181 24.461C25.3418 24.2531 25.8311 23.7819 26.0569 23.1565C26.2787 22.5425 26.2301 21.8644 25.8816 21.2886C25.8814 21.2882 25.8811 21.2879 25.8809 21.2875L24.3501 18.7449C23.8883 17.9535 23.5267 16.6158 23.5267 15.7333V11.8933C23.5267 7.7505 20.1695 4.39331 16.0267 4.39331C11.8978 4.39331 8.52666 7.74988 8.52666 11.8933V15.7466C8.52666 16.6278 8.15236 17.9788 7.70351 18.7445L6.17163 21.2887Z" fill="#191919" stroke="currentColor"/>
<path d="M18.364 4.7326L18.364 4.73258L18.3596 4.73137C17.9553 4.61983 17.562 4.53536 17.1799 4.47876L17.1799 4.47868L17.1708 4.4775C15.973 4.32249 14.8087 4.40616 13.7102 4.73428L13.7102 4.73418L13.7003 4.73735C13.5224 4.79454 13.3249 4.73885 13.1974 4.59791C13.0683 4.45518 13.0315 4.2577 13.103 4.08201L13.1031 4.08203L13.1057 4.07523C13.5778 2.86633 14.7267 2.07336 16.04 2.07336C17.3542 2.07336 18.4999 2.85335 18.9722 4.07001C19.0432 4.26471 19.0026 4.46269 18.8855 4.59461C18.7874 4.69729 18.6447 4.75336 18.5067 4.75336C18.4616 4.75336 18.4145 4.74702 18.364 4.7326Z" fill="#191919" stroke="currentColor"/>
<path d="M16.0266 29.9133C14.84 29.9133 13.687 29.4332 12.8468 28.5931C12.1254 27.8716 11.6694 26.9194 11.555 25.9133H12.5633C12.672 26.6532 13.0187 27.3526 13.5531 27.8869C14.2066 28.5404 15.107 28.9133 16.0266 28.9133C17.7864 28.9133 19.2475 27.6069 19.491 25.9133H20.4991C20.2501 28.1622 18.3415 29.9133 16.0266 29.9133Z" fill="#191919" stroke="currentColor"/>
</svg>
