<svg width="32" height="32" viewBox="0 0 32 32" fill="none" xmlns="http://www.w3.org/2000/svg">
<path d="M19.9986 6.29092L19.9986 6.29094L20.003 6.29226C20.2655 6.37101 20.417 6.64779 20.3344 6.923C20.2558 7.18518 19.9796 7.33662 19.7047 7.25474C18.5255 6.89421 17.2768 6.70001 16 6.70001C9.89719 6.70001 4.94 11.6572 4.94 17.76C4.94 23.8628 9.89719 28.82 16 28.82C22.1028 28.82 27.06 23.8628 27.06 17.76C27.06 15.5552 26.4178 13.4316 25.2022 11.6153L25.2008 11.6132C25.0497 11.3898 25.1085 11.0775 25.3413 10.9245L25.3413 10.9246L25.3468 10.9208C25.5702 10.7697 25.8825 10.8285 26.0355 11.0613L26.0355 11.0613L26.0381 11.0653C27.369 13.0488 28.0731 15.3647 28.0733 17.7724C28.0605 24.4175 22.6567 29.8333 16 29.8333C9.34316 29.8333 3.94 24.4175 3.94 17.7733C3.94 11.1285 9.34385 5.70001 16 5.70001C17.3795 5.70001 18.716 5.89331 19.9986 6.29092Z" fill="#191919" stroke="#191919"/>
<path d="M17.2705 2.99173L17.2704 2.99162C17.0893 2.78367 17.1128 2.45988 17.3151 2.28372C17.523 2.10263 17.8467 2.12614 18.0229 2.3283C18.0229 2.32833 18.0229 2.32837 18.023 2.3284L21.8762 6.75497L21.8763 6.75507C22.0574 6.96303 22.0339 7.28682 21.8316 7.46297L21.8186 7.47428L21.8065 7.48646C21.7443 7.54866 21.6408 7.59335 21.5067 7.59335C21.369 7.59335 21.2265 7.53416 21.1225 7.41691L17.2705 2.99173Z" fill="#191919" stroke="#191919"/>
<path d="M21.2015 6.68383L21.2015 6.6839L21.2086 6.67853C21.4139 6.52296 21.7303 6.56053 21.9081 6.79524C22.0631 6.99982 22.0264 7.31457 21.7941 7.49275L17.3044 10.7834L17.3043 10.7833L17.2951 10.7903C17.2261 10.8435 17.1398 10.8733 17.0133 10.8733C16.8651 10.8733 16.7078 10.8018 16.6023 10.663C16.4475 10.4468 16.4905 10.1313 16.7123 9.96078L21.2015 6.68383Z" fill="#191919" stroke="#191919"/>
</svg>
