<svg width="32" height="32" viewBox="0 0 32 32" fill="none" xmlns="http://www.w3.org/2000/svg">
<path d="M6.81253 11.6132L6.81114 11.6152C5.5954 13.4318 4.95334 15.5688 4.95334 17.76C4.95334 23.8628 9.91053 28.82 16.0133 28.82C22.1161 28.82 27.0733 23.8628 27.0733 17.76C27.0733 11.6563 22.102 6.69998 16 6.69998C14.7269 6.69998 13.4779 6.87979 12.2952 7.24139C12.0204 7.32323 11.7442 7.17179 11.6656 6.90964C11.583 6.63442 11.7345 6.35764 11.997 6.27889C13.2854 5.89237 14.6237 5.68665 16 5.68665C22.6568 5.68665 28.06 11.1024 28.06 17.7466C28.06 24.3922 22.6555 29.8333 16 29.8333C9.34316 29.8333 3.94 24.4175 3.94 17.7733C3.94 15.3798 4.64346 13.0635 5.97494 11.0656C6.13345 10.8327 6.45146 10.7753 6.66651 10.9208C6.90043 11.079 6.95825 11.3977 6.81253 11.6132Z" fill="#191919" stroke="#191919"/>
<path d="M10.1104 6.76841L10.1105 6.7683L13.9637 2.34174C14.1472 2.13103 14.4671 2.11248 14.6649 2.29107L14.6648 2.29113L14.6716 2.29706C14.8738 2.47316 14.8974 2.79679 14.7165 3.00475C14.7164 3.00482 14.7164 3.00489 14.7163 3.00496L10.8651 7.41587C10.8648 7.41615 10.8646 7.41643 10.8644 7.4167C10.758 7.53673 10.6143 7.59335 10.4933 7.59335C10.3794 7.59335 10.2576 7.55191 10.1673 7.47532C9.94711 7.28089 9.93448 6.97036 10.1104 6.76841Z" fill="#191919" stroke="#191919"/>
<path d="M10.1884 7.48966L10.1884 7.48966L10.1874 7.48899C9.9749 7.33442 9.92377 7.02162 10.0844 6.80078L10.0844 6.80081L10.0885 6.79503C10.241 6.57894 10.5506 6.52046 10.7889 6.68659L15.2785 9.96388L15.2793 9.96439C15.4971 10.1228 15.5515 10.4358 15.3839 10.6638L15.377 10.6731L15.3707 10.6827C15.29 10.8037 15.1515 10.8734 14.9867 10.8734C14.8926 10.8734 14.7802 10.8403 14.689 10.7786L10.1884 7.48966Z" fill="#191919" stroke="#191919"/>
</svg>
