<svg width="40" height="40" viewBox="0 0 40 40" fill="none" xmlns="http://www.w3.org/2000/svg">
<rect width="40" height="40" rx="8" fill="none"/>
<g clip-path="url(#clip0_2029_11297)">
<path d="M6.00682 19.9948C6.00682 16.6865 5.98755 13.3783 6.01498 10.07C6.02906 8.39628 6.83788 7.16705 8.33392 6.40526C8.94108 6.0961 9.60681 6.00735 10.2792 6.00661C15.2025 6.00143 20.1266 6.00957 25.0498 5.99995C26.3554 5.997 27.4466 6.42819 28.3644 7.37044C29.793 8.83708 31.252 10.2749 32.7072 11.7156C33.5739 12.5736 34.0031 13.5905 34.0002 14.8168C33.9883 19.8298 33.9957 24.8422 33.995 29.8552C33.995 32.236 32.2298 33.9977 29.8419 33.9985C23.2795 34 16.7178 34 10.1554 33.9985C7.76753 33.9985 6.00905 32.2367 6.00757 29.85C6.00608 26.5647 6.00757 23.2801 6.00757 19.9948H6.00682ZM8.03738 19.9955C8.03738 23.2882 8.03664 26.581 8.03738 29.873C8.03738 30.4646 8.17082 31.0068 8.61934 31.4372C9.07378 31.8729 9.63573 31.9734 10.231 31.9742C15.5895 31.9749 20.9472 31.9742 26.3057 31.9742C27.4785 31.9742 28.6506 31.9771 29.8234 31.9727C30.4661 31.9705 31.0526 31.8226 31.4981 31.3115C31.8562 30.8995 31.9607 30.4084 31.9614 29.8863C31.9644 27.5158 31.9629 25.1447 31.9629 22.7742C31.9629 20.1249 31.9629 17.4749 31.9629 14.8257C31.9629 14.2318 31.8228 13.6933 31.3854 13.2577C29.8301 11.709 28.2777 10.1573 26.7231 8.60707C26.5674 8.45175 26.3798 8.34229 26.1804 8.25205C26.0759 8.20472 26.0158 8.22839 26.0181 8.35338C26.0195 8.4229 26.0173 8.49317 26.0173 8.56269C26.0173 10.337 26.0188 12.1106 26.0166 13.8849C26.0158 14.751 25.6933 15.4351 24.883 15.8367C24.5087 16.0224 24.1039 16.0379 23.7013 16.0386C19.9427 16.0423 16.1841 16.0416 12.4262 16.0394C12.1941 16.0394 11.9591 16.0327 11.7293 16.0031C11.0524 15.9159 10.5446 15.5771 10.2214 14.9692C10.0212 14.5927 9.9849 14.1852 9.98416 13.774C9.97897 11.9922 9.98194 10.2105 9.98194 8.42808C9.98194 8.35042 9.98194 8.27276 9.97823 8.19584C9.97378 8.09896 9.91966 8.05828 9.82477 8.06863C9.43186 8.11005 9.06415 8.21359 8.75204 8.47098C8.23235 8.89847 8.03738 9.46575 8.03738 10.1166C8.03738 13.4093 8.03738 16.7021 8.03738 19.994V19.9955ZM18.0048 8.05828C16.1255 8.05828 14.2462 8.05828 12.3669 8.05828C12.0407 8.05828 12.0392 8.05828 12.0392 8.37261C12.0392 10.1388 12.0392 11.9057 12.0392 13.6719C12.0392 13.9855 12.0399 13.9862 12.3431 13.9862C16.1099 13.9862 19.876 13.9862 23.6428 13.9862C23.9608 13.9862 23.9623 13.9855 23.9623 13.6601C23.9623 11.9013 23.9623 10.1425 23.9623 8.3837C23.9623 8.05828 23.9608 8.05754 23.6428 8.05754C21.7635 8.05754 19.8841 8.05754 18.0048 8.05754V8.05828Z" fill="currentColor"/>
<path d="M25.0022 23.9635C24.9985 26.5765 22.9798 28.9995 19.9981 29.0202C17.2558 29.0394 15.0081 26.7637 14.9984 23.9842C14.9903 21.6485 16.8051 18.9653 20.0485 18.9786C23.131 18.9911 25.0015 21.5916 25.0022 23.9628V23.9635ZM20.007 26.9685C21.6698 26.9929 22.9539 25.6949 22.9613 23.9731C22.9679 22.3844 21.7373 21.0117 19.9929 21.011C18.2152 21.011 17.0275 22.4739 17.0371 23.9665C17.0483 25.6661 18.2982 26.9966 20.0077 26.9685H20.007Z" fill="currentColor"/>
</g>
<defs>
<clipPath id="clip0_2029_11297">
<rect width="28" height="28" fill="white" transform="translate(6 6)"/>
</clipPath>
</defs>
</svg>
