<svg width="28" height="28" viewBox="0 0 28 28" fill="none" xmlns="http://www.w3.org/2000/svg">
<path d="M0.00682409 13.9948C0.00682409 10.6865 -0.012451 7.37826 0.0149789 4.07001C0.0290646 2.39628 0.837876 1.16705 2.33392 0.405258C2.94108 0.0961029 3.60681 0.00735014 4.27922 0.00661054C9.20251 0.00143329 14.1266 0.00956896 19.0498 -4.59185e-05C20.3554 -0.00300434 21.4466 0.428186 22.3644 1.37044C23.793 2.83708 25.252 4.27488 26.7072 5.71563C27.5739 6.57357 28.0031 7.59053 28.0002 8.8168C27.9883 13.8298 27.9957 18.8422 27.995 23.8552C27.995 26.236 26.2298 27.9977 23.8419 27.9985C17.2795 28 10.7178 28 4.15541 27.9985C1.76753 27.9985 0.00904814 26.2367 0.00756544 23.85C0.00608274 20.5647 0.00756544 17.2801 0.00756544 13.9948H0.00682409ZM2.03738 13.9955C2.03738 17.2882 2.03664 20.581 2.03738 23.873C2.03738 24.4646 2.17082 25.0068 2.61934 25.4372C3.07378 25.8728 3.63573 25.9734 4.23103 25.9742C9.5895 25.9749 14.9472 25.9742 20.3057 25.9742C21.4785 25.9742 22.6506 25.9771 23.8234 25.9727C24.4661 25.9705 25.0526 25.8226 25.4981 25.3115C25.8562 24.8995 25.9607 24.4084 25.9614 23.8863C25.9644 21.5158 25.9629 19.1447 25.9629 16.7742C25.9629 14.1249 25.9629 11.4749 25.9629 8.82567C25.9629 8.23177 25.8228 7.69334 25.3854 7.25771C23.8301 5.70897 22.2777 4.15728 20.7231 2.60707C20.5674 2.45175 20.3798 2.34229 20.1804 2.25205C20.0759 2.20472 20.0158 2.22839 20.0181 2.35338C20.0195 2.4229 20.0173 2.49317 20.0173 2.56269C20.0173 4.337 20.0188 6.11058 20.0166 7.88489C20.0158 8.75097 19.6933 9.43511 18.883 9.83671C18.5087 10.0224 18.1039 10.0379 17.7013 10.0386C13.9427 10.0423 10.1841 10.0416 6.42616 10.0394C6.19412 10.0394 5.95911 10.0327 5.7293 10.0031C5.05244 9.91585 4.54462 9.57711 4.22139 8.96916C4.02123 8.5927 3.9849 8.18517 3.98416 7.77395C3.97897 5.99224 3.98194 4.21053 3.98194 2.42808C3.98194 2.35042 3.98194 2.27276 3.97823 2.19584C3.97378 2.09896 3.91966 2.05828 3.82477 2.06863C3.43186 2.11005 3.06415 2.21359 2.75204 2.47098C2.23235 2.89847 2.03738 3.46575 2.03738 4.1166C2.03738 7.40933 2.03738 10.7021 2.03738 13.994V13.9955ZM12.0048 2.05828C10.1255 2.05828 8.24617 2.05828 6.36686 2.05828C6.04066 2.05828 6.03918 2.05828 6.03918 2.37261C6.03918 4.13879 6.03918 5.90571 6.03918 7.67189C6.03918 7.98548 6.03992 7.98622 6.34313 7.98622C10.1099 7.98622 13.876 7.98622 17.6428 7.98622C17.9608 7.98622 17.9623 7.98548 17.9623 7.66005C17.9623 5.90127 17.9623 4.14249 17.9623 2.3837C17.9623 2.05828 17.9608 2.05754 17.6428 2.05754C15.7635 2.05754 13.8841 2.05754 12.0048 2.05754V2.05828Z" fill="currentColor"/>
<path d="M19.0022 17.9635C18.9985 20.5765 16.9798 22.9995 13.9981 23.0202C11.2558 23.0394 9.00808 20.7637 8.99844 17.9842C8.99029 15.6485 10.8051 12.9653 14.0485 12.9786C17.131 12.9911 19.0015 15.5916 19.0022 17.9628V17.9635ZM14.007 20.9685C15.6698 20.9929 16.9539 19.6949 16.9613 17.9731C16.9679 16.3845 15.7373 15.0117 13.9929 15.011C12.2152 15.011 11.0275 16.4739 11.0371 17.9665C11.0483 19.6661 12.2982 20.9966 14.0077 20.9685H14.007Z" fill="currentColor"/>
</svg>
