<svg width="24" height="24" viewBox="0 0 24 24" fill="none" xmlns="http://www.w3.org/2000/svg">
  <path d="M1.1 11.5C1.1 17.2328 5.76716 21.9 11.5 21.9C17.2328 21.9 21.9 17.2328 21.9 11.5C21.9 5.76716 17.2328 1.1 11.5 1.1C5.76716 1.1 1.1 5.76716 1.1 11.5ZM2.9 11.5C2.9 6.76273 6.75295 2.9 11.5 2.9C16.247 2.9 20.1 6.76273 20.1 11.5C20.1 16.2373 16.247 20.1 11.5 20.1C6.75295 20.1 2.9 16.2373 2.9 11.5Z" fill="currentColor" stroke="currentColor" stroke-width="0.3"/>
  <path d="M21.3639 22.6361C21.5435 22.8157 21.7724 22.9 22 22.9C22.2276 22.9 22.4565 22.8157 22.6361 22.6361C22.9846 22.2875 22.9846 21.7125 22.6361 21.3639L20.6361 19.3639C20.2875 19.0154 19.7125 19.0154 19.3639 19.3639C19.0154 19.7125 19.0154 20.2875 19.3639 20.6361L21.3639 22.6361Z" fill="currentColor" stroke="currentColor" stroke-width="0.3"/>
</svg>
