<svg width="32" height="32" viewBox="0 0 32 32" fill="none" xmlns="http://www.w3.org/2000/svg">
<path d="M16 20.5C13.5161 20.5 11.5 18.4839 11.5 16C11.5 13.5161 13.5161 11.5 16 11.5C18.4839 11.5 20.5 13.5161 20.5 16C20.5 18.4839 18.4839 20.5 16 20.5ZM16 12.5C14.0705 12.5 12.5 14.0705 12.5 16C12.5 17.9295 14.0705 19.5 16 19.5C17.9295 19.5 19.5 17.9295 19.5 16C19.5 14.0705 17.9295 12.5 16 12.5Z" fill="#8C95AF" stroke="#8C95AF"/>
<path d="M18.6206 26.9705L18.62 26.9695C17.9206 25.7546 16.9569 25.1533 16 25.1533C15.0453 25.1533 14.0804 25.7655 13.3791 26.971C13.379 26.9711 13.379 26.9712 13.3789 26.9714L13.2327 27.2238L13.229 27.2302L13.2251 27.2365C12.9927 27.612 12.6245 27.9151 12.1637 28.0311C11.7368 28.1418 11.266 28.0886 10.8648 27.8434L8.56499 26.5273L8.55807 26.5233L8.55128 26.5191C8.1042 26.244 7.76569 25.8218 7.62355 25.2888C7.4837 24.7644 7.55235 24.2145 7.82024 23.7501L7.82112 23.7486C8.51912 22.5485 8.55973 21.3973 8.08588 20.568C7.6147 19.7435 6.6012 19.2066 5.2 19.2066C4.06769 19.2066 3.16666 18.2866 3.16666 17.1733V14.8266C3.16666 13.6972 4.07052 12.7933 5.2 12.7933C6.6012 12.7933 7.6147 12.2565 8.08588 11.4319C8.55973 10.6027 8.51912 9.45143 7.82112 8.25136L7.82024 8.24984C7.55235 7.78549 7.4837 7.23559 7.62355 6.71114C7.76583 6.17757 8.11972 5.73737 8.57644 5.47376L18.6206 26.9705ZM18.6206 26.9705L18.7659 27.2214C18.7661 27.2217 18.7663 27.2221 18.7665 27.2224C18.9959 27.6232 19.377 27.9063 19.8254 28.0184C20.2597 28.127 20.7163 28.0771 21.1068 27.8443M18.6206 26.9705L21.1068 27.8443M21.1068 27.8443L23.4099 26.5131C23.8668 26.2495 24.2208 25.8092 24.3631 25.2755C24.503 24.751 24.4343 24.2011 24.1664 23.7368L24.1655 23.7353C23.4675 22.5352 23.4269 21.384 23.9008 20.5547C24.372 19.7302 25.3855 19.1933 26.7867 19.1933C27.9161 19.1933 28.82 18.2895 28.82 17.16V14.8133C28.82 13.7 27.919 12.78 26.7867 12.78C25.3855 12.78 24.372 12.2431 23.9008 11.4186C23.4269 10.5893 23.4675 9.43809 24.1655 8.23803L24.1664 8.2365C24.4343 7.77216 24.503 7.22225 24.3631 6.69781C24.221 6.16479 23.8825 5.74261 23.4354 5.46748L23.4286 5.4633L23.4217 5.45934L21.1197 4.14205C20.3012 3.65138 19.2385 3.94282 18.7562 4.75893L18.754 4.76279L18.6073 5.01612L18.6067 5.01716C17.9072 6.23199 16.9436 6.83331 15.9867 6.83331C15.0308 6.83331 14.0683 6.23336 13.369 5.02129L13.2248 4.75902L13.2207 4.75155L13.2163 4.74423C12.7437 3.9503 11.6943 3.66924 10.8826 4.1407C10.8824 4.14082 10.8822 4.14094 10.882 4.14105L8.5768 5.47355L21.1068 27.8443ZM12.4351 28.9958L12.4351 28.9958L12.4297 28.9972C11.7193 29.1889 10.9928 29.0872 10.3772 28.7179L10.3773 28.7178L10.3694 28.7133L8.07609 27.3933L8.0755 27.393C7.3792 26.9934 6.87561 26.3438 6.65629 25.5505C6.4496 24.7549 6.5545 23.9445 6.95368 23.2488L6.95464 23.2471C7.16807 22.8718 7.31801 22.4917 7.37683 22.1303C7.43536 21.7708 7.40869 21.3924 7.21801 21.0671C6.85133 20.4416 6.03481 20.2066 5.2 20.2066C3.52947 20.2066 2.16666 18.8438 2.16666 17.1733V14.8266C2.16666 13.1561 3.52947 11.7933 5.2 11.7933C6.03481 11.7933 6.85133 11.5584 7.21801 10.9328C7.58829 10.3012 7.37487 9.46818 6.95242 8.74894C6.55357 8.05245 6.44992 7.22902 6.65669 6.44792L6.65714 6.44619C6.86285 5.65762 7.36339 5.00901 8.07246 4.60872L8.07247 4.60873L8.075 4.60728L10.3817 3.28728L10.3817 3.28733L10.3883 3.28339C11.6521 2.53409 13.3339 2.96713 14.1029 4.2678L14.1029 4.2678L14.1046 4.27056L14.2626 4.53392C14.6916 5.27395 15.2901 5.79997 16.02 5.79997C16.7511 5.79997 17.3503 5.27224 17.7795 4.53033L17.9247 4.2795C17.9249 4.27915 17.9251 4.2788 17.9253 4.27844C18.6944 2.96775 20.3736 2.53439 21.6505 3.29605L21.6505 3.2961L21.6572 3.29999L23.9506 4.61999L23.9512 4.62033C24.6475 5.01984 25.151 5.66952 25.3704 6.46278C25.5771 7.25841 25.4722 8.06875 25.073 8.76447L25.072 8.76616C24.8586 9.1415 24.7087 9.5216 24.6498 9.88297C24.5913 10.2425 24.618 10.6209 24.8086 10.9462C25.1753 11.5717 25.9918 11.8066 26.8267 11.8066C28.4972 11.8066 29.86 13.1695 29.86 14.84V17.1866C29.86 18.8572 28.4972 20.22 26.8267 20.22C25.9918 20.22 25.1753 20.4549 24.8086 21.0804C24.4384 21.7121 24.6518 22.5451 25.0743 23.2644C25.4757 23.9654 25.5875 24.7867 25.3718 25.5588L25.3717 25.5587L25.3695 25.5671C25.1638 26.3557 24.6633 27.0043 23.9542 27.4046L23.9517 27.406L21.6482 28.7241C21.2123 28.9644 20.7495 29.0866 20.28 29.0866C20.05 29.0866 19.8124 29.0541 19.5642 28.9956C18.8631 28.8012 18.28 28.3615 17.9087 27.7427L17.7508 27.4794C17.3217 26.7394 16.7232 26.2133 15.9933 26.2133C15.2623 26.2133 14.6631 26.741 14.2339 27.4828C14.2339 27.4828 14.2339 27.4829 14.2339 27.483L14.0892 27.7328C14.0889 27.7334 14.0886 27.7339 14.0882 27.7345C13.713 28.3703 13.1279 28.817 12.4351 28.9958Z" fill="#8C95AF" stroke="#8C95AF"/>
</svg>
