<svg width="32" height="32" viewBox="0 0 32 32" fill="none" xmlns="http://www.w3.org/2000/svg">
<path d="M3.94189 7.47096L3.94213 7.47094L6.66213 7.20427L6.66384 7.2041C13.7118 6.48871 20.8623 6.76601 28.0445 7.47093L28.0448 7.47096C28.3126 7.49709 28.5159 7.74228 28.489 8.01811L28.4889 8.0181L28.4881 8.02831C28.4689 8.27827 28.2551 8.47332 28 8.47332H27.9999H27.9997H27.9995H27.9994H27.9992H27.9991H27.9989H27.9988H27.9986H27.9984H27.9983H27.9981H27.998H27.9978H27.9976H27.9975H27.9973H27.9972H27.997H27.9968H27.9967H27.9965H27.9963H27.9962H27.996H27.9958H27.9957H27.9955H27.9954H27.9952H27.995H27.9949H27.9947H27.9945H27.9944H27.9942H27.994H27.9939H27.9937H27.9935H27.9934H27.9932H27.993H27.9928H27.9927H27.9925H27.9923H27.9922H27.992H27.9918H27.9917H27.9915H27.9913H27.9911H27.991H27.9908H27.9906H27.9905H27.9903H27.9901H27.9899H27.9898H27.9896H27.9894H27.9892H27.9891H27.9889H27.9887H27.9885H27.9884H27.9882H27.988H27.9878H27.9877H27.9875H27.9873H27.9871H27.9869H27.9868H27.9866H27.9864H27.9862H27.986H27.9859H27.9857H27.9855H27.9853H27.9851H27.985H27.9848H27.9846H27.9844H27.9842H27.9841H27.9839H27.9837H27.9835H27.9833H27.9831H27.983H27.9828H27.9826H27.9824H27.9822H27.982H27.9819H27.9817H27.9815H27.9813H27.9811H27.9809H27.9807H27.9806H27.9804H27.9802H27.98H27.9798H27.9796H27.9794H27.9792H27.979H27.9789H27.9787H27.9785H27.9783H27.9781H27.9779H27.9777H27.9775H27.9773H27.9771H27.977H27.9768H27.9766H27.9764H27.9762H27.976H27.9758H27.9756H27.9754H27.9752H27.975H27.9748H27.9746H27.9744H27.9743H27.9741H27.9739H27.9737H27.9735H27.9733H27.9731H27.9729H27.9727H27.9725H27.9723H27.9721H27.9719H27.9717H27.9715H27.9713H27.9711H27.9709H27.9707H27.9705H27.9703H27.9701H27.9699H27.9697H27.9695H27.9693H27.9691H27.9689H27.9687H27.9685H27.9683H27.9681H27.9679H27.9677H27.9675H27.9673H27.9671H27.9669H27.9667H27.9665H27.9663H27.9661H27.9659H27.9657H27.9655H27.9653H27.9651H27.9649H27.9647H27.9645H27.9643H27.9641H27.9639H27.9637H27.9635H27.9632H27.963H27.9628H27.9626H27.9624H27.9622H27.962H27.9618H27.9616H27.9614H27.9612H27.961H27.9608H27.9606H27.9604H27.9601H27.9599H27.9597H27.9595H27.9593H27.9591H27.9589H27.9587H27.9585H27.9583H27.9581H27.9578H27.9576H27.9574H27.9572H27.957H27.9568H27.9566H27.9564H27.9562H27.9559H27.9557H27.9555H27.9553H27.9551H27.9549H27.9547H27.9545H27.9542H27.954H27.9538H27.9536H27.9534H27.9532H27.953H27.9527H27.9525H27.9523H27.9521H27.9519H27.9517H27.9515H27.9512H27.951H27.9508H27.9506H27.9504H27.9502H27.95H27.9497H27.9495H27.9493H27.9491H27.9489H27.9487H27.9484H27.9482H27.948H27.9478H27.9476H27.9474H27.9471H27.9469H27.9467H27.9465H27.9463H27.946H27.9458H27.9456H27.9454H27.9452H27.9449H27.9447H27.9445H27.9443H27.9441H27.9438H27.9436H27.9434H27.9432H27.943H27.9427H27.9425H27.9423H27.9421H27.9419H27.9416H27.9414H27.9412H27.941H27.9408H27.9405H27.9403H27.9401H27.9399H27.9396H27.9394H27.9392H27.939H27.9388H27.9385H27.9383H27.9381H27.9379H27.9376H27.9374H27.9372H27.937H27.9367H27.9365H27.9363H27.9361H27.9359H27.9356H27.9354H27.9352H27.935H27.9347H27.9345H27.9343H27.9341H27.9338H27.9336H27.9334H27.9332H27.9329H27.9327H27.9325H27.9322H27.932H27.9318H27.9316H27.9313H27.9311H27.9309H27.9307H27.9304H27.9302H27.93H27.9298H27.9295H27.9293H27.9291H27.9288H27.9286H27.9284H27.9282H27.9279H27.9277H27.9275H27.9273H27.927H27.9268H27.9266H27.9263H27.9261H27.9259H27.9257H27.9254H27.9252H27.925H27.9247H27.9245H27.9243H27.9241H27.9238H27.9236H27.9234H27.9231H27.9229H27.9227H27.9224H27.9222H27.922H27.9218H27.9215H27.9213H27.9211H27.9208H27.9206H27.9204H27.9201H27.9199H27.9197H27.9195H27.9192H27.919H27.9188H27.9185H27.9183C20.8545 7.76663 13.787 7.49882 6.77707 8.20912C6.7768 8.20915 6.77653 8.20918 6.77627 8.2092L4.05927 8.47557C4.05906 8.47559 4.05885 8.47561 4.05864 8.47563C3.76852 8.50294 3.52439 8.29889 3.49776 8.01925C3.47045 7.73252 3.6708 7.49741 3.94189 7.47096Z" fill="currentColor" stroke="currentColor"/>
<path d="M11.2581 7.12306L11.2581 7.12292L11.2462 7.12084C10.9788 7.07403 10.7946 6.80811 10.8392 6.55288L10.8398 6.5495L11.1331 4.80283L11.1333 4.80222C11.2433 4.14188 11.3577 3.51302 11.7504 3.02792C12.1152 2.57723 12.7987 2.16669 14.2534 2.16669H17.7467C19.2028 2.16669 19.8903 2.59059 20.2572 3.05146C20.652 3.54722 20.7635 4.18162 20.8666 4.81381L20.8666 4.81381L20.8671 4.81678L21.1604 6.55012L21.1605 6.55083C21.2079 6.82863 21.015 7.08151 20.7659 7.11889L20.7659 7.11878L20.7559 7.12048C20.4781 7.16791 20.2252 6.97499 20.1879 6.72585L20.1879 6.72584L20.1864 6.71659L19.8934 4.98527L19.8911 4.97108C19.847 4.69724 19.8055 4.43895 19.745 4.22472C19.6816 4.00035 19.5827 3.76625 19.3864 3.57772C19.1873 3.38654 18.941 3.29244 18.6804 3.2425C18.4261 3.19375 18.1192 3.18002 17.7601 3.18002H14.2667C13.9104 3.18002 13.6062 3.19112 13.3555 3.23533C13.0993 3.28052 12.8516 3.368 12.65 3.55665C12.4509 3.74308 12.3517 3.97746 12.2879 4.20071C12.228 4.41 12.1851 4.66473 12.1391 4.93805C12.1374 4.94809 12.1357 4.95816 12.134 4.96825L11.8277 6.69958L11.8276 6.69957L11.8265 6.70665C11.7867 6.95224 11.5739 7.12669 11.3334 7.12669C11.2808 7.12669 11.2716 7.12575 11.2581 7.12306Z" fill="currentColor" stroke="currentColor"/>
<path d="M6.36557 12.2211L6.36559 12.2211L6.36528 12.2168C6.34619 11.9559 6.55363 11.7095 6.83019 11.6858C7.11972 11.6753 7.34718 11.8854 7.36781 12.1547L8.23432 25.5789L8.2343 25.5789L8.23458 25.5827L8.2365 25.6092C8.27169 26.0957 8.30436 26.5473 8.37911 26.9324C8.45626 27.3297 8.58728 27.7107 8.85698 28.0254C9.40034 28.6593 10.3365 28.8333 11.7199 28.8333H20.2799C21.669 28.8333 22.6093 28.6596 23.1529 28.0254C23.4232 27.71 23.5533 27.3281 23.6287 26.9301C23.7022 26.5422 23.7321 26.0871 23.7644 25.597L23.7655 25.5795L23.7656 25.5789L24.6319 12.1565C24.632 12.1559 24.632 12.1552 24.6321 12.1546C24.6525 11.8889 24.8896 11.6753 25.1695 11.6858C25.4497 11.7095 25.6539 11.9463 25.6345 12.2177L25.6343 12.2211L24.7679 25.6448C24.7678 25.6453 24.7678 25.6458 24.7677 25.6463C24.6924 26.7151 24.6068 27.7272 24.0567 28.4956C23.5394 29.2183 22.5177 29.8333 20.2799 29.8333H11.7199C9.48215 29.8333 8.46052 29.2183 7.94318 28.4956C7.39308 27.7272 7.30752 26.7151 7.23215 25.6463C7.23211 25.6458 7.23208 25.6453 7.23204 25.6448L6.36557 12.2211Z" fill="currentColor" stroke="currentColor"/>
<path d="M18.2133 22.5H13.7733C13.5028 22.5 13.2733 22.2705 13.2733 22C13.2733 21.7295 13.5028 21.5 13.7733 21.5H18.2133C18.4838 21.5 18.7133 21.7295 18.7133 22C18.7133 22.2705 18.4838 22.5 18.2133 22.5Z" fill="currentColor" stroke="currentColor"/>
<path d="M19.3333 17.1667H12.6666C12.3961 17.1667 12.1666 16.9372 12.1666 16.6667C12.1666 16.3962 12.3961 16.1667 12.6666 16.1667H19.3333C19.6038 16.1667 19.8333 16.3962 19.8333 16.6667C19.8333 16.9372 19.6038 17.1667 19.3333 17.1667Z" fill="currentColor" stroke="currentColor"/>
</svg>
