<svg width="32" height="32" viewBox="0 0 32 32" fill="none" xmlns="http://www.w3.org/2000/svg">
<path d="M16.7398 18.6197C16.6283 18.7312 16.4928 18.7818 16.3377 18.7686C16.201 18.7558 16.0672 18.6811 15.9743 18.5466L14.5231 16.3632L14.185 15.8545L13.7531 16.2864L10.3531 19.6864C10.2518 19.7877 10.1279 19.8333 10 19.8333C9.87212 19.8333 9.74818 19.7877 9.64689 19.6864C9.45548 19.495 9.45548 19.1715 9.64689 18.9801L13.9136 14.7135C14.025 14.602 14.1605 14.5514 14.3157 14.5646C14.4524 14.5773 14.5861 14.6521 14.6791 14.7866L16.1303 16.97L16.4683 17.4787L16.9002 17.0468L21.6336 12.3135C21.825 12.1221 22.1484 12.1221 22.3398 12.3135C22.5312 12.5049 22.5312 12.8283 22.3398 13.0197L16.7398 18.6197Z" fill="#8C95AF" stroke="#8C95AF"/>
<path d="M21.5 13.6667V13.1667H21H19.3333C19.0628 13.1667 18.8333 12.9373 18.8333 12.6667C18.8333 12.3962 19.0628 12.1667 19.3333 12.1667H22C22.2705 12.1667 22.5 12.3962 22.5 12.6667V15.3334C22.5 15.6039 22.2705 15.8334 22 15.8334C21.7295 15.8334 21.5 15.6039 21.5 15.3334V13.6667Z" fill="#8C95AF" stroke="#8C95AF"/>
<path d="M20 29.8334H12C8.43739 29.8334 6.01409 29.0704 4.47188 27.5282C2.92968 25.986 2.16666 23.5627 2.16666 20.0001V12.0001C2.16666 8.43748 2.92968 6.01417 4.47188 4.47197C6.01409 2.92976 8.43739 2.16675 12 2.16675H20C23.5626 2.16675 25.9859 2.92976 27.5281 4.47197C29.0703 6.01417 29.8333 8.43748 29.8333 12.0001V20.0001C29.8333 23.5627 29.0703 25.986 27.5281 27.5282C25.9859 29.0704 23.5626 29.8334 20 29.8334ZM12 3.16675C8.89139 3.16675 6.63515 3.71449 5.17478 5.17486C3.7144 6.63524 3.16666 8.89147 3.16666 12.0001V20.0001C3.16666 23.1087 3.7144 25.3649 5.17478 26.8253C6.63515 28.2857 8.89139 28.8334 12 28.8334H20C23.1086 28.8334 25.3648 28.2857 26.8252 26.8253C28.2856 25.3649 28.8333 23.1087 28.8333 20.0001V12.0001C28.8333 8.89147 28.2856 6.63524 26.8252 5.17486C25.3648 3.71449 23.1086 3.16675 20 3.16675H12Z" fill="#191919" stroke="#8C95AF"/>
</svg>
