<svg width="24" height="24" viewBox="0 0 24 24" fill="none" xmlns="http://www.w3.org/2000/svg">
<path d="M7.49945 15.25C7.30945 15.25 7.11945 15.18 6.96945 15.03C6.67945 14.74 6.67945 14.26 6.96945 13.97L10.1695 10.77C10.3295 10.61 10.5395 10.53 10.7695 10.55C10.9895 10.57 11.1895 10.69 11.3195 10.88L12.4095 12.52L15.9595 8.97C16.2495 8.68 16.7295 8.68 17.0195 8.97C17.3095 9.26 17.3095 9.74 17.0195 10.03L12.8195 14.23C12.6595 14.39 12.4495 14.47 12.2195 14.45C11.9995 14.43 11.7995 14.31 11.6695 14.12L10.5795 12.48L8.02945 15.03C7.87945 15.18 7.68945 15.25 7.49945 15.25Z" fill="currentColor"/>
<path d="M16.5 12.25C16.09 12.25 15.75 11.91 15.75 11.5V10.25H14.5C14.09 10.25 13.75 9.91 13.75 9.5C13.75 9.09 14.09 8.75 14.5 8.75H16.5C16.91 8.75 17.25 9.09 17.25 9.5V11.5C17.25 11.91 16.91 12.25 16.5 12.25Z" fill="currentColor"/>
<path d="M15 22.75H9C3.57 22.75 1.25 20.43 1.25 15V9C1.25 3.57 3.57 1.25 9 1.25H15C20.43 1.25 22.75 3.57 22.75 9V15C22.75 20.43 20.43 22.75 15 22.75ZM9 2.75C4.39 2.75 2.75 4.39 2.75 9V15C2.75 19.61 4.39 21.25 9 21.25H15C19.61 21.25 21.25 19.61 21.25 15V9C21.25 4.39 19.61 2.75 15 2.75H9Z" fill="currentColor"/>
</svg>
