<svg width="14" height="8" viewBox="0 0 14 8" fill="none" xmlns="http://www.w3.org/2000/svg">
<path d="M2.56634 4.33325C3.35967 4.33325 3.51301 4.99992 4.78634 4.99992C6.08634 4.99992 6.17967 4.33325 7.00634 4.33325C7.79967 4.33325 7.95301 4.99992 9.22634 4.99992C10.5263 4.99992 10.6197 4.33325 11.4463 4.33325C12.2397 4.33325 12.3797 4.98659 13.653 4.99992V3.66659C12.8597 3.66659 12.7063 2.99992 11.433 2.99992C10.133 2.99992 10.0397 3.66659 9.21301 3.66659C8.41967 3.66659 8.26634 2.99992 6.99301 2.99992C5.69301 2.99992 5.59967 3.66659 4.77301 3.66659C3.97967 3.66659 3.82634 2.99992 2.55301 2.99992C1.25301 2.99992 1.15967 3.66659 0.333008 3.66659V4.99992C1.59967 4.99992 1.77967 4.33325 2.56634 4.33325ZM11.4463 5.66659C10.1463 5.66659 10.053 6.33325 9.22634 6.33325C8.43301 6.33325 8.27967 5.66659 7.00634 5.66659C5.70634 5.66659 5.60634 6.33325 4.77967 6.33325C3.95301 6.33325 3.85967 5.66659 2.55967 5.66659C1.25967 5.66659 1.15967 6.33325 0.333008 6.33325V7.66659C1.63301 7.66659 1.73967 6.99992 2.55967 6.99992C3.38634 6.99992 3.47967 7.66659 4.77967 7.66659C6.07967 7.66659 6.17967 6.99992 7.00634 6.99992C7.79967 6.99992 7.95301 7.66659 9.22634 7.66659C10.5197 7.66659 10.6197 6.99992 11.4463 6.99992C12.2397 6.99992 12.393 7.66659 13.6663 7.66659V6.33325C12.8397 6.33325 12.7463 5.66659 11.4463 5.66659ZM2.56634 1.66659C3.35967 1.66659 3.51301 2.33325 4.78634 2.33325C6.08634 2.33325 6.17967 1.66659 7.00634 1.66659C7.79967 1.66659 7.95301 2.33325 9.22634 2.33325C10.5263 2.33325 10.6197 1.66659 11.4463 1.66659C12.2397 1.66659 12.3797 2.31992 13.653 2.33325V0.999919C12.8597 0.999919 12.7063 0.333252 11.433 0.333252C10.133 0.333252 10.0397 0.999919 9.21301 0.999919C8.41967 0.999919 8.26634 0.333252 6.99301 0.333252C5.69301 0.333252 5.59967 0.999919 4.77301 0.999919C3.97967 0.999919 3.82634 0.333252 2.55301 0.333252C1.25301 0.333252 1.15967 0.999919 0.333008 0.999919V2.33325C1.59967 2.33325 1.77967 1.66659 2.56634 1.66659Z" fill="currentColor"/>
</svg>
