<svg width="32" height="32" viewBox="0 0 32 32" fill="none" xmlns="http://www.w3.org/2000/svg">
<path d="M11.5734 17.5C10.4106 17.5 9.78188 17.2028 9.23825 16.8974C9.17372 16.8611 9.10856 16.8234 9.0423 16.785C8.54022 16.4942 7.97456 16.1666 7.13335 16.1666C6.30043 16.1666 5.72811 16.4925 5.2188 16.7825C5.15098 16.8212 5.08428 16.8592 5.01823 16.8956C4.54836 17.1552 4.01848 17.408 3.16669 17.4798V15.7949C3.76904 15.6994 4.20286 15.442 4.59709 15.2081C4.65933 15.1712 4.72059 15.1349 4.78137 15.0998C5.3062 14.7973 5.91702 14.5 7.10669 14.5C8.26945 14.5 8.89816 14.7971 9.44179 15.1025C9.50632 15.1388 9.57148 15.1765 9.63774 15.2149C10.1398 15.5057 10.7055 15.8333 11.5467 15.8333C12.4234 15.8333 12.9815 15.5022 13.4771 15.2081C13.5393 15.1712 13.6006 15.1349 13.6614 15.0998C14.1862 14.7973 14.797 14.5 15.9867 14.5C17.1495 14.5 17.7782 14.7971 18.3218 15.1025C18.3863 15.1388 18.4515 15.1765 18.5177 15.2149C19.0198 15.5057 19.5855 15.8333 20.4267 15.8333C21.3034 15.8333 21.8615 15.5022 22.3571 15.2081C22.4193 15.1712 22.4806 15.1349 22.5414 15.0998C23.0662 14.7973 23.677 14.5 24.8667 14.5C26.0295 14.5 26.6582 14.7971 27.2018 15.1025C27.2663 15.1388 27.3315 15.1765 27.3977 15.2149C27.7933 15.444 28.2284 15.696 28.8067 15.7926V17.4747C27.9551 17.3952 27.4394 17.143 26.9851 16.8875C26.9232 16.8527 26.8607 16.8165 26.7973 16.7798C26.2976 16.4907 25.7376 16.1666 24.8934 16.1666C24.0166 16.1666 23.4585 16.4978 22.963 16.7918C22.9007 16.8287 22.8394 16.8651 22.7787 16.9001C22.2538 17.2026 21.643 17.5 20.4534 17.5C19.2906 17.5 18.6619 17.2028 18.1183 16.8974C18.0537 16.8611 17.9886 16.8234 17.9223 16.785C17.4202 16.4942 16.8546 16.1666 16.0134 16.1666C15.1366 16.1666 14.5785 16.4978 14.083 16.7918C14.0207 16.8287 13.9595 16.8651 13.8987 16.9001C13.3738 17.2026 12.763 17.5 11.5734 17.5ZM20.4534 21.1666C21.3301 21.1666 21.8882 20.8355 22.3838 20.5415C22.446 20.5045 22.5073 20.4682 22.568 20.4332C23.0929 20.1307 23.7037 19.8333 24.8934 19.8333C26.083 19.8333 26.6938 20.1307 27.2187 20.4332C27.2795 20.4682 27.3407 20.5045 27.403 20.5415C27.7972 20.7754 28.231 21.0328 28.8334 21.1282V22.8133C27.9793 22.7417 27.4583 22.4892 26.9983 22.2307C26.9337 22.1945 26.8686 22.1567 26.8023 22.1183C26.3002 21.8276 25.7346 21.5 24.8934 21.5C24.016 21.5 23.4554 21.8314 22.9575 22.1258C22.8956 22.1624 22.8347 22.1984 22.7742 22.2331C22.2469 22.5362 21.6359 22.8333 20.4534 22.8333C19.2906 22.8333 18.6619 22.5361 18.1183 22.2307C18.0537 22.1945 17.9886 22.1567 17.9223 22.1183C17.4202 21.8276 16.8546 21.5 16.0134 21.5C15.1373 21.5 14.5768 21.8306 14.0785 22.1245C14.0159 22.1614 13.9542 22.1978 13.8931 22.2328C13.3644 22.5358 12.7499 22.8333 11.56 22.8333C10.3704 22.8333 9.75953 22.5359 9.2347 22.2334C9.17392 22.1984 9.11266 22.1621 9.05042 22.1251C8.55488 21.8311 7.99677 21.5 7.12002 21.5C6.25151 21.5 5.6915 21.8296 5.19383 22.1226C5.13013 22.1601 5.06746 22.197 5.00528 22.2325C4.55463 22.49 4.04081 22.7436 3.16669 22.8141V21.1283C3.76939 21.033 4.20515 20.7759 4.60152 20.5421C4.66415 20.5052 4.72579 20.4688 4.78696 20.4338C5.31567 20.1308 5.93015 19.8333 7.12002 19.8333C8.30968 19.8333 8.92051 20.1307 9.44534 20.4332C9.50612 20.4682 9.56738 20.5045 9.62962 20.5415C10.1252 20.8355 10.6833 21.1666 11.56 21.1666C12.4361 21.1666 12.9966 20.836 13.4949 20.5421C13.5575 20.5052 13.6191 20.4688 13.6803 20.4338C14.209 20.1308 14.8235 19.8333 16.0134 19.8333C17.1761 19.8333 17.8048 20.1305 18.3485 20.4359C18.413 20.4721 18.4781 20.5099 18.5444 20.5482C19.0465 20.839 19.6122 21.1666 20.4534 21.1666ZM11.5734 12.1666C10.4106 12.1666 9.78188 11.8695 9.23825 11.564C9.17372 11.5278 9.10857 11.4901 9.04231 11.4517C8.54022 11.1609 7.97456 10.8333 7.13335 10.8333C6.30043 10.8333 5.72811 11.1592 5.2188 11.4492C5.15098 11.4878 5.08428 11.5258 5.01823 11.5623C4.54836 11.8219 4.01848 12.0746 3.16669 12.1464V10.4616C3.76904 10.3661 4.20286 10.1087 4.59709 9.8748C4.65933 9.83787 4.72059 9.80152 4.78137 9.76649C5.3062 9.46399 5.91702 9.16663 7.10669 9.16663C8.26945 9.16663 8.89816 9.4638 9.44179 9.76921C9.50632 9.80547 9.57148 9.8432 9.63774 9.88157C10.1398 10.1724 10.7055 10.5 11.5467 10.5C12.4234 10.5 12.9815 10.1688 13.4771 9.8748C13.5393 9.83787 13.6006 9.80152 13.6614 9.76649C14.1862 9.46399 14.797 9.16663 15.9867 9.16663C17.1495 9.16663 17.7782 9.4638 18.3218 9.76921C18.3863 9.80547 18.4515 9.8432 18.5177 9.88158C19.0198 10.1724 19.5855 10.5 20.4267 10.5C21.3034 10.5 21.8615 10.1688 22.3571 9.8748C22.4193 9.83787 22.4806 9.80152 22.5414 9.76649C23.0662 9.46399 23.677 9.16663 24.8667 9.16663C26.0295 9.16663 26.6582 9.4638 27.2018 9.76921C27.2663 9.80547 27.3315 9.8432 27.3977 9.88157C27.7933 10.1107 28.2284 10.3627 28.8067 10.4592V12.1414C27.9551 12.0619 27.4394 11.8097 26.9851 11.5542C26.9232 11.5193 26.8607 11.4832 26.7973 11.4465C26.2976 11.1573 25.7376 10.8333 24.8934 10.8333C24.0166 10.8333 23.4585 11.1644 22.963 11.4585C22.9007 11.4954 22.8394 11.5317 22.7787 11.5668C22.2538 11.8693 21.643 12.1666 20.4534 12.1666C19.2906 12.1666 18.6619 11.8695 18.1183 11.564C18.0537 11.5278 17.9886 11.4901 17.9223 11.4517C17.4202 11.1609 16.8546 10.8333 16.0134 10.8333C15.1366 10.8333 14.5785 11.1644 14.083 11.4585C14.0207 11.4954 13.9595 11.5317 13.8987 11.5668C13.3738 11.8693 12.763 12.1666 11.5734 12.1666Z" fill="#191919" stroke="#191919"/>
</svg>
