<?xml version="1.0" encoding="utf-8"?><svg xmlns="http://www.w3.org/2000/svg" xmlns:xlink="http://www.w3.org/1999/xlink"><symbol fill="none" viewBox="0 0 16 16" id="adjust" xmlns="http://www.w3.org/2000/svg"><mask id="aaa" fill="#fff"><path d="M10 15.167H6C2.38 15.167.833 13.62.833 10V6C.833 2.38 2.38.833 6 .833h4c3.62 0 5.167 1.547 5.167 5.167v4c0 3.62-1.547 5.167-5.167 5.167ZM6 1.833C2.927 1.833 1.833 2.927 1.833 6v4c0 3.073 1.094 4.167 4.167 4.167h4c3.073 0 4.167-1.094 4.167-4.167V6c0-3.073-1.094-4.167-4.167-4.167H6Z"/></mask><path d="M10 15.167H6C2.38 15.167.833 13.62.833 10V6C.833 2.38 2.38.833 6 .833h4c3.62 0 5.167 1.547 5.167 5.167v4c0 3.62-1.547 5.167-5.167 5.167ZM6 1.833C2.927 1.833 1.833 2.927 1.833 6v4c0 3.073 1.094 4.167 4.167 4.167h4c3.073 0 4.167-1.094 4.167-4.167V6c0-3.073-1.094-4.167-4.167-4.167H6Z" fill="#191919"/><path d="M10 14.167H6v2h4v-2Zm-4 0c-1.695 0-2.667-.366-3.234-.933-.567-.567-.933-1.539-.933-3.234h-2c0 1.925.408 3.537 1.519 4.648C2.463 15.759 4.075 16.167 6 16.167v-2ZM1.833 10V6h-2v4h2Zm0-4c0-1.695.366-2.667.933-3.234C3.333 2.2 4.305 1.833 6 1.833v-2c-1.925 0-3.537.408-4.648 1.52C.241 2.462-.167 4.074-.167 6h2ZM6 1.833h4v-2H6v2Zm4 0c1.695 0 2.667.366 3.234.933.567.567.933 1.539.933 3.234h2c0-1.925-.408-3.537-1.52-4.648C13.538.241 11.926-.167 10-.167v2ZM14.167 6v4h2V6h-2Zm0 4c0 1.695-.366 2.667-.933 3.234-.567.567-1.539.933-3.234.933v2c1.925 0 3.537-.408 4.648-1.52 1.111-1.11 1.519-2.722 1.519-4.647h-2ZM6 .833c-1.607 0-2.995.276-3.943 1.224S.833 4.393.833 6h2c0-1.466.272-2.162.638-2.529.367-.366 1.063-.638 2.529-.638v-2ZM.833 6v4h2V6h-2Zm0 4c0 1.607.276 2.995 1.224 3.943S4.393 15.167 6 15.167v-2c-1.466 0-2.162-.271-2.529-.638-.366-.367-.638-1.063-.638-2.529h-2ZM6 15.167h4v-2H6v2Zm4 0c1.607 0 2.995-.276 3.943-1.224s1.224-2.336 1.224-3.943h-2c0 1.466-.271 2.162-.638 2.529s-1.063.638-2.529.638v2ZM15.167 10V6h-2v4h2Zm0-4c0-1.607-.276-2.995-1.224-3.943S11.607.833 10 .833v2c1.466 0 2.162.272 2.529.638.367.367.638 1.063.638 2.529h2ZM10 .833H6v2h4v-2Z" fill="#191919" mask="url(#aaa)"/><mask id="aab" fill="#fff"><path d="M10.387 12.833a.504.504 0 0 1-.5-.5v-2.6c0-.273.226-.5.5-.5.273 0 .5.227.5.5v2.6c0 .274-.227.5-.5.5Z"/></mask><path d="M10.387 12.833a.504.504 0 0 1-.5-.5v-2.6c0-.273.226-.5.5-.5.273 0 .5.227.5.5v2.6c0 .274-.227.5-.5.5Z" fill="#191919"/><path d="M10.387 11.833c.279 0 .5.221.5.5h-2c0 .826.674 1.5 1.5 1.5v-2Zm.5.5v-2.6h-2v2.6h2Zm0-2.6c0 .28-.221.5-.5.5v-2c-.826 0-1.5.675-1.5 1.5h2Zm-.5.5a.496.496 0 0 1-.5-.5h2c0-.825-.675-1.5-1.5-1.5v2Zm-.5-.5v2.6h2v-2.6h-2Zm0 2.6c0-.279.22-.5.5-.5v2c.825 0 1.5-.674 1.5-1.5h-2Z" fill="#191919" mask="url(#aab)"/><mask id="aac" fill="#fff"><path d="M10.387 5.467a.504.504 0 0 1-.5-.5v-1.3c0-.274.226-.5.5-.5.273 0 .5.226.5.5v1.3c0 .273-.227.5-.5.5Z"/></mask><path d="M10.387 5.467a.504.504 0 0 1-.5-.5v-1.3c0-.274.226-.5.5-.5.273 0 .5.226.5.5v1.3c0 .273-.227.5-.5.5Z" fill="#191919"/><path d="M10.387 4.467c.279 0 .5.22.5.5h-2c0 .825.674 1.5 1.5 1.5v-2Zm.5.5v-1.3h-2v1.3h2Zm0-1.3c0 .279-.221.5-.5.5v-2c-.826 0-1.5.674-1.5 1.5h2Zm-.5.5a.496.496 0 0 1-.5-.5h2c0-.826-.675-1.5-1.5-1.5v2Zm-.5-.5v1.3h2v-1.3h-2Zm0 1.3c0-.28.22-.5.5-.5v2c.825 0 1.5-.675 1.5-1.5h-2Z" fill="#191919" mask="url(#aac)"/><path d="M8.653 6.7Zm0 0c0-.957.776-1.733 1.734-1.733M8.653 6.7c0-.956.778-1.733 1.734-1.733m0 0Z" fill="#191919" stroke="#191919"/><mask id="aad" fill="#fff"><path d="M5.613 12.833a.504.504 0 0 1-.5-.5v-1.3c0-.273.227-.5.5-.5.274 0 .5.227.5.5v1.3a.5.5 0 0 1-.5.5Z"/></mask><path d="M5.613 12.833a.504.504 0 0 1-.5-.5v-1.3c0-.273.227-.5.5-.5.274 0 .5.227.5.5v1.3a.5.5 0 0 1-.5.5Z" fill="#191919"/><path d="M5.613 11.833c.28 0 .5.221.5.5h-2c0 .826.675 1.5 1.5 1.5v-2Zm.5.5v-1.3h-2v1.3h2Zm0-1.3c0 .28-.22.5-.5.5v-2c-.825 0-1.5.675-1.5 1.5h2Zm-.5.5a.496.496 0 0 1-.5-.5h2c0-.825-.674-1.5-1.5-1.5v2Zm-.5-.5v1.3h2v-1.3h-2Zm0 1.3a.5.5 0 0 1 .5-.5v2a1.5 1.5 0 0 0 1.5-1.5h-2Z" fill="#191919" mask="url(#aad)"/><mask id="aae" fill="#fff"><path d="M5.613 6.767a.504.504 0 0 1-.5-.5v-2.6c0-.274.227-.5.5-.5.274 0 .5.226.5.5v2.6a.5.5 0 0 1-.5.5Z"/></mask><path d="M5.613 6.767a.504.504 0 0 1-.5-.5v-2.6c0-.274.227-.5.5-.5.274 0 .5.226.5.5v2.6a.5.5 0 0 1-.5.5Z" fill="#191919"/><path d="M5.613 5.767c.28 0 .5.22.5.5h-2c0 .825.675 1.5 1.5 1.5v-2Zm.5.5v-2.6h-2v2.6h2Zm0-2.6c0 .279-.22.5-.5.5v-2c-.825 0-1.5.674-1.5 1.5h2Zm-.5.5a.496.496 0 0 1-.5-.5h2c0-.826-.674-1.5-1.5-1.5v2Zm-.5-.5v2.6h2v-2.6h-2Zm0 2.6a.5.5 0 0 1 .5-.5v2a1.5 1.5 0 0 0 1.5-1.5h-2Z" fill="#191919" mask="url(#aae)"/><path d="M5.594 11.033ZM3.88 9.292Zm3.467.008Z" fill="#191919" stroke="#191919"/></symbol><symbol fill="none" viewBox="0 0 48 48" id="arrow-down" xmlns="http://www.w3.org/2000/svg"><path d="M24 33.1a4.952 4.952 0 0 1-3.506-1.454l-13.04-13.04a1.009 1.009 0 0 1 0-1.412 1.009 1.009 0 0 1 1.412 0l13.04 13.04a2.963 2.963 0 0 0 4.188 0l13.04-13.04a1.009 1.009 0 0 1 1.413 0 1.009 1.009 0 0 1 0 1.412l-13.04 13.04A4.953 4.953 0 0 1 24 33.1Z" fill="#191919" stroke="#191919"/></symbol><symbol fill="none" viewBox="0 0 24 24" id="arrow-left" xmlns="http://www.w3.org/2000/svg"><path d="M9.57 18.82c-.19 0-.38-.07-.53-.22l-6.07-6.07a.754.754 0 0 1 0-1.06L9.04 5.4c.29-.29.77-.29 1.06 0 .29.29.29.77 0 1.06L4.56 12l5.54 5.54c.29.29.29.77 0 1.06-.14.15-.34.22-.53.22Z" fill="currentColor"/><path d="M20.5 12.75H3.67c-.41 0-.75-.34-.75-.75s.34-.75.75-.75H20.5c.41 0 .75.34.75.75s-.34.75-.75.75Z" fill="currentColor"/></symbol><symbol fill="none" viewBox="0 0 24 24" id="arrow-right" xmlns="http://www.w3.org/2000/svg"><path d="M14.43 18.82c-.19 0-.38-.07-.53-.22a.754.754 0 0 1 0-1.06L19.44 12 13.9 6.46a.754.754 0 0 1 0-1.06c.29-.29.77-.29 1.06 0l6.07 6.07c.29.29.29.77 0 1.06l-6.07 6.07c-.15.15-.34.22-.53.22Z" fill="currentColor"/><path d="M20.33 12.75H3.5c-.41 0-.75-.34-.75-.75s.34-.75.75-.75h16.83c.41 0 .75.34.75.75s-.34.75-.75.75Z" fill="currentColor"/></symbol><symbol fill="none" viewBox="0 0 14 14" id="builder" xmlns="http://www.w3.org/2000/svg"><path d="M12.13 5.503v-.109A5.088 5.088 0 0 0 8.551.517h-.039a5.325 5.325 0 0 0-1.657-.23 5.254 5.254 0 0 0-4.967 5.216 1.92 1.92 0 0 0 0 3.622 5.12 5.12 0 0 0 5.12 4.59h.148a5.203 5.203 0 0 0 4.915-4.583 1.92 1.92 0 0 0 .057-3.63Zm-5.005 6.931a3.84 3.84 0 0 1-3.898-3.2h7.533a3.897 3.897 0 0 1-3.635 3.2Zm4.364-4.48H2.53a.64.64 0 0 1 0-1.28h1.28a.64.64 0 1 0 0-1.28h-.64a4.096 4.096 0 0 1 1.92-3.296v2.016a.64.64 0 1 0 1.28 0V1.612c.174-.03.35-.049.525-.058h.115c.215.003.429.022.64.058v2.502a.64.64 0 1 0 1.28 0V2.08c.272.157.525.344.756.557a3.84 3.84 0 0 1 1.164 2.758h-.64a.64.64 0 0 0 0 1.28h1.28a.64.64 0 1 1 0 1.28Z" fill="currentColor"/></symbol><symbol fill="none" viewBox="0 0 35 35" id="chevron-down" xmlns="http://www.w3.org/2000/svg"><path d="m25 14-7 7-7-7" stroke="currentColor" stroke-width="2" stroke-linecap="round" stroke-linejoin="round"/></symbol><symbol fill="none" viewBox="0 0 24 24" id="eye" xmlns="http://www.w3.org/2000/svg"><path d="M12 16.33c-2.39 0-4.33-1.94-4.33-4.33S9.61 7.67 12 7.67s4.33 1.94 4.33 4.33-1.94 4.33-4.33 4.33Zm0-7.16c-1.56 0-2.83 1.27-2.83 2.83s1.27 2.83 2.83 2.83 2.83-1.27 2.83-2.83S13.56 9.17 12 9.17Z" fill="currentColor"/><path d="M12 21.02c-3.76 0-7.31-2.2-9.75-6.02-1.06-1.65-1.06-4.34 0-6 2.45-3.82 6-6.02 9.75-6.02s7.3 2.2 9.74 6.02c1.06 1.65 1.06 4.34 0 6-2.44 3.82-5.99 6.02-9.74 6.02Zm0-16.54c-3.23 0-6.32 1.94-8.48 5.33-.75 1.17-.75 3.21 0 4.38 2.16 3.39 5.25 5.33 8.48 5.33 3.23 0 6.32-1.94 8.48-5.33.75-1.17.75-3.21 0-4.38-2.16-3.39-5.25-5.33-8.48-5.33Z" fill="currentColor"/></symbol><symbol fill="none" viewBox="0 0 32 32" id="folder" xmlns="http://www.w3.org/2000/svg"><path d="M14.133 4.567v-.001l-.037-.048c-.313-.416-.597-.794-1.016-1.031-.447-.253-.987-.32-1.747-.32h-2c-1.202 0-2.195.056-3.002.227-.813.171-1.474.466-1.975.968-.501.502-.794 1.163-.965 1.975-.169.807-.224 1.798-.224 2.996v13.334c0 1.198.055 2.19.224 2.996.17.812.464 1.473.965 1.975.501.502 1.162.797 1.975.969.807.17 1.8.226 3.002.226h13.334c1.202 0 2.195-.056 3.002-.226.813-.172 1.474-.466 1.975-.969.501-.502.794-1.163.965-1.975.169-.806.224-1.798.224-2.996v-8c0-1.199-.055-2.19-.224-2.996-.17-.813-.464-1.474-.965-1.976-.501-.502-1.162-.796-1.975-.968-.807-.17-1.8-.227-3.002-.227h-4c-.796 0-1.267-.136-1.604-.334-.344-.203-.6-.498-.93-.934h-.001l-1.999-2.665Zm8.534 25.266H9.333c-2.922 0-4.655-.452-5.684-1.481-1.03-1.03-1.482-2.762-1.482-5.685V9.333c0-2.922.452-4.655 1.482-5.684 1.03-1.03 2.762-1.482 5.684-1.482h2c1.114 0 1.784.181 2.274.467.497.29.862.716 1.327 1.333l2 2.666.032.045c.186.247.376.502.654.65.301.16.65.172 1.047.172h4c2.922 0 4.655.452 5.684 1.482 1.03 1.03 1.482 2.762 1.482 5.685v8c0 2.922-.452 4.655-1.482 5.684-1.03 1.03-2.762 1.482-5.684 1.482Z" fill="#8C95AF" stroke="currentColor"/><path d="M26.667 9.007c-.27 0-.5-.23-.5-.5v-1.84c0-1.11-.234-2.02-.857-2.644-.623-.623-1.534-.856-2.643-.856h-12c-.27 0-.5-.23-.5-.5s.23-.5.5-.5h12c1.524 0 2.63.417 3.356 1.143s1.144 1.832 1.144 3.357v1.84c0 .27-.23.5-.5.5Z" fill="#8C95AF" stroke="currentColor"/></symbol><symbol fill="none" viewBox="0 0 32 32" id="furniture" xmlns="http://www.w3.org/2000/svg"><path d="M14.5 11.333v-.5H3.586L15.333 2.61l11.748 8.223H16.166v17.334H14.5V11.333Zm1.12-6.49-.287-.2-.286.2-4.88 3.414-1.3.91H21.8l-1.3-.91-4.88-3.413ZM3.833 21.654v-.046l-.008-.046-1.001-5.336 1.631-.308.92 4.843.078.407h5.38v7H9.167v-5.334H5.529l-.002.498-.025 4.836H3.833v-6.514Zm20.967-.486h.414l.077-.407.92-4.843 1.632.308-1.001 5.336-.009.046V28.167h-1.669l-.024-4.836-.003-.498H21.5v5.334h-1.667v-7H24.8Z" fill="currentColor" stroke="currentColor"/></symbol><symbol fill="none" viewBox="0 0 24 24" id="gps" xmlns="http://www.w3.org/2000/svg"><path d="M12 20.25c-4.55 0-8.25-3.7-8.25-8.25S7.45 3.75 12 3.75s8.25 3.7 8.25 8.25-3.7 8.25-8.25 8.25Zm0-15c-3.72 0-6.75 3.03-6.75 6.75s3.03 6.75 6.75 6.75 6.75-3.03 6.75-6.75S15.72 5.25 12 5.25Z" fill="currentColor"/><path d="M12 15.75c-2.07 0-3.75-1.68-3.75-3.75 0-2.07 1.68-3.75 3.75-3.75 2.07 0 3.75 1.68 3.75 3.75 0 2.07-1.68 3.75-3.75 3.75Zm0-6c-1.24 0-2.25 1.01-2.25 2.25s1.01 2.25 2.25 2.25 2.25-1.01 2.25-2.25S13.24 9.75 12 9.75ZM12 4.75c-.41 0-.75-.34-.75-.75V2c0-.41.34-.75.75-.75s.75.34.75.75v2c0 .41-.34.75-.75.75ZM4 12.75H2c-.41 0-.75-.34-.75-.75s.34-.75.75-.75h2c.41 0 .75.34.75.75s-.34.75-.75.75ZM12 22.75c-.41 0-.75-.34-.75-.75v-2c0-.41.34-.75.75-.75s.75.34.75.75v2c0 .41-.34.75-.75.75ZM22 12.75h-2c-.41 0-.75-.34-.75-.75s.34-.75.75-.75h2c.41 0 .75.34.75.75s-.34.75-.75.75Z" fill="currentColor"/></symbol><symbol fill="none" viewBox="0 0 32 32" id="ground" xmlns="http://www.w3.org/2000/svg"><path d="M10.817 23.874a11.203 11.203 0 0 0-6.166-7.349 10.164 10.164 0 0 1 10.837 9.641H3.167V24.5H10.98l-.163-.626Zm10.836.626h7.167v1.667h-9.676a14.178 14.178 0 0 0-.267-2.264 13.28 13.28 0 0 0-.822-2.623c1.807-2.87 4.98-4.78 8.612-4.78.228 0 .456.009.682.025a11.252 11.252 0 0 0-6.18 7.348l-.164.627h.648Zm-5.048-7.301c.606-4.185 3.764-7.533 7.842-8.437a13.86 13.86 0 0 0-3.991 5.57c-1.446.729-2.75 1.7-3.85 2.867Zm-3.36-1.876c-.252-.176-.51-.345-.776-.505l.008-.083c.011-.138.023-.292.023-.455 0-2.777-.752-5.37-2.059-7.606a10.922 10.922 0 0 1 4.232 5.085 13.867 13.867 0 0 0-1.429 3.564Z" fill="currentColor" stroke="currentColor"/></symbol><symbol fill="none" viewBox="0 0 24 24" id="home" xmlns="http://www.w3.org/2000/svg"><path d="M12 18.75c-.41 0-.75-.34-.75-.75v-3c0-.41.34-.75.75-.75s.75.34.75.75v3c0 .41-.34.75-.75.75Z" fill="currentColor"/><path d="M17.6 22.56H6.4c-1.82 0-3.48-1.4-3.78-3.19L1.29 11.4c-.22-1.24.39-2.83 1.38-3.62L9.6 2.23c1.34-1.08 3.45-1.07 4.8.01l6.93 5.54c.98.79 1.58 2.38 1.38 3.62l-1.33 7.96c-.3 1.77-2 3.2-3.78 3.2ZM11.99 2.93c-.53 0-1.06.16-1.45.47L3.61 8.96c-.56.45-.96 1.49-.84 2.2l1.33 7.96c.18 1.05 1.23 1.94 2.3 1.94h11.2c1.07 0 2.12-.89 2.3-1.95l1.33-7.96c.11-.7-.29-1.76-.84-2.2l-6.93-5.54c-.4-.32-.94-.48-1.47-.48Z" fill="currentColor"/></symbol><symbol fill="none" viewBox="0 0 32 32" id="light" xmlns="http://www.w3.org/2000/svg"><path d="M14.23 4.011c-3.476.668-6.254 3.48-6.91 6.96-.606 3.3.606 6.326 2.8 8.282a3.092 3.092 0 0 1 1.049 2.334v3.08c0 1.19.976 2.166 2.166 2.166h.661l.145.248a2.14 2.14 0 0 0 3.72.006l.143-.254h.665c1.19 0 2.166-.976 2.166-2.166v-3.08c0-.864.346-1.725 1.023-2.322L14.23 4.011Zm0 0 .01-.002m-.01.002.01-.002m0 0a8.457 8.457 0 0 1 1.762-.176m-1.762.176 1.762-.176m0 0a8.827 8.827 0 0 1 8.834 8.834 8.775 8.775 0 0 1-2.978 6.598L16.002 3.833ZM18.67 22.5h.5v-2.333h-6.334V22.5h5.834Zm-5.834 2.167v.5h6.334v-2.334h-6.334v1.834ZM11.896 18c-.035-.04-.07-.081-.103-.123-.068-.083-.136-.166-.216-.237-1.76-1.573-2.547-3.92-2.12-6.267.48-2.586 2.613-4.733 5.186-5.24A6.72 6.72 0 0 1 16.002 6a6.669 6.669 0 0 1 6.667 6.667L11.895 18Zm8.852.028a7.13 7.13 0 0 0 2.422-5.361A7.17 7.17 0 0 0 16.002 5.5c-.482 0-.969.043-1.458.143-2.773.547-5.063 2.851-5.58 5.64-.458 2.515.386 5.038 2.278 6.73h.001a1.179 1.179 0 0 1 .154.17c.037.046.083.102.125.15l.149.167H20.303l.146-.146c.06-.06.117-.127.16-.177l.02-.024a1.33 1.33 0 0 1 .118-.125Zm-4.912-.528v-1.965l.162-.161.172.172V17.5h-.334Zm2.566-5.379L17.022 13.5h-.138l-.167-.166 1.448-1.448.236.235Zm-4.56-.249 1.462 1.462-.166.166h-.139l-1.392-1.392.236-.236Z" fill="currentColor" stroke="currentColor"/></symbol><symbol fill="none" viewBox="0 0 24 24" id="location" xmlns="http://www.w3.org/2000/svg"><path d="M12 14.17c-2.13 0-3.87-1.73-3.87-3.87S9.87 6.44 12 6.44s3.87 1.73 3.87 3.87-1.74 3.86-3.87 3.86Zm0-6.23c-1.3 0-2.37 1.06-2.37 2.37s1.06 2.37 2.37 2.37 2.37-1.06 2.37-2.37S13.3 7.94 12 7.94Z" fill="currentColor"/><path d="M12 22.76a5.97 5.97 0 0 1-4.13-1.67c-2.95-2.84-6.21-7.37-4.98-12.76C4 3.44 8.27 1.25 12 1.25h.01c3.73 0 8 2.19 9.11 7.09 1.22 5.39-2.04 9.91-4.99 12.75A5.97 5.97 0 0 1 12 22.76Zm0-20.01c-2.91 0-6.65 1.55-7.64 5.91C3.28 13.37 6.24 17.43 8.92 20a4.426 4.426 0 0 0 6.17 0c2.67-2.57 5.63-6.63 4.57-11.34-1-4.36-4.75-5.91-7.66-5.91Z" fill="currentColor"/></symbol><symbol fill="none" viewBox="0 0 136 31" id="logo" xmlns="http://www.w3.org/2000/svg"><path d="M8.165 6.353c2.361 0 4.089.637 5.18 1.914 1.09 1.274 1.636 3.555 1.636 6.835s-.63 5.553-1.89 6.806c-1.258 1.253-3.43 1.879-6.51 1.879-.966 0-2.733-.11-5.295-.332l-1.283-.133V.098h4.521V7.25c1.44-.598 2.653-.897 3.644-.897h-.003ZM6.58 19.796c1.508 0 2.517-.362 3.037-1.082.517-.72.775-2.012.775-3.875 0-2.996-.946-4.492-2.833-4.492-.901 0-1.754.11-2.565.332l-.472.1v8.883c1.034.09 1.721.134 2.058.134ZM27.502 6.753h4.521V23.39h-4.485v-.93c-1.619.885-3.025 1.33-4.217 1.33-2.34 0-3.915-.637-4.723-1.915-.81-1.273-1.213-3.41-1.213-6.405V6.753h4.52v8.785c0 1.641.136 2.761.406 3.36.27.598.922.898 1.956.898a8.13 8.13 0 0 0 2.8-.466l.438-.133V6.753h-.003ZM44.547 6.753h4.522V23.39h-4.486v-.93c-1.619.885-3.025 1.33-4.217 1.33-2.34 0-3.914-.637-4.723-1.915-.81-1.273-1.213-3.41-1.213-6.405V6.753h4.52v8.785c0 1.641.136 2.761.406 3.36.27.598.923.898 1.956.898.988 0 1.923-.154 2.8-.466l.438-.133V6.753h-.002ZM70.722 23.345c-1.505.335-2.659.5-3.44.5-2.024 0-3.41-.447-4.154-1.344-.74-.901-1.109-2.56-1.109-4.978v-7.437h-1.712c-2.32 0-4.308 1.698-4.308 3.997v9.366h-4.53V6.812h4.488v1.763c2.145-1.725 4.065-1.408 6.062-1.44V2.184h4.518v4.628h4.149v3.79h-4.149v6.823c0 .667.015 1.135.054 1.413.033.282.154.516.37.72.21.199.544.297.994.297l2.563-.068.207 3.558h-.003Z" fill="#191919"/><path d="M79.665 23.727c-.49 0-1.04-.065-1.652-.195-.613-.13-1.208-.29-1.785-.486a13.3 13.3 0 0 1-1.535-.616l.835-.81v8.685h-2.403V10.018c0-.67.216-1.21.652-1.621.433-.412.995-.729 1.685-.957a11.573 11.573 0 0 1 2.202-.486 17.715 17.715 0 0 1 2.202-.145c1.334 0 2.593.27 3.773.809 1.178.539 2.136 1.455 2.872 2.737.733 1.286 1.103 3.032 1.103 5.236 0 1.665-.306 3.105-.916 4.326a6.508 6.508 0 0 1-2.686 2.82c-1.18.659-2.626.99-4.338.99h-.009Zm-.063-2.204c1.205 0 2.196-.255 2.974-.762.778-.506 1.364-1.214 1.758-2.121.393-.907.591-1.944.591-3.111 0-1.168-.132-2.258-.393-3.274-.262-1.017-.766-1.831-1.511-2.448-.745-.616-1.83-.924-3.254-.924-1.138 0-2.13.13-2.974.388-.844.258-1.265.628-1.265 1.102v10.015a8.679 8.679 0 0 0 2.037.86 7.768 7.768 0 0 0 2.037.275ZM92.417 23.407h-2.403V1.185h2.403v22.222ZM104.71 23.514c1.109-.172 2.007-.54 2.698-1.105.691-.563 1.036-1.416 1.036-2.566v-7.84c0-.693-.093-1.316-.279-1.867a4.712 4.712 0 0 0-.79-1.46 4.255 4.255 0 0 0-1.235-1.04 6.18 6.18 0 0 0-1.646-.617 9.09 9.09 0 0 0-2.01-.21 17.18 17.18 0 0 0-3.325.34c-1.142.226-2.052.558-2.731.99v2.335c.703-.54 1.541-.936 2.517-1.185a11.277 11.277 0 0 1 2.782-.373c1.382 0 2.448.293 3.193.877.745.583 1.121 1.505 1.121 2.758v7.422c0 .735-.367 1.206-1.103 1.414-.736.207-1.817.308-3.241.308a7.765 7.765 0 0 1-2.124-.294c-.69-.195-1.262-.53-1.712-1.007-.45-.477-.676-1.114-.676-1.914 0-.996.372-1.754 1.12-2.273.745-.518 1.812-.779 3.194-.779 1.141 0 2.187.136 3.142.406.955.27 1.682.59 1.727.957l.46-2.142c-.877-.26-1.343-.492-1.86-.7a8.624 8.624 0 0 0-1.76-.47 14.797 14.797 0 0 0-2.337-.163c-1.184 0-2.232.177-3.142.536a4.35 4.35 0 0 0-2.14 1.754c-.516.812-.774 1.89-.774 3.23 0 .974.192 1.78.576 2.417.385.64.89 1.141 1.514 1.508a6.62 6.62 0 0 0 2.04.78c.736.15 1.466.228 2.19.228 1.274 0 2.464-.086 3.572-.26l.003.005ZM110.85 8.53a17.043 17.043 0 0 1 1.638-.696 13.338 13.338 0 0 1 1.718-.5 16.018 16.018 0 0 1 1.784-.291 17.154 17.154 0 0 1 1.836-.098c1.607 0 2.887.234 3.833.696.946.466 1.637 1.141 2.067 2.027.429.886.646 1.956.646 3.209V23.41h-2.403V12.877c0-.388-.049-.8-.148-1.233a3.524 3.524 0 0 0-.573-1.247c-.286-.4-.724-.723-1.316-.972-.592-.249-1.382-.373-2.367-.373-.679 0-1.382.053-2.106.163-.724.11-1.457.27-2.202.486v13.71h-2.404V8.53h-.003ZM135.484 9.212V7.135c-4.855 0-6.861.252-7.967 1.588-.505.61-.745 1.395-.745 2.184v12.497h2.403V13.037c.024-2.569.135-3.976 6.309-3.828v.003Z" fill="#3457BF"/></symbol><symbol fill="none" viewBox="0 0 34 34" id="move" xmlns="http://www.w3.org/2000/svg"><path d="m15.795 20.394.009 8.986-1.35-1.35a1.2 1.2 0 1 0-1.697 1.698l3.394 3.394c.113.11.245.196.39.255a1.2 1.2 0 0 0 .917 0c.146-.059.278-.145.39-.255l3.395-3.394a1.2 1.2 0 1 0-1.697-1.697l-1.35 1.349.009-8.986a1.205 1.205 0 1 0-2.41 0ZM4.62 15.804l1.35-1.35a1.2 1.2 0 1 0-1.698-1.697L.878 16.151a1.2 1.2 0 0 0-.255.39 1.2 1.2 0 0 0 0 .917 1.2 1.2 0 0 0 .255.39l3.394 3.395a1.2 1.2 0 1 0 1.697-1.697l-1.349-1.35 8.986.009A1.2 1.2 0 0 0 14.81 17a1.202 1.202 0 0 0-1.205-1.205l-8.986.009Zm23.41-3.047a1.2 1.2 0 0 0 0 1.697l1.35 1.35-8.986-.009a1.205 1.205 0 1 0 0 2.41l8.986-.009-1.35 1.35a1.2 1.2 0 1 0 1.698 1.697l3.394-3.394c.11-.113.196-.245.255-.39a1.2 1.2 0 0 0 0-.917 1.198 1.198 0 0 0-.255-.39l-3.394-3.395a1.2 1.2 0 0 0-1.697 0ZM17.459.623a1.2 1.2 0 0 0-.916 0 1.2 1.2 0 0 0-.39.255l-3.395 3.394a1.2 1.2 0 1 0 1.697 1.697l1.35-1.349-.009 8.986A1.2 1.2 0 0 0 17 14.81a1.202 1.202 0 0 0 1.205-1.205l-.009-8.986 1.35 1.35a1.2 1.2 0 1 0 1.697-1.698L17.849.878a1.2 1.2 0 0 0-.39-.255Z" fill="currentColor"/></symbol><symbol fill="none" viewBox="0 0 32 32" id="nature" xmlns="http://www.w3.org/2000/svg"><path d="m7.79 13.3.002.002c.455.88 1.44 1.361 2.648 1.361h11.12c1.21 0 2.19-.481 2.673-1.356l.003-.007c.456-.897.255-1.97-.446-2.94l-5.558-7.77-.001-.001c-1.099-1.566-3.348-1.569-4.435-.013L8.237 10.36c-.702.97-.903 2.044-.447 2.94Zm2.478-1.485.002-.003 5.559-7.798a.693.693 0 0 1 .133-.14.173.173 0 0 1 .04-.023c.007.002.021.007.045.024.039.027.09.076.153.155l5.556 7.78v.001c.093.132.147.237.178.314-.08.02-.198.038-.36.038h-11.12c-.168 0-.29-.016-.372-.034.03-.074.087-.18.186-.314Zm-.221.435v.004-.004Z" fill="currentColor" stroke="currentColor" stroke-width=".5"/><path d="m20.737 12.682-.002-.004a1.273 1.273 0 0 0-1.015-.515h-7.426c-.395 0-.781.181-1.018.52l-5.319 7.465c-.584.806-.81 1.524-.845 2.126a2.66 2.66 0 0 0 .279 1.373c.156.305.443.708.95 1.035.509.327 1.224.568 2.22.568h14.892c.996 0 1.708-.24 2.213-.569.505-.327.788-.73.943-1.034.156-.303.317-.77.286-1.37-.031-.6-.254-1.316-.839-2.116v-.002l-5.319-7.477Zm-12.76 8.93 4.961-6.962h6.12l4.952 6.962.001.002c.202.277.306.497.35.655.023.08.03.14.028.18 0 .021-.002.036-.005.046l-.004.013-.003.007-.004.007c-.002.003-.041.062-.201.122-.155.059-.393.106-.732.106H8.547c-.339 0-.573-.047-.726-.105-.14-.053-.194-.109-.21-.13-.007-.025-.02-.102.02-.247.044-.16.144-.379.345-.654l.001-.002Z" fill="currentColor" stroke="currentColor" stroke-width=".5"/><path d="M14.75 29.333c0 .685.565 1.25 1.25 1.25s1.25-.565 1.25-1.25V24c0-.685-.565-1.25-1.25-1.25s-1.25.565-1.25 1.25v5.333Z" fill="currentColor" stroke="currentColor" stroke-width=".5"/></symbol><symbol fill="none" viewBox="0 0 24 24" id="notification" xmlns="http://www.w3.org/2000/svg"><path d="M12.02 20.53c-2.33 0-4.66-.37-6.87-1.11-.84-.29-1.48-.88-1.76-1.65-.29-.77-.19-1.62.27-2.38l1.15-1.91c.24-.4.46-1.2.46-1.67V8.92c0-3.72 3.03-6.75 6.75-6.75s6.75 3.03 6.75 6.75v2.89c0 .46.22 1.27.46 1.68l1.14 1.9c.43.72.51 1.59.22 2.38a2.72 2.72 0 0 1-1.71 1.65c-2.2.74-4.53 1.11-6.86 1.11Zm0-16.86c-2.89 0-5.25 2.35-5.25 5.25v2.89c0 .73-.3 1.81-.67 2.44l-1.15 1.91c-.22.37-.28.76-.15 1.09.12.34.42.6.83.74a20 20 0 0 0 12.79 0c.36-.12.64-.39.77-.75s.1-.75-.1-1.08l-1.15-1.91c-.38-.65-.67-1.72-.67-2.45V8.92c0-2.9-2.35-5.25-5.25-5.25Z" fill="currentColor"/><path d="M13.88 3.94c-.07 0-.14-.01-.21-.03-.29-.08-.57-.14-.84-.18-.85-.11-1.67-.05-2.44.18-.28.09-.58 0-.77-.21a.742.742 0 0 1-.14-.78 2.724 2.724 0 0 1 2.55-1.74c1.14 0 2.14.68 2.55 1.74.1.27.05.57-.14.78-.15.16-.36.24-.56.24ZM12.02 22.81c-.99 0-1.95-.4-2.65-1.1-.7-.7-1.1-1.66-1.1-2.65h1.5c0 .59.24 1.17.66 1.59.42.42 1 .66 1.59.66 1.24 0 2.25-1.01 2.25-2.25h1.5c0 2.07-1.68 3.75-3.75 3.75Z" fill="currentColor"/></symbol><symbol fill="none" viewBox="0 0 24 24" id="profile-circle" xmlns="http://www.w3.org/2000/svg"><path d="M12.12 13.53h-.17c-2.27-.07-3.97-1.84-3.97-4.02 0-2.22 1.81-4.03 4.03-4.03s4.03 1.81 4.03 4.03a4.014 4.014 0 0 1-3.89 4.02h-.03ZM12 6.97c-1.4 0-2.53 1.14-2.53 2.53a2.52 2.52 0 0 0 2.43 2.53.84.84 0 0 1 .23 0 2.535 2.535 0 0 0 2.4-2.53c0-1.39-1.13-2.53-2.53-2.53ZM12 22.75c-2.69 0-5.26-1-7.25-2.82a.755.755 0 0 1-.24-.63c.13-1.19.87-2.3 2.1-3.12 2.98-1.98 7.81-1.98 10.78 0 1.23.83 1.97 1.93 2.1 3.12.03.24-.06.47-.24.63A10.71 10.71 0 0 1 12 22.75ZM6.08 19.1A9.208 9.208 0 0 0 12 21.25c2.17 0 4.26-.76 5.92-2.15-.18-.61-.66-1.2-1.37-1.68-2.46-1.64-6.63-1.64-9.11 0-.71.48-1.18 1.07-1.36 1.68Z" fill="currentColor"/><path d="M12 22.75C6.07 22.75 1.25 17.93 1.25 12S6.07 1.25 12 1.25 22.75 6.07 22.75 12 17.93 22.75 12 22.75Zm0-20C6.9 2.75 2.75 6.9 2.75 12S6.9 21.25 12 21.25s9.25-4.15 9.25-9.25S17.1 2.75 12 2.75Z" fill="currentColor"/></symbol><symbol fill="none" viewBox="0 0 32 32" id="profile-user" xmlns="http://www.w3.org/2000/svg"><path d="m11.795 13.993.05.002.05-.008h.001c.006-.001.037-.004.095-.004.061 0 .135.003.21.009l.03.002.031-.001c2.882-.132 5.143-2.5 5.157-5.404v-.002A5.434 5.434 0 0 0 12 3.167a5.434 5.434 0 0 0-5.42 5.42 5.385 5.385 0 0 0 5.216 5.406Zm.418 1H12.145a1.246 1.246 0 0 0-.306 0c-3.579-.133-6.26-2.946-6.26-6.406 0-3.537 2.882-6.42 6.42-6.42 3.536 0 6.419 2.882 6.42 6.419-.013 3.477-2.732 6.292-6.175 6.407H12.212Z" fill="#8C95AF" stroke="currentColor"/><path d="M22.083 15.167H22.053l-.064-.022-.106.01c-.323.032-.592-.207-.614-.43-.03-.32.152-.529.382-.561.133-.01.281-.01.427-.01h.014l.014-.002a4.162 4.162 0 0 0 3.94-4.165 4.165 4.165 0 0 0-4.168-4.167h-.012a.487.487 0 0 1-.488-.487c0-.27.23-.5.5-.5A5.179 5.179 0 0 1 27.047 10a5.154 5.154 0 0 1-4.963 5.167Z" fill="currentColor" stroke="currentColor"/><path d="m5.278 27.651-.003-.001c-1.747-1.157-2.642-2.695-2.642-4.317 0-1.623.896-3.174 2.644-4.344 1.901-1.26 4.42-1.906 6.96-1.906s5.05.646 6.938 1.906c1.737 1.158 2.645 2.697 2.645 4.318 0 1.623-.897 3.174-2.645 4.344-1.902 1.268-4.413 1.916-6.949 1.916-2.537 0-5.06-.65-6.948-1.916Zm.55-7.814c-1.367.912-2.195 2.143-2.195 3.51 0 1.356.844 2.585 2.196 3.482 1.76 1.181 4.094 1.754 6.397 1.754s4.637-.573 6.398-1.754c1.368-.912 2.196-2.142 2.196-3.51 0-1.356-.845-2.585-2.197-3.482-1.761-1.174-4.094-1.744-6.397-1.744s-4.636.57-6.397 1.744ZM23.97 26.771a.514.514 0 0 1 .389-.602c.898-.186 1.742-.546 2.411-1.065.848-.64 1.37-1.495 1.37-2.45 0-.955-.521-1.81-1.358-2.439-.656-.506-1.459-.85-2.377-1.062h-.002a.508.508 0 0 1-.382-.604.508.508 0 0 1 .604-.38c1.084.239 2.015.664 2.763 1.24l.004.004c1.132.852 1.748 2.031 1.748 3.24 0 1.206-.627 2.388-1.764 3.256l-.003.002c-.76.59-1.727 1.026-2.804 1.238l-.03.007-.03.01h-.056a.484.484 0 0 1-.483-.395Zm.323-7.131a1.008 1.008 0 0 1-.76-1.2c.12-.533.653-.88 1.2-.76l-.44 1.96Z" fill="#8C95AF" stroke="currentColor"/></symbol><symbol fill="none" viewBox="0 0 32 32" id="rotate-left" xmlns="http://www.w3.org/2000/svg"><path d="m6.813 11.613-.002.002a11.037 11.037 0 0 0-1.858 6.145c0 6.103 4.958 11.06 11.06 11.06 6.103 0 11.06-4.957 11.06-11.06C27.073 11.656 22.102 6.7 16 6.7c-1.273 0-2.522.18-3.705.541a.5.5 0 0 1-.63-.331.5.5 0 0 1 .332-.631A13.884 13.884 0 0 1 16 5.687c6.657 0 12.06 5.415 12.06 12.06 0 6.645-5.404 12.086-12.06 12.086-6.657 0-12.06-5.415-12.06-12.06 0-2.393.703-4.71 2.035-6.707a.507.507 0 0 1 .692-.145.507.507 0 0 1 .146.692Z" fill="#191919" stroke="#191919"/><path d="m10.11 6.768 3.854-4.426a.496.496 0 0 1 .7-.05l.008.005c.202.176.225.5.044.708l-3.85 4.41-.002.002a.51.51 0 0 1-.37.176.498.498 0 0 1-.383-.825Z" fill="#191919" stroke="#191919"/><path d="M10.188 7.49v-.001a.497.497 0 0 1-.104-.688l.005-.006a.501.501 0 0 1 .7-.108l4.49 3.277a.5.5 0 0 1 .105.7l-.007.01-.006.009a.447.447 0 0 1-.384.19.556.556 0 0 1-.298-.094l-4.5-3.29Z" fill="#191919" stroke="#191919"/></symbol><symbol fill="none" viewBox="0 0 32 32" id="rotate-right" xmlns="http://www.w3.org/2000/svg"><path d="m19.999 6.29.004.002a.5.5 0 0 1 .331.631.5.5 0 0 1-.63.332A12.676 12.676 0 0 0 16 6.7c-6.103 0-11.06 4.957-11.06 11.06 0 6.103 4.957 11.06 11.06 11.06 6.103 0 11.06-4.957 11.06-11.06 0-2.205-.642-4.328-1.858-6.145l-.001-.002a.495.495 0 0 1 .14-.688l.006-.004a.495.495 0 0 1 .688.14l.003.004a11.988 11.988 0 0 1 2.035 6.707C28.061 24.418 22.657 29.833 16 29.833S3.94 24.418 3.94 17.773C3.94 11.13 9.344 5.7 16 5.7c1.38 0 2.716.193 3.999.59Z" fill="#191919" stroke="#191919"/><path d="M17.27 2.992a.508.508 0 0 1 .045-.708.508.508 0 0 1 .708.044l3.853 4.427a.508.508 0 0 1-.044.708l-.013.011-.012.012a.42.42 0 0 1-.3.107.516.516 0 0 1-.385-.176L17.27 2.992Z" fill="#191919" stroke="#191919"/><path d="m21.201 6.684.008-.005a.503.503 0 0 1 .7.116.503.503 0 0 1-.115.698l-4.49 3.29-.009.007a.436.436 0 0 1-.282.083.523.523 0 0 1-.41-.21.515.515 0 0 1 .11-.702L21.2 6.684Z" fill="#191919" stroke="#191919"/></symbol><symbol fill="none" viewBox="0 0 28 28" id="save" xmlns="http://www.w3.org/2000/svg"><path d="M.007 13.995c0-3.308-.02-6.617.008-9.925C.029 2.396.838 1.167 2.334.405 2.94.096 3.607.007 4.279.007 9.203 0 14.127.01 19.05 0c1.306-.003 2.398.428 3.315 1.37 1.429 1.467 2.888 2.905 4.343 4.346.867.858 1.296 1.875 1.293 3.1-.012 5.014-.004 10.026-.005 15.04 0 2.38-1.765 4.142-4.153 4.142-6.563.002-13.124.002-19.687 0-2.387 0-4.146-1.761-4.147-4.148-.002-3.285 0-6.57 0-9.855H.007Zm2.03 0v9.878c0 .592.134 1.134.582 1.564.455.436 1.017.536 1.612.537h16.075c1.172 0 2.345.003 3.517-.001.643-.002 1.23-.15 1.675-.662.358-.412.463-.903.463-1.425.003-2.37.002-4.741.002-7.112V8.826c0-.594-.14-1.133-.578-1.568-1.555-1.549-3.107-3.1-4.662-4.65a1.803 1.803 0 0 0-.543-.356c-.104-.047-.164-.024-.162.101.002.07 0 .14 0 .21l-.001 5.322c-.001.866-.324 1.55-1.134 1.952-.374.185-.78.2-1.182.202-3.758.003-7.517.003-11.275 0-.232 0-.467-.006-.697-.036-.677-.087-1.184-.426-1.508-1.034-.2-.376-.236-.784-.237-1.195-.005-1.782-.002-3.563-.002-5.346 0-.078 0-.155-.004-.232-.004-.097-.058-.138-.153-.127-.393.041-.76.145-1.073.402-.52.427-.715.995-.715 1.646V13.996Zm9.968-11.937H6.367c-.326 0-.328 0-.328.315v5.299c0 .313 0 .314.304.314h11.3c.318 0 .32 0 .32-.326V2.384c0-.326-.002-.326-.32-.326h-5.638Z" fill="currentColor"/><path d="M19.002 17.963C19 20.576 16.98 23 13.998 23.02c-2.742.02-4.99-2.256-5-5.036-.008-2.336 1.807-5.019 5.05-5.005 3.083.012 4.954 2.613 4.954 4.984Zm-4.995 3.005c1.663.025 2.947-1.273 2.954-2.995.007-1.588-1.224-2.961-2.968-2.962-1.778 0-2.966 1.463-2.956 2.956.011 1.7 1.261 3.03 2.97 3.002Z" fill="currentColor"/></symbol><symbol fill="none" viewBox="0 0 24 24" id="search" xmlns="http://www.w3.org/2000/svg"><path d="M1.1 11.5c0 5.733 4.667 10.4 10.4 10.4 5.733 0 10.4-4.667 10.4-10.4 0-5.733-4.667-10.4-10.4-10.4-5.733 0-10.4 4.667-10.4 10.4Zm1.8 0c0-4.737 3.853-8.6 8.6-8.6s8.6 3.863 8.6 8.6-3.853 8.6-8.6 8.6-8.6-3.863-8.6-8.6Z" fill="currentColor" stroke="currentColor" stroke-width=".3"/><path d="M21.364 22.636c.18.18.408.264.636.264a.892.892 0 0 0 .636-.264.905.905 0 0 0 0-1.272l-2-2a.905.905 0 0 0-1.272 0 .905.905 0 0 0 0 1.272l2 2Z" fill="currentColor" stroke="currentColor" stroke-width=".3"/></symbol><symbol fill="none" viewBox="0 0 24 24" id="security-user" xmlns="http://www.w3.org/2000/svg"><path d="M12 22.76c-1.09 0-2.17-.32-3.02-.95l-4.3-3.21c-1.14-.85-2.03-2.62-2.03-4.04V7.13c0-1.54 1.13-3.18 2.58-3.72l4.99-1.87c.99-.37 2.55-.37 3.54 0l5 1.87c1.45.54 2.58 2.18 2.58 3.72v7.43c0 1.42-.89 3.19-2.03 4.04l-4.3 3.21c-.84.63-1.92.95-3.01.95ZM10.75 2.94 5.76 4.81c-.86.32-1.61 1.4-1.61 2.32v7.43c0 .95.67 2.28 1.42 2.84l4.3 3.21c1.15.86 3.1.86 4.25 0l4.3-3.21c.76-.57 1.42-1.9 1.42-2.84V7.13c0-.91-.75-1.99-1.61-2.32l-4.99-1.87c-.66-.25-1.82-.25-2.49 0Z" fill="currentColor"/><path d="M12 11.67h-.07c-1.45-.04-2.51-1.15-2.51-2.5 0-1.38 1.13-2.51 2.51-2.51s2.51 1.13 2.51 2.51a2.514 2.514 0 0 1-2.42 2.51c-.01-.01-.01-.01-.02-.01Zm-.07-3.51c-.56 0-1.01.45-1.01 1.01 0 .55.43.99.97 1.01H12a1 1 0 0 0 .94-1.01 1 1 0 0 0-1.01-1.01ZM12 17.35c-.86 0-1.73-.23-2.4-.68-.67-.44-1.05-1.09-1.05-1.78s.38-1.34 1.05-1.79c1.35-.9 3.46-.89 4.8 0 .67.44 1.05 1.09 1.05 1.78s-.38 1.34-1.05 1.79c-.67.45-1.54.68-2.4.68Zm-1.57-3.01c-.25.16-.39.36-.38.54 0 .18.14.38.38.54.84.56 2.3.56 3.14 0 .25-.16.39-.36.39-.54 0-.18-.14-.38-.38-.54-.84-.55-2.31-.55-3.15 0Z" fill="currentColor"/></symbol><symbol fill="none" viewBox="0 0 32 32" id="setting" xmlns="http://www.w3.org/2000/svg"><path d="M16 20.5a4.502 4.502 0 0 1-4.5-4.5c0-2.484 2.016-4.5 4.5-4.5s4.5 2.016 4.5 4.5-2.016 4.5-4.5 4.5Zm0-8c-1.93 0-3.5 1.57-3.5 3.5s1.57 3.5 3.5 3.5 3.5-1.57 3.5-3.5-1.57-3.5-3.5-3.5Z" fill="#8C95AF" stroke="currentColor"/><path d="M18.62 26.97c-.7-1.215-1.663-1.817-2.62-1.817-.955 0-1.92.613-2.62 1.818h-.001l-.146.253-.004.006-.004.006c-.232.376-.6.68-1.061.795a1.68 1.68 0 0 1-1.3-.188l-2.299-1.316-.007-.004-.007-.004a2.06 2.06 0 0 1-.927-1.23 2.024 2.024 0 0 1 .196-1.539l.001-.001c.698-1.2.739-2.352.265-3.181-.471-.825-1.485-1.361-2.886-1.361a2.034 2.034 0 0 1-2.033-2.034v-2.346c0-1.13.904-2.034 2.033-2.034 1.401 0 2.415-.536 2.886-1.361.474-.83.433-1.98-.265-3.18V8.25a2.042 2.042 0 0 1 .757-2.776L10.88 4.14a1.724 1.724 0 0 1 2.334.603l.005.008.004.007.144.262c.7 1.212 1.662 1.812 2.618 1.812.957 0 1.92-.601 2.62-1.816l.147-.254.002-.004c.482-.816 1.545-1.108 2.364-.617l2.302 1.317.007.004.006.004c.448.276.786.698.928 1.23.14.525.071 1.075-.197 1.54v.001c-.698 1.2-.74 2.351-.265 3.18.471.825 1.485 1.362 2.886 1.362 1.132 0 2.033.92 2.033 2.033v2.347c0 1.13-.904 2.033-2.033 2.033-1.401 0-2.415.537-2.886 1.362-.474.829-.433 1.98.265 3.18v.002a2.043 2.043 0 0 1-.756 2.776l-4.79.458Zm0 0 .146.251v.002c.23.4.611.683 1.06.795.434.109.89.06 1.28-.174l2.304-1.33-4.79.457Zm-6.185 2.026-.005.001c-.71.192-1.437.09-2.053-.28l-.008-.004-2.293-1.32a3.04 3.04 0 0 1-1.122-4.144v-.002c.214-.375.364-.755.423-1.117.058-.36.032-.738-.159-1.063-.367-.625-1.183-.86-2.018-.86a3.04 3.04 0 0 1-3.033-3.034v-2.346A3.04 3.04 0 0 1 5.2 11.793c.835 0 1.651-.235 2.018-.86.37-.632.157-1.465-.266-2.184a3.049 3.049 0 0 1-.295-2.301v-.002A2.94 2.94 0 0 1 8.072 4.61l.003-.002 2.307-1.32.006-.004c1.264-.749 2.946-.316 3.715.985l.002.003.158.263c.429.74 1.027 1.266 1.757 1.266.731 0 1.33-.528 1.76-1.27l.145-.25v-.002c.77-1.31 2.449-1.744 3.726-.982l.006.004 2.294 1.32a3.04 3.04 0 0 1 1.122 4.144l-.001.002c-.213.376-.363.756-.422 1.117-.059.36-.032.738.159 1.063.366.626 1.183.86 2.018.86a3.04 3.04 0 0 1 3.033 3.034v2.347a3.04 3.04 0 0 1-3.033 3.033c-.835 0-1.652.235-2.018.86-.37.632-.157 1.465.265 2.184.402.701.513 1.523.298 2.295l-.003.008a2.94 2.94 0 0 1-1.415 1.838l-.002.001-2.304 1.318c-.436.24-.898.363-1.368.363-.23 0-.468-.033-.716-.091a2.774 2.774 0 0 1-1.655-1.253l-.158-.264c-.43-.74-1.028-1.266-1.758-1.266s-1.33.528-1.76 1.27l-.144.25v.001a2.697 2.697 0 0 1-1.654 1.262Z" fill="#8C95AF" stroke="currentColor"/></symbol><symbol fill="none" viewBox="0 0 24 24" id="setting-2" xmlns="http://www.w3.org/2000/svg"><path d="M12 15.75c-2.07 0-3.75-1.68-3.75-3.75 0-2.07 1.68-3.75 3.75-3.75 2.07 0 3.75 1.68 3.75 3.75 0 2.07-1.68 3.75-3.75 3.75Zm0-6c-1.24 0-2.25 1.01-2.25 2.25s1.01 2.25 2.25 2.25 2.25-1.01 2.25-2.25S13.24 9.75 12 9.75Z" fill="currentColor"/><path d="M15.21 22.19c-.21 0-.42-.03-.63-.08-.62-.17-1.14-.56-1.47-1.11l-.12-.2c-.59-1.02-1.4-1.02-1.99 0l-.11.19c-.33.56-.85.96-1.47 1.12-.63.17-1.28.08-1.83-.25l-1.72-.99a2.65 2.65 0 0 1-.98-3.62c.29-.51.37-.97.2-1.26-.17-.29-.6-.46-1.19-.46-1.46 0-2.65-1.19-2.65-2.65v-1.76c0-1.46 1.19-2.65 2.65-2.65.59 0 1.02-.17 1.19-.46.17-.29.1-.75-.2-1.26-.35-.61-.44-1.33-.26-2.01.18-.69.62-1.26 1.24-1.61l1.73-.99c1.13-.67 2.62-.28 3.3.87l.12.2c.59 1.02 1.4 1.02 1.99 0l.11-.19c.68-1.16 2.17-1.55 3.31-.87l1.72.99a2.65 2.65 0 0 1 .98 3.62c-.29.51-.37.97-.2 1.26.17.29.6.46 1.19.46 1.46 0 2.65 1.19 2.65 2.65v1.76c0 1.46-1.19 2.65-2.65 2.65-.59 0-1.02.17-1.19.46-.17.29-.1.75.2 1.26.35.61.45 1.33.26 2.01a2.58 2.58 0 0 1-1.24 1.61l-1.73.99c-.38.21-.79.32-1.21.32ZM12 18.49c.89 0 1.72.56 2.29 1.55l.11.19c.12.21.32.36.56.42.24.06.48.03.68-.09l1.73-1a1.157 1.157 0 0 0 .43-1.57c-.57-.98-.64-1.99-.2-2.76.44-.77 1.35-1.21 2.49-1.21.64 0 1.15-.51 1.15-1.15v-1.76c0-.63-.51-1.15-1.15-1.15-1.14 0-2.05-.44-2.49-1.21-.44-.77-.37-1.78.2-2.76.15-.26.19-.57.11-.87-.08-.3-.27-.54-.53-.7l-1.73-.99a.92.92 0 0 0-1.26.33l-.11.19c-.57.99-1.4 1.55-2.29 1.55-.89 0-1.72-.56-2.29-1.55l-.11-.2a.918.918 0 0 0-1.24-.32l-1.73 1A1.157 1.157 0 0 0 6.19 6c.57.98.64 1.99.2 2.76-.44.77-1.35 1.21-2.49 1.21-.64 0-1.15.51-1.15 1.15v1.76c0 .63.51 1.15 1.15 1.15 1.14 0 2.05.44 2.49 1.21.44.77.37 1.78-.2 2.76-.15.26-.19.57-.11.87.08.3.27.54.53.7l1.73.99c.21.13.46.16.69.1.24-.06.44-.22.57-.43l.11-.19c.57-.98 1.4-1.55 2.29-1.55Z" fill="currentColor"/></symbol><symbol fill="none" viewBox="0 0 24 24" id="setting-3" xmlns="http://www.w3.org/2000/svg"><path d="M15 22.75H9c-5.43 0-7.75-2.32-7.75-7.75V9c0-5.43 2.32-7.75 7.75-7.75h6c5.43 0 7.75 2.32 7.75 7.75v6c0 5.43-2.32 7.75-7.75 7.75Zm-6-20C4.39 2.75 2.75 4.39 2.75 9v6c0 4.61 1.64 6.25 6.25 6.25h6c4.61 0 6.25-1.64 6.25-6.25V9c0-4.61-1.64-6.25-6.25-6.25H9Z" fill="currentColor"/><path d="M15.58 19.25c-.41 0-.75-.34-.75-.75v-3.9c0-.41.34-.75.75-.75s.75.34.75.75v3.9c0 .41-.34.75-.75.75ZM15.58 8.2c-.41 0-.75-.34-.75-.75V5.5c0-.41.34-.75.75-.75s.75.34.75.75v1.95c0 .41-.34.75-.75.75Z" fill="currentColor"/><path d="M15.58 13.4a3.35 3.35 0 1 1 3.35-3.35c0 1.85-1.51 3.35-3.35 3.35Zm0-5.2c-1.02 0-1.85.83-1.85 1.85s.83 1.85 1.85 1.85 1.85-.83 1.85-1.85-.84-1.85-1.85-1.85ZM8.42 19.25c-.41 0-.75-.34-.75-.75v-1.95c0-.41.34-.75.75-.75s.75.34.75.75v1.95c0 .41-.33.75-.75.75ZM8.42 10.15c-.41 0-.75-.34-.75-.75V5.5c0-.41.34-.75.75-.75s.75.34.75.75v3.9c0 .41-.33.75-.75.75Z" fill="currentColor"/><path d="M8.42 17.3a3.35 3.35 0 1 1 0-6.7 3.35 3.35 0 0 1 0 6.7Zm0-5.2c-1.02 0-1.85.83-1.85 1.85s.83 1.85 1.85 1.85 1.85-.83 1.85-1.85-.82-1.85-1.85-1.85Z" fill="currentColor"/></symbol><symbol fill="none" viewBox="0 0 24 24" id="shield-security" xmlns="http://www.w3.org/2000/svg"><path d="M12 22.76c-1.09 0-2.17-.32-3.02-.95l-4.3-3.21c-1.14-.85-2.03-2.62-2.03-4.04V7.12c0-1.54 1.13-3.18 2.58-3.72l4.99-1.87c.99-.37 2.55-.37 3.54 0l5 1.87c1.45.54 2.58 2.18 2.58 3.72v7.43c0 1.42-.89 3.19-2.03 4.04l-4.3 3.21c-.84.64-1.92.96-3.01.96ZM10.75 2.94 5.76 4.81c-.86.32-1.61 1.4-1.61 2.32v7.43c0 .95.67 2.28 1.42 2.84l4.3 3.21c1.15.86 3.1.86 4.25 0l4.3-3.21c.76-.57 1.42-1.9 1.42-2.84V7.12c0-.91-.75-1.99-1.61-2.32l-4.99-1.87c-.66-.24-1.82-.24-2.49.01Z" fill="currentColor"/><path d="M12 13.25c-1.52 0-2.75-1.23-2.75-2.75S10.48 7.75 12 7.75s2.75 1.23 2.75 2.75-1.23 2.75-2.75 2.75Zm0-4a1.25 1.25 0 1 0 0 2.5 1.25 1.25 0 0 0 0-2.5Z" fill="currentColor"/><path d="M12 16.25c-.41 0-.75-.34-.75-.75v-3c0-.41.34-.75.75-.75s.75.34.75.75v3c0 .41-.34.75-.75.75Z" fill="currentColor"/></symbol><symbol fill="none" viewBox="0 0 165 24" id="tracker-middle" xmlns="http://www.w3.org/2000/svg"><path d="m165 12-20.627 12H0l20.627-12L0 0h144.373L165 12Z" fill="#8C95AF"/></symbol><symbol fill="none" viewBox="0 0 165 24" id="tracker-start" xmlns="http://www.w3.org/2000/svg"><path d="m164.979 12-20.624 12H0V0h144.355l20.624 12Z" fill="#8C95AF"/></symbol><symbol fill="none" viewBox="0 0 32 32" id="trash" xmlns="http://www.w3.org/2000/svg"><path d="m3.942 7.471 2.72-.267h.002c7.048-.715 14.198-.438 21.38.267a.501.501 0 0 1 .445.547v.01a.488.488 0 0 1-.489.445H27.918C20.854 7.767 13.786 7.5 6.776 8.21l-2.718.267a.507.507 0 0 1-.561-.457.494.494 0 0 1 .444-.548Z" fill="currentColor" stroke="currentColor"/><path d="m11.258 7.123-.012-.002a.504.504 0 0 1-.407-.568V6.55l.294-1.747c.11-.661.225-1.29.617-1.775.365-.45 1.049-.861 2.503-.861h3.494c1.456 0 2.143.424 2.51.884.395.496.506 1.13.61 1.763v.003l.293 1.733a.49.49 0 0 1-.394.569l-.01.001a.49.49 0 0 1-.568-.394l-.002-.01-.293-1.73-.002-.015c-.044-.274-.085-.532-.146-.746-.063-.225-.162-.459-.359-.647-.199-.191-.445-.286-.706-.335a5.065 5.065 0 0 0-.92-.063h-3.493c-.357 0-.66.011-.912.055-.256.046-.503.133-.705.322-.2.186-.298.42-.362.644a7.153 7.153 0 0 0-.154.767L11.828 6.7l-.002.007a.5.5 0 0 1-.568.416ZM6.366 12.221v-.004a.51.51 0 0 1 .464-.531c.29-.01.517.2.538.469l.866 13.424v.004l.002.026c.036.487.068.938.143 1.323.077.398.208.779.478 1.093.543.634 1.48.808 2.863.808h8.56c1.389 0 2.33-.173 2.873-.808.27-.315.4-.697.476-1.095.073-.388.103-.843.135-1.333l.002-.018.866-13.423v-.001a.519.519 0 0 1 .537-.47c.28.024.485.261.465.533v.003l-.866 13.424v.001c-.076 1.07-.161 2.081-.711 2.85-.518.722-1.54 1.337-3.777 1.337h-8.56c-2.238 0-3.26-.615-3.777-1.337-.55-.769-.635-1.78-.71-2.85l-.001-.001-.866-13.424Z" fill="currentColor" stroke="currentColor"/><path d="M18.213 22.5h-4.44c-.27 0-.5-.23-.5-.5s.23-.5.5-.5h4.44c.27 0 .5.23.5.5s-.23.5-.5.5ZM19.333 17.167h-6.666c-.27 0-.5-.23-.5-.5s.23-.5.5-.5h6.666c.27 0 .5.23.5.5s-.23.5-.5.5Z" fill="currentColor" stroke="currentColor"/></symbol><symbol fill="none" viewBox="0 0 32 32" id="trend-up" xmlns="http://www.w3.org/2000/svg"><path d="M16.74 18.62a.489.489 0 0 1-.766-.073l-1.45-2.184-.339-.508-.432.431-3.4 3.4a.489.489 0 0 1-.353.147.49.49 0 0 1-.353-.147.506.506 0 0 1 0-.706l4.267-4.267a.489.489 0 0 1 .765.074l1.451 2.183.338.509.432-.432 4.734-4.734a.506.506 0 0 1 .706 0 .506.506 0 0 1 0 .707l-5.6 5.6Z" fill="currentColor" stroke="currentColor"/><path d="M21.5 13.667v-.5h-2.167c-.27 0-.5-.23-.5-.5s.23-.5.5-.5H22c.27 0 .5.23.5.5v2.666c0 .27-.23.5-.5.5s-.5-.23-.5-.5v-1.666Z" fill="currentColor" stroke="currentColor"/><path d="M20 29.833h-8c-3.563 0-5.986-.763-7.528-2.305C2.93 25.986 2.167 23.563 2.167 20v-8c0-3.563.763-5.986 2.305-7.528C6.014 2.93 8.437 2.167 12 2.167h8c3.563 0 5.986.763 7.528 2.305C29.07 6.014 29.833 8.437 29.833 12v8c0 3.563-.763 5.986-2.305 7.528-1.542 1.542-3.965 2.305-7.528 2.305ZM12 3.167c-3.109 0-5.365.547-6.825 2.008C3.715 6.635 3.167 8.89 3.167 12v8c0 3.109.547 5.365 2.008 6.825 1.46 1.46 3.716 2.008 6.825 2.008h8c3.109 0 5.365-.547 6.825-2.008 1.46-1.46 2.008-3.716 2.008-6.825v-8c0-3.109-.547-5.365-2.008-6.825-1.46-1.46-3.716-2.008-6.825-2.008h-8Z" fill="currentColor" stroke="currentColor"/></symbol><symbol fill="none" viewBox="0 0 32 32" id="water" xmlns="http://www.w3.org/2000/svg"><path d="M11.573 17.5c-1.162 0-1.791-.297-2.335-.603l-.196-.112c-.502-.29-1.067-.618-1.909-.618-.833 0-1.405.325-1.914.615-.068.04-.135.077-.2.114-.47.26-1 .512-1.852.584v-1.685c.602-.096 1.036-.353 1.43-.587l.184-.108c.525-.303 1.136-.6 2.326-.6 1.162 0 1.791.297 2.335.602l.196.113c.502.29 1.068.618 1.909.618.876 0 1.434-.33 1.93-.625l.184-.108c.525-.303 1.136-.6 2.326-.6 1.162 0 1.791.297 2.335.602l.196.113c.502.29 1.067.618 1.909.618.876 0 1.434-.33 1.93-.625l.184-.108c.525-.303 1.136-.6 2.326-.6 1.162 0 1.791.297 2.335.602l.196.113c.395.229.83.481 1.409.578v1.682c-.852-.08-1.368-.332-1.822-.588-.062-.034-.124-.07-.188-.107-.5-.29-1.06-.613-1.904-.613-.876 0-1.434.33-1.93.625l-.184.108c-.525.303-1.136.6-2.326.6-1.162 0-1.791-.297-2.335-.603l-.196-.112c-.502-.29-1.067-.618-1.909-.618-.876 0-1.435.33-1.93.625l-.184.108c-.525.303-1.136.6-2.326.6Zm8.88 3.667c.877 0 1.435-.332 1.93-.626l.185-.108c.525-.302 1.136-.6 2.325-.6 1.19 0 1.8.298 2.326.6l.184.108c.394.234.828.492 1.43.587v1.685c-.854-.071-1.375-.324-1.835-.582l-.196-.113c-.502-.29-1.067-.618-1.909-.618-.877 0-1.438.331-1.936.626l-.183.107c-.527.303-1.138.6-2.32.6-1.163 0-1.792-.297-2.336-.602l-.196-.113c-.502-.29-1.067-.618-1.909-.618-.876 0-1.436.33-1.935.625l-.185.108c-.529.303-1.143.6-2.333.6-1.19 0-1.8-.297-2.325-.6-.061-.035-.122-.07-.185-.108-.495-.294-1.053-.625-1.93-.625-.868 0-1.429.33-1.926.623l-.189.11c-.45.257-.964.51-1.838.581v-1.686c.602-.095 1.038-.352 1.435-.586l.185-.108c.529-.303 1.143-.6 2.333-.6 1.19 0 1.8.297 2.325.6.061.034.122.07.185.107.495.294 1.053.626 1.93.626.876 0 1.437-.331 1.935-.625l.185-.108c.529-.303 1.143-.6 2.333-.6 1.163 0 1.792.297 2.335.602l.196.112c.503.291 1.068.619 1.91.619Zm-8.88-9c-1.162 0-1.791-.297-2.335-.603l-.196-.112c-.502-.291-1.067-.619-1.909-.619-.833 0-1.405.326-1.914.616l-.2.113c-.47.26-1 .513-1.852.584v-1.684c.602-.096 1.036-.353 1.43-.587l.184-.109c.525-.302 1.136-.6 2.326-.6 1.162 0 1.791.298 2.335.603l.196.113c.502.29 1.068.618 1.909.618.876 0 1.434-.331 1.93-.625a16.4 16.4 0 0 1 .184-.109c.525-.302 1.136-.6 2.326-.6 1.162 0 1.791.298 2.335.603l.196.113c.502.29 1.067.618 1.909.618.876 0 1.434-.331 1.93-.625a16.4 16.4 0 0 1 .184-.109c.525-.302 1.136-.6 2.326-.6 1.162 0 1.791.298 2.335.603l.196.113c.395.229.83.48 1.409.577v1.682c-.852-.08-1.368-.331-1.822-.587a19.163 19.163 0 0 1-.188-.107c-.5-.29-1.06-.614-1.904-.614-.876 0-1.434.331-1.93.626l-.184.108c-.525.302-1.136.6-2.326.6-1.162 0-1.791-.297-2.335-.603l-.196-.112c-.502-.291-1.067-.619-1.909-.619-.876 0-1.435.331-1.93.626l-.184.108c-.525.302-1.136.6-2.326.6Z" fill="currentColor" stroke="currentColor"/></symbol></svg>