<?xml version="1.0" encoding="utf-8"?><svg xmlns="http://www.w3.org/2000/svg" xmlns:xlink="http://www.w3.org/1999/xlink"><symbol fill="none" viewBox="0 0 35 35" id="chevron-down" xmlns="http://www.w3.org/2000/svg"><path d="m25 14-7 7-7-7" stroke="#329459" stroke-width="2" stroke-linecap="round" stroke-linejoin="round"/></symbol><symbol fill="none" viewBox="0 0 28 28" id="save" xmlns="http://www.w3.org/2000/svg"><path d="M.007 13.995c0-3.308-.02-6.617.008-9.925C.029 2.396.838 1.167 2.334.405 2.94.096 3.607.007 4.279.007 9.203 0 14.127.01 19.05 0c1.306-.003 2.398.428 3.315 1.37 1.429 1.467 2.888 2.905 4.343 4.346.867.858 1.296 1.875 1.293 3.1-.012 5.014-.004 10.026-.005 15.04 0 2.38-1.765 4.142-4.153 4.142-6.563.002-13.124.002-19.687 0-2.387 0-4.146-1.761-4.147-4.148-.002-3.285 0-6.57 0-9.855H.007Zm2.03 0v9.878c0 .592.134 1.134.582 1.564.455.436 1.017.536 1.612.537h16.075c1.172 0 2.345.003 3.517-.001.643-.002 1.23-.15 1.675-.662.358-.412.463-.903.463-1.425.003-2.37.002-4.741.002-7.112V8.826c0-.594-.14-1.133-.578-1.568-1.555-1.549-3.107-3.1-4.662-4.65a1.803 1.803 0 0 0-.543-.356c-.104-.047-.164-.024-.162.101.002.07 0 .14 0 .21l-.001 5.322c-.001.866-.324 1.55-1.134 1.952-.374.185-.78.2-1.182.202-3.758.003-7.517.003-11.275 0-.232 0-.467-.006-.697-.036-.677-.087-1.184-.426-1.508-1.034-.2-.376-.236-.784-.237-1.195-.005-1.782-.002-3.563-.002-5.346 0-.078 0-.155-.004-.232-.004-.097-.058-.138-.153-.127-.393.041-.76.145-1.073.402-.52.427-.715.995-.715 1.646V13.996Zm9.968-11.937H6.367c-.326 0-.328 0-.328.315v5.299c0 .313 0 .314.304.314h11.3c.318 0 .32 0 .32-.326V2.384c0-.326-.002-.326-.32-.326h-5.638Z" fill="currentColor"/><path d="M19.002 17.963C19 20.576 16.98 23 13.998 23.02c-2.742.02-4.99-2.256-5-5.036-.008-2.336 1.807-5.019 5.05-5.005 3.083.012 4.954 2.613 4.954 4.984Zm-4.995 3.005c1.663.025 2.947-1.273 2.954-2.995.007-1.588-1.224-2.961-2.968-2.962-1.778 0-2.966 1.463-2.956 2.956.011 1.7 1.261 3.03 2.97 3.002Z" fill="currentColor"/></symbol><symbol fill="none" viewBox="0 0 32 32" id="trash" xmlns="http://www.w3.org/2000/svg"><path d="m3.942 7.471 2.72-.267h.002c7.048-.715 14.198-.438 21.38.267a.501.501 0 0 1 .445.547v.01a.488.488 0 0 1-.489.445H27.918C20.854 7.767 13.786 7.5 6.776 8.21l-2.718.267a.507.507 0 0 1-.561-.457.494.494 0 0 1 .444-.548Z" fill="currentColor" stroke="currentColor"/><path d="m11.258 7.123-.012-.002a.504.504 0 0 1-.407-.568V6.55l.294-1.747c.11-.661.225-1.29.617-1.775.365-.45 1.049-.861 2.503-.861h3.494c1.456 0 2.143.424 2.51.884.395.496.506 1.13.61 1.763v.003l.293 1.733a.49.49 0 0 1-.394.569l-.01.001a.49.49 0 0 1-.568-.394l-.002-.01-.293-1.73-.002-.015c-.044-.274-.085-.532-.146-.746-.063-.225-.162-.459-.359-.647-.199-.191-.445-.286-.706-.335a5.065 5.065 0 0 0-.92-.063h-3.493c-.357 0-.66.011-.912.055-.256.046-.503.133-.705.322-.2.186-.298.42-.362.644a7.153 7.153 0 0 0-.154.767L11.828 6.7l-.002.007a.5.5 0 0 1-.568.416ZM6.366 12.221v-.004a.51.51 0 0 1 .464-.531c.29-.01.517.2.538.469l.866 13.424v.004l.002.026c.036.487.068.938.143 1.323.077.398.208.779.478 1.093.543.634 1.48.808 2.863.808h8.56c1.389 0 2.33-.173 2.873-.808.27-.315.4-.697.476-1.095.073-.388.103-.843.135-1.333l.002-.018.866-13.423v-.001a.519.519 0 0 1 .537-.47c.28.024.485.261.465.533v.003l-.866 13.424v.001c-.076 1.07-.161 2.081-.711 2.85-.518.722-1.54 1.337-3.777 1.337h-8.56c-2.238 0-3.26-.615-3.777-1.337-.55-.769-.635-1.78-.71-2.85l-.001-.001-.866-13.424Z" fill="currentColor" stroke="currentColor"/><path d="M18.213 22.5h-4.44c-.27 0-.5-.23-.5-.5s.23-.5.5-.5h4.44c.27 0 .5.23.5.5s-.23.5-.5.5ZM19.333 17.167h-6.666c-.27 0-.5-.23-.5-.5s.23-.5.5-.5h6.666c.27 0 .5.23.5.5s-.23.5-.5.5Z" fill="currentColor" stroke="currentColor"/></symbol></svg>