<?xml version="1.0" encoding="utf-8"?><svg xmlns="http://www.w3.org/2000/svg" xmlns:xlink="http://www.w3.org/1999/xlink"><symbol fill="none" viewBox="0 0 48 48" id="arrow-down" xmlns="http://www.w3.org/2000/svg"><path d="M24 33.1a4.952 4.952 0 0 1-3.506-1.454l-13.04-13.04a1.009 1.009 0 0 1 0-1.412 1.009 1.009 0 0 1 1.412 0l13.04 13.04a2.963 2.963 0 0 0 4.188 0l13.04-13.04a1.009 1.009 0 0 1 1.413 0 1.009 1.009 0 0 1 0 1.412l-13.04 13.04A4.953 4.953 0 0 1 24 33.1Z" fill="#191919" stroke="#191919"/></symbol><symbol fill="none" viewBox="0 0 35 35" id="chevron-down" xmlns="http://www.w3.org/2000/svg"><path d="m25 14-7 7-7-7" stroke="#329459" stroke-width="2" stroke-linecap="round" stroke-linejoin="round"/></symbol><symbol fill="none" viewBox="0 0 32 32" id="furniture" xmlns="http://www.w3.org/2000/svg"><path d="M14.5 11.333v-.5H3.586L15.333 2.61l11.748 8.223H16.166v17.334H14.5V11.333Zm1.12-6.49-.287-.2-.286.2-4.88 3.414-1.3.91H21.8l-1.3-.91-4.88-3.413ZM3.833 21.654v-.046l-.008-.046-1.001-5.336 1.631-.308.92 4.843.078.407h5.38v7H9.167v-5.334H5.529l-.002.498-.025 4.836H3.833v-6.514Zm20.967-.486h.414l.077-.407.92-4.843 1.632.308-1.001 5.336-.009.046V28.167h-1.669l-.024-4.836-.003-.498H21.5v5.334h-1.667v-7H24.8Z" fill="#191919" stroke="#191919"/></symbol><symbol fill="none" viewBox="0 0 32 32" id="ground" xmlns="http://www.w3.org/2000/svg"><path d="M10.817 23.874a11.203 11.203 0 0 0-6.166-7.349 10.164 10.164 0 0 1 10.837 9.641H3.167V24.5H10.98l-.163-.626Zm10.836.626h7.167v1.667h-9.676a14.178 14.178 0 0 0-.267-2.264 13.28 13.28 0 0 0-.822-2.623c1.807-2.87 4.98-4.78 8.612-4.78.228 0 .456.009.682.025a11.252 11.252 0 0 0-6.18 7.348l-.164.627h.648Zm-5.048-7.301c.606-4.185 3.764-7.533 7.842-8.437a13.86 13.86 0 0 0-3.991 5.57c-1.446.729-2.75 1.7-3.85 2.867Zm-3.36-1.876c-.252-.176-.51-.345-.776-.505l.008-.083c.011-.138.023-.292.023-.455 0-2.777-.752-5.37-2.059-7.606a10.922 10.922 0 0 1 4.232 5.085 13.867 13.867 0 0 0-1.429 3.564Z" fill="#191919" stroke="#191919"/></symbol><symbol fill="none" viewBox="0 0 32 32" id="light" xmlns="http://www.w3.org/2000/svg"><path d="M14.23 4.011c-3.476.668-6.254 3.48-6.91 6.96-.606 3.3.606 6.326 2.8 8.282a3.092 3.092 0 0 1 1.049 2.334v3.08c0 1.19.976 2.166 2.166 2.166h.661l.145.248a2.14 2.14 0 0 0 3.72.006l.143-.254h.665c1.19 0 2.166-.976 2.166-2.166v-3.08c0-.864.346-1.725 1.023-2.322L14.23 4.011Zm0 0 .01-.002m-.01.002.01-.002m0 0a8.457 8.457 0 0 1 1.762-.176m-1.762.176 1.762-.176m0 0a8.827 8.827 0 0 1 8.834 8.834 8.775 8.775 0 0 1-2.978 6.598L16.002 3.833ZM18.67 22.5h.5v-2.333h-6.334V22.5h5.834Zm-5.834 2.167v.5h6.334v-2.334h-6.334v1.834ZM11.896 18c-.035-.04-.07-.081-.103-.123-.068-.083-.136-.166-.216-.237-1.76-1.573-2.547-3.92-2.12-6.267.48-2.586 2.613-4.733 5.186-5.24A6.72 6.72 0 0 1 16.002 6a6.669 6.669 0 0 1 6.667 6.667L11.895 18Zm8.852.028a7.13 7.13 0 0 0 2.422-5.361A7.17 7.17 0 0 0 16.002 5.5c-.482 0-.969.043-1.458.143-2.773.547-5.063 2.851-5.58 5.64-.458 2.515.386 5.038 2.278 6.73h.001a1.179 1.179 0 0 1 .154.17c.037.046.083.102.125.15l.149.167H20.303l.146-.146c.06-.06.117-.127.16-.177l.02-.024a1.33 1.33 0 0 1 .118-.125Zm-4.912-.528v-1.965l.162-.161.172.172V17.5h-.334Zm2.566-5.379L17.022 13.5h-.138l-.167-.166 1.448-1.448.236.235Zm-4.56-.249 1.462 1.462-.166.166h-.139l-1.392-1.392.236-.236Z" fill="#191919" stroke="#191919"/></symbol><symbol fill="none" viewBox="0 0 49 48" id="map-pin" xmlns="http://www.w3.org/2000/svg"><path d="M40.465 23.956c-1.895 4.588-4.405 8.842-7.207 12.915-2.411 3.51-4.967 6.92-7.483 10.356-.749 1.023-1.93 1.024-2.698.041-4.323-5.523-8.378-11.23-11.812-17.355-1.677-2.991-3.202-6.058-4.05-9.407-.865-3.42-.351-6.735 1.064-9.883C10.878 4.851 15.371 1.415 21.6.248c.327-.06.66-.097.99-.124.615-.05 1.229-.084 1.844-.124 8.632.039 15.94 6.287 17.37 14.81.54 3.212-.125 6.209-1.338 9.146Z" fill="#575AB9"/><path d="M32.194 14.754v-.163a7.632 7.632 0 0 0-5.366-7.315h-.058a7.987 7.987 0 0 0-2.486-.346 7.882 7.882 0 0 0-7.45 7.824 2.88 2.88 0 0 0 0 5.434 7.68 7.68 0 0 0 7.68 6.883h.221a7.805 7.805 0 0 0 7.373-6.873 2.88 2.88 0 0 0 .086-5.444Zm-7.507 10.397a5.76 5.76 0 0 1-5.846-4.8H30.14a5.847 5.847 0 0 1-5.453 4.8Zm6.547-6.72h-13.44a.96.96 0 1 1 0-1.92h1.92a.96.96 0 1 0 0-1.92h-.96a6.145 6.145 0 0 1 2.88-4.944v3.024a.96.96 0 0 0 1.92 0V8.918c.261-.044.524-.073.788-.087h.172c.322.005.643.034.96.087v3.753a.96.96 0 0 0 1.92 0V9.618c.408.236.788.516 1.133.835a5.759 5.759 0 0 1 1.747 4.138h-.96a.96.96 0 0 0 0 1.92h1.92a.96.96 0 0 1 0 1.92Z" fill="#fff"/></symbol><symbol fill="none" viewBox="0 0 34 34" id="move" xmlns="http://www.w3.org/2000/svg"><path d="m15.795 20.394.009 8.986-1.35-1.35a1.2 1.2 0 1 0-1.697 1.698l3.394 3.394c.113.11.245.196.39.255a1.2 1.2 0 0 0 .917 0c.146-.059.278-.145.39-.255l3.395-3.394a1.2 1.2 0 1 0-1.697-1.697l-1.35 1.349.009-8.986a1.205 1.205 0 1 0-2.41 0ZM4.62 15.804l1.35-1.35a1.2 1.2 0 1 0-1.698-1.697L.878 16.151a1.2 1.2 0 0 0-.255.39 1.2 1.2 0 0 0 0 .917 1.2 1.2 0 0 0 .255.39l3.394 3.395a1.2 1.2 0 1 0 1.697-1.697l-1.349-1.35 8.986.009A1.2 1.2 0 0 0 14.81 17a1.202 1.202 0 0 0-1.205-1.205l-8.986.009Zm23.41-3.047a1.2 1.2 0 0 0 0 1.697l1.35 1.35-8.986-.009a1.205 1.205 0 1 0 0 2.41l8.986-.009-1.35 1.35a1.2 1.2 0 1 0 1.698 1.697l3.394-3.394c.11-.113.196-.245.255-.39a1.2 1.2 0 0 0 0-.917 1.198 1.198 0 0 0-.255-.39l-3.394-3.395a1.2 1.2 0 0 0-1.697 0ZM17.459.623a1.2 1.2 0 0 0-.916 0 1.2 1.2 0 0 0-.39.255l-3.395 3.394a1.2 1.2 0 1 0 1.697 1.697l1.35-1.349-.009 8.986A1.2 1.2 0 0 0 17 14.81a1.202 1.202 0 0 0 1.205-1.205l-.009-8.986 1.35 1.35a1.2 1.2 0 1 0 1.697-1.698L17.849.878a1.2 1.2 0 0 0-.39-.255Z" fill="#191919"/></symbol><symbol fill="none" viewBox="0 0 32 32" id="nature" xmlns="http://www.w3.org/2000/svg"><path d="m7.79 13.3.002.002c.455.88 1.44 1.361 2.648 1.361h11.12c1.21 0 2.19-.481 2.673-1.356l.003-.007c.456-.897.255-1.97-.446-2.94l-5.558-7.77-.001-.001c-1.099-1.566-3.348-1.569-4.435-.013L8.237 10.36c-.702.97-.903 2.044-.447 2.94Zm2.478-1.485.002-.003 5.559-7.798a.693.693 0 0 1 .133-.14.173.173 0 0 1 .04-.023c.007.002.021.007.045.024.039.027.09.076.153.155l5.556 7.78v.001c.093.132.147.237.178.314-.08.02-.198.038-.36.038h-11.12c-.168 0-.29-.016-.372-.034.03-.074.087-.18.186-.314Zm-.221.435v.004-.004Z" fill="#191919" stroke="#191919" stroke-width=".5"/><path d="m20.737 12.682-.002-.004a1.273 1.273 0 0 0-1.015-.515h-7.426c-.395 0-.781.181-1.018.52l-5.319 7.465c-.584.806-.81 1.524-.845 2.126a2.66 2.66 0 0 0 .279 1.373c.156.305.443.708.95 1.035.509.327 1.224.568 2.22.568h14.892c.996 0 1.708-.24 2.213-.569.505-.327.788-.73.943-1.034.156-.303.317-.77.286-1.37-.031-.6-.254-1.316-.839-2.116v-.002l-5.319-7.477Zm-12.76 8.93 4.961-6.962h6.12l4.952 6.962.001.002c.202.277.306.497.35.655.023.08.03.14.028.18 0 .021-.002.036-.005.046l-.004.013-.003.007-.004.007c-.002.003-.041.062-.201.122-.155.059-.393.106-.732.106H8.547c-.339 0-.573-.047-.726-.105-.14-.053-.194-.109-.21-.13-.007-.025-.02-.102.02-.247.044-.16.144-.379.345-.654l.001-.002Z" fill="#191919" stroke="#191919" stroke-width=".5"/><path d="M14.75 29.333c0 .685.565 1.25 1.25 1.25s1.25-.565 1.25-1.25V24c0-.685-.565-1.25-1.25-1.25s-1.25.565-1.25 1.25v5.333Z" fill="#191919" stroke="#191919" stroke-width=".5"/></symbol><symbol fill="none" viewBox="0 0 28 28" id="save" xmlns="http://www.w3.org/2000/svg"><path d="M.007 13.995c0-3.308-.02-6.617.008-9.925C.029 2.396.838 1.167 2.334.405 2.94.096 3.607.007 4.279.007 9.203 0 14.127.01 19.05 0c1.306-.003 2.398.428 3.315 1.37 1.429 1.467 2.888 2.905 4.343 4.346.867.858 1.296 1.875 1.293 3.1-.012 5.014-.004 10.026-.005 15.04 0 2.38-1.765 4.142-4.153 4.142-6.563.002-13.124.002-19.687 0-2.387 0-4.146-1.761-4.147-4.148-.002-3.285 0-6.57 0-9.855H.007Zm2.03 0v9.878c0 .592.134 1.134.582 1.564.455.436 1.017.536 1.612.537h16.075c1.172 0 2.345.003 3.517-.001.643-.002 1.23-.15 1.675-.662.358-.412.463-.903.463-1.425.003-2.37.002-4.741.002-7.112V8.826c0-.594-.14-1.133-.578-1.568-1.555-1.549-3.107-3.1-4.662-4.65a1.803 1.803 0 0 0-.543-.356c-.104-.047-.164-.024-.162.101.002.07 0 .14 0 .21l-.001 5.322c-.001.866-.324 1.55-1.134 1.952-.374.185-.78.2-1.182.202-3.758.003-7.517.003-11.275 0-.232 0-.467-.006-.697-.036-.677-.087-1.184-.426-1.508-1.034-.2-.376-.236-.784-.237-1.195-.005-1.782-.002-3.563-.002-5.346 0-.078 0-.155-.004-.232-.004-.097-.058-.138-.153-.127-.393.041-.76.145-1.073.402-.52.427-.715.995-.715 1.646V13.996Zm9.968-11.937H6.367c-.326 0-.328 0-.328.315v5.299c0 .313 0 .314.304.314h11.3c.318 0 .32 0 .32-.326V2.384c0-.326-.002-.326-.32-.326h-5.638Z" fill="currentColor"/><path d="M19.002 17.963C19 20.576 16.98 23 13.998 23.02c-2.742.02-4.99-2.256-5-5.036-.008-2.336 1.807-5.019 5.05-5.005 3.083.012 4.954 2.613 4.954 4.984Zm-4.995 3.005c1.663.025 2.947-1.273 2.954-2.995.007-1.588-1.224-2.961-2.968-2.962-1.778 0-2.966 1.463-2.956 2.956.011 1.7 1.261 3.03 2.97 3.002Z" fill="currentColor"/></symbol><symbol fill="none" viewBox="0 0 24 24" id="search" xmlns="http://www.w3.org/2000/svg"><path d="M1.1 11.5c0 5.733 4.667 10.4 10.4 10.4 5.733 0 10.4-4.667 10.4-10.4 0-5.733-4.667-10.4-10.4-10.4-5.733 0-10.4 4.667-10.4 10.4Zm1.8 0c0-4.737 3.853-8.6 8.6-8.6s8.6 3.863 8.6 8.6-3.853 8.6-8.6 8.6-8.6-3.863-8.6-8.6Z" fill="#329459" stroke="#329459" stroke-width=".3"/><path d="M21.364 22.636c.18.18.408.264.636.264a.892.892 0 0 0 .636-.264.905.905 0 0 0 0-1.272l-2-2a.905.905 0 0 0-1.272 0 .905.905 0 0 0 0 1.272l2 2Z" fill="#329459" stroke="#329459" stroke-width=".3"/></symbol><symbol fill="none" viewBox="0 0 32 32" id="trash" xmlns="http://www.w3.org/2000/svg"><path d="m3.942 7.471 2.72-.267h.002c7.048-.715 14.198-.438 21.38.267a.501.501 0 0 1 .445.547v.01a.488.488 0 0 1-.489.445H27.918C20.854 7.767 13.786 7.5 6.776 8.21l-2.718.267a.507.507 0 0 1-.561-.457.494.494 0 0 1 .444-.548Z" fill="currentColor" stroke="currentColor"/><path d="m11.258 7.123-.012-.002a.504.504 0 0 1-.407-.568V6.55l.294-1.747c.11-.661.225-1.29.617-1.775.365-.45 1.049-.861 2.503-.861h3.494c1.456 0 2.143.424 2.51.884.395.496.506 1.13.61 1.763v.003l.293 1.733a.49.49 0 0 1-.394.569l-.01.001a.49.49 0 0 1-.568-.394l-.002-.01-.293-1.73-.002-.015c-.044-.274-.085-.532-.146-.746-.063-.225-.162-.459-.359-.647-.199-.191-.445-.286-.706-.335a5.065 5.065 0 0 0-.92-.063h-3.493c-.357 0-.66.011-.912.055-.256.046-.503.133-.705.322-.2.186-.298.42-.362.644a7.153 7.153 0 0 0-.154.767L11.828 6.7l-.002.007a.5.5 0 0 1-.568.416ZM6.366 12.221v-.004a.51.51 0 0 1 .464-.531c.29-.01.517.2.538.469l.866 13.424v.004l.002.026c.036.487.068.938.143 1.323.077.398.208.779.478 1.093.543.634 1.48.808 2.863.808h8.56c1.389 0 2.33-.173 2.873-.808.27-.315.4-.697.476-1.095.073-.388.103-.843.135-1.333l.002-.018.866-13.423v-.001a.519.519 0 0 1 .537-.47c.28.024.485.261.465.533v.003l-.866 13.424v.001c-.076 1.07-.161 2.081-.711 2.85-.518.722-1.54 1.337-3.777 1.337h-8.56c-2.238 0-3.26-.615-3.777-1.337-.55-.769-.635-1.78-.71-2.85l-.001-.001-.866-13.424Z" fill="currentColor" stroke="currentColor"/><path d="M18.213 22.5h-4.44c-.27 0-.5-.23-.5-.5s.23-.5.5-.5h4.44c.27 0 .5.23.5.5s-.23.5-.5.5ZM19.333 17.167h-6.666c-.27 0-.5-.23-.5-.5s.23-.5.5-.5h6.666c.27 0 .5.23.5.5s-.23.5-.5.5Z" fill="currentColor" stroke="currentColor"/></symbol><symbol fill="none" viewBox="0 0 32 32" id="water" xmlns="http://www.w3.org/2000/svg"><path d="M11.573 17.5c-1.162 0-1.791-.297-2.335-.603l-.196-.112c-.502-.29-1.067-.618-1.909-.618-.833 0-1.405.325-1.914.615-.068.04-.135.077-.2.114-.47.26-1 .512-1.852.584v-1.685c.602-.096 1.036-.353 1.43-.587l.184-.108c.525-.303 1.136-.6 2.326-.6 1.162 0 1.791.297 2.335.602l.196.113c.502.29 1.068.618 1.909.618.876 0 1.434-.33 1.93-.625l.184-.108c.525-.303 1.136-.6 2.326-.6 1.162 0 1.791.297 2.335.602l.196.113c.502.29 1.067.618 1.909.618.876 0 1.434-.33 1.93-.625l.184-.108c.525-.303 1.136-.6 2.326-.6 1.162 0 1.791.297 2.335.602l.196.113c.395.229.83.481 1.409.578v1.682c-.852-.08-1.368-.332-1.822-.588-.062-.034-.124-.07-.188-.107-.5-.29-1.06-.613-1.904-.613-.876 0-1.434.33-1.93.625l-.184.108c-.525.303-1.136.6-2.326.6-1.162 0-1.791-.297-2.335-.603l-.196-.112c-.502-.29-1.067-.618-1.909-.618-.876 0-1.435.33-1.93.625l-.184.108c-.525.303-1.136.6-2.326.6Zm8.88 3.667c.877 0 1.435-.332 1.93-.626l.185-.108c.525-.302 1.136-.6 2.325-.6 1.19 0 1.8.298 2.326.6l.184.108c.394.234.828.492 1.43.587v1.685c-.854-.071-1.375-.324-1.835-.582l-.196-.113c-.502-.29-1.067-.618-1.909-.618-.877 0-1.438.331-1.936.626l-.183.107c-.527.303-1.138.6-2.32.6-1.163 0-1.792-.297-2.336-.602l-.196-.113c-.502-.29-1.067-.618-1.909-.618-.876 0-1.436.33-1.935.625l-.185.108c-.529.303-1.143.6-2.333.6-1.19 0-1.8-.297-2.325-.6-.061-.035-.122-.07-.185-.108-.495-.294-1.053-.625-1.93-.625-.868 0-1.429.33-1.926.623l-.189.11c-.45.257-.964.51-1.838.581v-1.686c.602-.095 1.038-.352 1.435-.586l.185-.108c.529-.303 1.143-.6 2.333-.6 1.19 0 1.8.297 2.325.6.061.034.122.07.185.107.495.294 1.053.626 1.93.626.876 0 1.437-.331 1.935-.625l.185-.108c.529-.303 1.143-.6 2.333-.6 1.163 0 1.792.297 2.335.602l.196.112c.503.291 1.068.619 1.91.619Zm-8.88-9c-1.162 0-1.791-.297-2.335-.603l-.196-.112c-.502-.291-1.067-.619-1.909-.619-.833 0-1.405.326-1.914.616l-.2.113c-.47.26-1 .513-1.852.584v-1.684c.602-.096 1.036-.353 1.43-.587l.184-.109c.525-.302 1.136-.6 2.326-.6 1.162 0 1.791.298 2.335.603l.196.113c.502.29 1.068.618 1.909.618.876 0 1.434-.331 1.93-.625a16.4 16.4 0 0 1 .184-.109c.525-.302 1.136-.6 2.326-.6 1.162 0 1.791.298 2.335.603l.196.113c.502.29 1.067.618 1.909.618.876 0 1.434-.331 1.93-.625a16.4 16.4 0 0 1 .184-.109c.525-.302 1.136-.6 2.326-.6 1.162 0 1.791.298 2.335.603l.196.113c.395.229.83.48 1.409.577v1.682c-.852-.08-1.368-.331-1.822-.587a19.163 19.163 0 0 1-.188-.107c-.5-.29-1.06-.614-1.904-.614-.876 0-1.434.331-1.93.626l-.184.108c-.525.302-1.136.6-2.326.6-1.162 0-1.791-.297-2.335-.603l-.196-.112c-.502-.291-1.067-.619-1.909-.619-.876 0-1.435.331-1.93.626l-.184.108c-.525.302-1.136.6-2.326.6Z" fill="#191919" stroke="#191919"/></symbol></svg>