<?xml version="1.0" encoding="utf-8"?><svg xmlns="http://www.w3.org/2000/svg" xmlns:xlink="http://www.w3.org/1999/xlink"><symbol fill="none" viewBox="0 0 35 35" id="chevron-down" xmlns="http://www.w3.org/2000/svg"><path d="m25 14-7 7-7-7" stroke="currentColor" stroke-width="2" stroke-linecap="round" stroke-linejoin="round"/></symbol><symbol fill="none" viewBox="0 0 32 32" id="folder" xmlns="http://www.w3.org/2000/svg"><path d="M14.133 4.567v-.001l-.037-.048c-.313-.416-.597-.794-1.016-1.031-.447-.253-.987-.32-1.747-.32h-2c-1.202 0-2.195.056-3.002.227-.813.171-1.474.466-1.975.968-.501.502-.794 1.163-.965 1.975-.169.807-.224 1.798-.224 2.996v13.334c0 1.198.055 2.19.224 2.996.17.812.464 1.473.965 1.975.501.502 1.162.797 1.975.969.807.17 1.8.226 3.002.226h13.334c1.202 0 2.195-.056 3.002-.226.813-.172 1.474-.466 1.975-.969.501-.502.794-1.163.965-1.975.169-.806.224-1.798.224-2.996v-8c0-1.199-.055-2.19-.224-2.996-.17-.813-.464-1.474-.965-1.976-.501-.502-1.162-.796-1.975-.968-.807-.17-1.8-.227-3.002-.227h-4c-.796 0-1.267-.136-1.604-.334-.344-.203-.6-.498-.93-.934h-.001l-1.999-2.665Zm8.534 25.266H9.333c-2.922 0-4.655-.452-5.684-1.481-1.03-1.03-1.482-2.762-1.482-5.685V9.333c0-2.922.452-4.655 1.482-5.684 1.03-1.03 2.762-1.482 5.684-1.482h2c1.114 0 1.784.181 2.274.467.497.29.862.716 1.327 1.333l2 2.666.032.045c.186.247.376.502.654.65.301.16.65.172 1.047.172h4c2.922 0 4.655.452 5.684 1.482 1.03 1.03 1.482 2.762 1.482 5.685v8c0 2.922-.452 4.655-1.482 5.684-1.03 1.03-2.762 1.482-5.684 1.482Z" fill="#8C95AF" stroke="currentColor"/><path d="M26.667 9.007c-.27 0-.5-.23-.5-.5v-1.84c0-1.11-.234-2.02-.857-2.644-.623-.623-1.534-.856-2.643-.856h-12c-.27 0-.5-.23-.5-.5s.23-.5.5-.5h12c1.524 0 2.63.417 3.356 1.143s1.144 1.832 1.144 3.357v1.84c0 .27-.23.5-.5.5Z" fill="#8C95AF" stroke="currentColor"/></symbol><symbol fill="none" viewBox="0 0 32 32" id="home" xmlns="http://www.w3.org/2000/svg"><path d="m5.146 9.792 7.186-5.6c.83-.646 1.93-.967 3.012-.99 1.082-.024 2.199.249 3.063.855L5.146 9.792Zm0 0-.002.002c-.55.434-1.038 1.113-1.388 1.822-.349.708-.59 1.509-.59 2.21v9.88c0 2.822 2.29 5.127 5.114 5.127h15.44a5.115 5.115 0 0 0 5.113-5.113v-9.707c0-.745-.263-1.589-.648-2.328-.385-.737-.925-1.434-1.54-1.856l-8.238-5.772L5.146 9.792Zm-.612-.784 7.186-5.6c1.986-1.545 5.199-1.62 7.26-.172l8.24 5.774c.713.497 1.371 1.298 1.852 2.218.48.92.761 1.918.761 2.785v9.707a6.12 6.12 0 0 1-6.113 6.113H8.28c-3.376 0-6.113-2.748-6.113-6.126v-9.88c0-.812.253-1.76.688-2.646.436-.887 1.032-1.67 1.679-2.173Z" fill="#191919" stroke="currentColor"/><path d="M16 24.5c-.27 0-.5-.23-.5-.5v-4c0-.27.23-.5.5-.5s.5.23.5.5v4c0 .27-.23.5-.5.5Z" fill="#191919" stroke="currentColor"/></symbol><symbol fill="none" viewBox="0 0 136 31" id="logo" xmlns="http://www.w3.org/2000/svg"><path d="M8.165 6.353c2.361 0 4.089.637 5.18 1.914 1.09 1.274 1.636 3.555 1.636 6.835s-.63 5.553-1.89 6.806c-1.258 1.253-3.43 1.879-6.51 1.879-.966 0-2.733-.11-5.295-.332l-1.283-.133V.098h4.521V7.25c1.44-.598 2.653-.897 3.644-.897h-.003ZM6.58 19.796c1.508 0 2.517-.362 3.037-1.082.517-.72.775-2.012.775-3.875 0-2.996-.946-4.492-2.833-4.492-.901 0-1.754.11-2.565.332l-.472.1v8.883c1.034.09 1.721.134 2.058.134ZM27.502 6.753h4.521V23.39h-4.485v-.93c-1.619.885-3.025 1.33-4.217 1.33-2.34 0-3.915-.637-4.723-1.915-.81-1.273-1.213-3.41-1.213-6.405V6.753h4.52v8.785c0 1.641.136 2.761.406 3.36.27.598.922.898 1.956.898a8.13 8.13 0 0 0 2.8-.466l.438-.133V6.753h-.003ZM44.547 6.753h4.522V23.39h-4.486v-.93c-1.619.885-3.025 1.33-4.217 1.33-2.34 0-3.914-.637-4.723-1.915-.81-1.273-1.213-3.41-1.213-6.405V6.753h4.52v8.785c0 1.641.136 2.761.406 3.36.27.598.923.898 1.956.898.988 0 1.923-.154 2.8-.466l.438-.133V6.753h-.002ZM70.722 23.345c-1.505.335-2.659.5-3.44.5-2.024 0-3.41-.447-4.154-1.344-.74-.901-1.109-2.56-1.109-4.978v-7.437h-1.712c-2.32 0-4.308 1.698-4.308 3.997v9.366h-4.53V6.812h4.488v1.763c2.145-1.725 4.065-1.408 6.062-1.44V2.184h4.518v4.628h4.149v3.79h-4.149v6.823c0 .667.015 1.135.054 1.413.033.282.154.516.37.72.21.199.544.297.994.297l2.563-.068.207 3.558h-.003Z" fill="#191919"/><path d="M79.665 23.727c-.49 0-1.04-.065-1.652-.195-.613-.13-1.208-.29-1.785-.486a13.3 13.3 0 0 1-1.535-.616l.835-.81v8.685h-2.403V10.018c0-.67.216-1.21.652-1.621.433-.412.995-.729 1.685-.957a11.573 11.573 0 0 1 2.202-.486 17.715 17.715 0 0 1 2.202-.145c1.334 0 2.593.27 3.773.809 1.178.539 2.136 1.455 2.872 2.737.733 1.286 1.103 3.032 1.103 5.236 0 1.665-.306 3.105-.916 4.326a6.508 6.508 0 0 1-2.686 2.82c-1.18.659-2.626.99-4.338.99h-.009Zm-.063-2.204c1.205 0 2.196-.255 2.974-.762.778-.506 1.364-1.214 1.758-2.121.393-.907.591-1.944.591-3.111 0-1.168-.132-2.258-.393-3.274-.262-1.017-.766-1.831-1.511-2.448-.745-.616-1.83-.924-3.254-.924-1.138 0-2.13.13-2.974.388-.844.258-1.265.628-1.265 1.102v10.015a8.679 8.679 0 0 0 2.037.86 7.768 7.768 0 0 0 2.037.275ZM92.417 23.407h-2.403V1.185h2.403v22.222ZM104.71 23.514c1.109-.172 2.007-.54 2.698-1.105.691-.563 1.036-1.416 1.036-2.566v-7.84c0-.693-.093-1.316-.279-1.867a4.712 4.712 0 0 0-.79-1.46 4.255 4.255 0 0 0-1.235-1.04 6.18 6.18 0 0 0-1.646-.617 9.09 9.09 0 0 0-2.01-.21 17.18 17.18 0 0 0-3.325.34c-1.142.226-2.052.558-2.731.99v2.335c.703-.54 1.541-.936 2.517-1.185a11.277 11.277 0 0 1 2.782-.373c1.382 0 2.448.293 3.193.877.745.583 1.121 1.505 1.121 2.758v7.422c0 .735-.367 1.206-1.103 1.414-.736.207-1.817.308-3.241.308a7.765 7.765 0 0 1-2.124-.294c-.69-.195-1.262-.53-1.712-1.007-.45-.477-.676-1.114-.676-1.914 0-.996.372-1.754 1.12-2.273.745-.518 1.812-.779 3.194-.779 1.141 0 2.187.136 3.142.406.955.27 1.682.59 1.727.957l.46-2.142c-.877-.26-1.343-.492-1.86-.7a8.624 8.624 0 0 0-1.76-.47 14.797 14.797 0 0 0-2.337-.163c-1.184 0-2.232.177-3.142.536a4.35 4.35 0 0 0-2.14 1.754c-.516.812-.774 1.89-.774 3.23 0 .974.192 1.78.576 2.417.385.64.89 1.141 1.514 1.508a6.62 6.62 0 0 0 2.04.78c.736.15 1.466.228 2.19.228 1.274 0 2.464-.086 3.572-.26l.003.005ZM110.85 8.53a17.043 17.043 0 0 1 1.638-.696 13.338 13.338 0 0 1 1.718-.5 16.018 16.018 0 0 1 1.784-.291 17.154 17.154 0 0 1 1.836-.098c1.607 0 2.887.234 3.833.696.946.466 1.637 1.141 2.067 2.027.429.886.646 1.956.646 3.209V23.41h-2.403V12.877c0-.388-.049-.8-.148-1.233a3.524 3.524 0 0 0-.573-1.247c-.286-.4-.724-.723-1.316-.972-.592-.249-1.382-.373-2.367-.373-.679 0-1.382.053-2.106.163-.724.11-1.457.27-2.202.486v13.71h-2.404V8.53h-.003ZM135.484 9.212V7.135c-4.855 0-6.861.252-7.967 1.588-.505.61-.745 1.395-.745 2.184v12.497h2.403V13.037c.024-2.569.135-3.976 6.309-3.828v.003Z" fill="#3457BF"/></symbol><symbol fill="none" viewBox="0 0 32 32" id="notification" xmlns="http://www.w3.org/2000/svg"><path d="m4.99 23.522-.002-.005c-.327-.868-.223-1.842.32-2.738v-.001l1.534-2.547c.193-.322.36-.77.48-1.203.12-.434.205-.905.205-1.281v-3.854c0-4.684 3.816-8.5 8.5-8.5 4.683 0 8.5 3.816 8.5 8.5v3.854c0 .37.085.84.204 1.276.12.436.286.89.477 1.216l.003.005 1.52 2.532v.001a3.19 3.19 0 0 1 .253 2.744 3.127 3.127 0 0 1-1.967 1.897l-.003.001a28.258 28.258 0 0 1-8.987 1.454c-3.054 0-6.106-.485-9-1.453-.995-.344-1.722-1.03-2.037-1.898Zm1.182-2.233-.002.002c-.346.583-.48 1.263-.239 1.884.226.63.767 1.064 1.414 1.285h.003a27.166 27.166 0 0 0 17.37.001 2.128 2.128 0 0 0 1.339-1.304 2.16 2.16 0 0 0-.175-1.868l-.001-.002-1.53-2.542c-.463-.792-.824-2.13-.824-3.012v-3.84a7.5 7.5 0 1 0-15 0v3.854c0 .88-.375 2.232-.823 2.997L6.172 21.29Z" fill="#191919" stroke="currentColor"/><path d="m18.364 4.733-.004-.002a9.891 9.891 0 0 0-1.18-.252l-.01-.002a8.296 8.296 0 0 0-3.46.257l-.01.003a.482.482 0 0 1-.503-.14.49.49 0 0 1-.094-.515l.003-.007a3.132 3.132 0 0 1 2.934-2.002c1.314 0 2.46.78 2.932 1.997a.517.517 0 0 1-.087.525.531.531 0 0 1-.521.138ZM16.027 29.913c-1.187 0-2.34-.48-3.18-1.32a4.526 4.526 0 0 1-1.292-2.68h1.008c.109.74.456 1.44.99 1.974a3.52 3.52 0 0 0 2.474 1.026c1.76 0 3.22-1.306 3.464-3h1.008a4.503 4.503 0 0 1-4.472 4Z" fill="#191919" stroke="currentColor"/></symbol><symbol fill="none" viewBox="0 0 32 32" id="profile-user" xmlns="http://www.w3.org/2000/svg"><path d="m11.795 13.993.05.002.05-.008h.001c.006-.001.037-.004.095-.004.061 0 .135.003.21.009l.03.002.031-.001c2.882-.132 5.143-2.5 5.157-5.404v-.002A5.434 5.434 0 0 0 12 3.167a5.434 5.434 0 0 0-5.42 5.42 5.385 5.385 0 0 0 5.216 5.406Zm.418 1H12.145a1.246 1.246 0 0 0-.306 0c-3.579-.133-6.26-2.946-6.26-6.406 0-3.537 2.882-6.42 6.42-6.42 3.536 0 6.419 2.882 6.42 6.419-.013 3.477-2.732 6.292-6.175 6.407H12.212Z" fill="#8C95AF" stroke="currentColor"/><path d="M22.083 15.167H22.053l-.064-.022-.106.01c-.323.032-.592-.207-.614-.43-.03-.32.152-.529.382-.561.133-.01.281-.01.427-.01h.014l.014-.002a4.162 4.162 0 0 0 3.94-4.165 4.165 4.165 0 0 0-4.168-4.167h-.012a.487.487 0 0 1-.488-.487c0-.27.23-.5.5-.5A5.179 5.179 0 0 1 27.047 10a5.154 5.154 0 0 1-4.963 5.167Z" fill="currentColor" stroke="currentColor"/><path d="m5.278 27.651-.003-.001c-1.747-1.157-2.642-2.695-2.642-4.317 0-1.623.896-3.174 2.644-4.344 1.901-1.26 4.42-1.906 6.96-1.906s5.05.646 6.938 1.906c1.737 1.158 2.645 2.697 2.645 4.318 0 1.623-.897 3.174-2.645 4.344-1.902 1.268-4.413 1.916-6.949 1.916-2.537 0-5.06-.65-6.948-1.916Zm.55-7.814c-1.367.912-2.195 2.143-2.195 3.51 0 1.356.844 2.585 2.196 3.482 1.76 1.181 4.094 1.754 6.397 1.754s4.637-.573 6.398-1.754c1.368-.912 2.196-2.142 2.196-3.51 0-1.356-.845-2.585-2.197-3.482-1.761-1.174-4.094-1.744-6.397-1.744s-4.636.57-6.397 1.744ZM23.97 26.771a.514.514 0 0 1 .389-.602c.898-.186 1.742-.546 2.411-1.065.848-.64 1.37-1.495 1.37-2.45 0-.955-.521-1.81-1.358-2.439-.656-.506-1.459-.85-2.377-1.062h-.002a.508.508 0 0 1-.382-.604.508.508 0 0 1 .604-.38c1.084.239 2.015.664 2.763 1.24l.004.004c1.132.852 1.748 2.031 1.748 3.24 0 1.206-.627 2.388-1.764 3.256l-.003.002c-.76.59-1.727 1.026-2.804 1.238l-.03.007-.03.01h-.056a.484.484 0 0 1-.483-.395Zm.323-7.131a1.008 1.008 0 0 1-.76-1.2c.12-.533.653-.88 1.2-.76l-.44 1.96Z" fill="#8C95AF" stroke="currentColor"/></symbol><symbol fill="none" viewBox="0 0 28 28" id="save" xmlns="http://www.w3.org/2000/svg"><path d="M.007 13.995c0-3.308-.02-6.617.008-9.925C.029 2.396.838 1.167 2.334.405 2.94.096 3.607.007 4.279.007 9.203 0 14.127.01 19.05 0c1.306-.003 2.398.428 3.315 1.37 1.429 1.467 2.888 2.905 4.343 4.346.867.858 1.296 1.875 1.293 3.1-.012 5.014-.004 10.026-.005 15.04 0 2.38-1.765 4.142-4.153 4.142-6.563.002-13.124.002-19.687 0-2.387 0-4.146-1.761-4.147-4.148-.002-3.285 0-6.57 0-9.855H.007Zm2.03 0v9.878c0 .592.134 1.134.582 1.564.455.436 1.017.536 1.612.537h16.075c1.172 0 2.345.003 3.517-.001.643-.002 1.23-.15 1.675-.662.358-.412.463-.903.463-1.425.003-2.37.002-4.741.002-7.112V8.826c0-.594-.14-1.133-.578-1.568-1.555-1.549-3.107-3.1-4.662-4.65a1.803 1.803 0 0 0-.543-.356c-.104-.047-.164-.024-.162.101.002.07 0 .14 0 .21l-.001 5.322c-.001.866-.324 1.55-1.134 1.952-.374.185-.78.2-1.182.202-3.758.003-7.517.003-11.275 0-.232 0-.467-.006-.697-.036-.677-.087-1.184-.426-1.508-1.034-.2-.376-.236-.784-.237-1.195-.005-1.782-.002-3.563-.002-5.346 0-.078 0-.155-.004-.232-.004-.097-.058-.138-.153-.127-.393.041-.76.145-1.073.402-.52.427-.715.995-.715 1.646V13.996Zm9.968-11.937H6.367c-.326 0-.328 0-.328.315v5.299c0 .313 0 .314.304.314h11.3c.318 0 .32 0 .32-.326V2.384c0-.326-.002-.326-.32-.326h-5.638Z" fill="currentColor"/><path d="M19.002 17.963C19 20.576 16.98 23 13.998 23.02c-2.742.02-4.99-2.256-5-5.036-.008-2.336 1.807-5.019 5.05-5.005 3.083.012 4.954 2.613 4.954 4.984Zm-4.995 3.005c1.663.025 2.947-1.273 2.954-2.995.007-1.588-1.224-2.961-2.968-2.962-1.778 0-2.966 1.463-2.956 2.956.011 1.7 1.261 3.03 2.97 3.002Z" fill="currentColor"/></symbol><symbol fill="none" viewBox="0 0 24 24" id="security-user" xmlns="http://www.w3.org/2000/svg"><path d="M12 22.76c-1.09 0-2.17-.32-3.02-.95l-4.3-3.21c-1.14-.85-2.03-2.62-2.03-4.04V7.13c0-1.54 1.13-3.18 2.58-3.72l4.99-1.87c.99-.37 2.55-.37 3.54 0l5 1.87c1.45.54 2.58 2.18 2.58 3.72v7.43c0 1.42-.89 3.19-2.03 4.04l-4.3 3.21c-.84.63-1.92.95-3.01.95ZM10.75 2.94 5.76 4.81c-.86.32-1.61 1.4-1.61 2.32v7.43c0 .95.67 2.28 1.42 2.84l4.3 3.21c1.15.86 3.1.86 4.25 0l4.3-3.21c.76-.57 1.42-1.9 1.42-2.84V7.13c0-.91-.75-1.99-1.61-2.32l-4.99-1.87c-.66-.25-1.82-.25-2.49 0Z" fill="currentColor"/><path d="M12 11.67h-.07c-1.45-.04-2.51-1.15-2.51-2.5 0-1.38 1.13-2.51 2.51-2.51s2.51 1.13 2.51 2.51a2.514 2.514 0 0 1-2.42 2.51c-.01-.01-.01-.01-.02-.01Zm-.07-3.51c-.56 0-1.01.45-1.01 1.01 0 .55.43.99.97 1.01H12a1 1 0 0 0 .94-1.01 1 1 0 0 0-1.01-1.01ZM12 17.35c-.86 0-1.73-.23-2.4-.68-.67-.44-1.05-1.09-1.05-1.78s.38-1.34 1.05-1.79c1.35-.9 3.46-.89 4.8 0 .67.44 1.05 1.09 1.05 1.78s-.38 1.34-1.05 1.79c-.67.45-1.54.68-2.4.68Zm-1.57-3.01c-.25.16-.39.36-.38.54 0 .18.14.38.38.54.84.56 2.3.56 3.14 0 .25-.16.39-.36.39-.54 0-.18-.14-.38-.38-.54-.84-.55-2.31-.55-3.15 0Z" fill="currentColor"/></symbol><symbol fill="none" viewBox="0 0 32 32" id="setting" xmlns="http://www.w3.org/2000/svg"><path d="M16 20.5a4.502 4.502 0 0 1-4.5-4.5c0-2.484 2.016-4.5 4.5-4.5s4.5 2.016 4.5 4.5-2.016 4.5-4.5 4.5Zm0-8c-1.93 0-3.5 1.57-3.5 3.5s1.57 3.5 3.5 3.5 3.5-1.57 3.5-3.5-1.57-3.5-3.5-3.5Z" fill="#8C95AF" stroke="currentColor"/><path d="M18.62 26.97c-.7-1.215-1.663-1.817-2.62-1.817-.955 0-1.92.613-2.62 1.818h-.001l-.146.253-.004.006-.004.006c-.232.376-.6.68-1.061.795a1.68 1.68 0 0 1-1.3-.188l-2.299-1.316-.007-.004-.007-.004a2.06 2.06 0 0 1-.927-1.23 2.024 2.024 0 0 1 .196-1.539l.001-.001c.698-1.2.739-2.352.265-3.181-.471-.825-1.485-1.361-2.886-1.361a2.034 2.034 0 0 1-2.033-2.034v-2.346c0-1.13.904-2.034 2.033-2.034 1.401 0 2.415-.536 2.886-1.361.474-.83.433-1.98-.265-3.18V8.25a2.042 2.042 0 0 1 .757-2.776L10.88 4.14a1.724 1.724 0 0 1 2.334.603l.005.008.004.007.144.262c.7 1.212 1.662 1.812 2.618 1.812.957 0 1.92-.601 2.62-1.816l.147-.254.002-.004c.482-.816 1.545-1.108 2.364-.617l2.302 1.317.007.004.006.004c.448.276.786.698.928 1.23.14.525.071 1.075-.197 1.54v.001c-.698 1.2-.74 2.351-.265 3.18.471.825 1.485 1.362 2.886 1.362 1.132 0 2.033.92 2.033 2.033v2.347c0 1.13-.904 2.033-2.033 2.033-1.401 0-2.415.537-2.886 1.362-.474.829-.433 1.98.265 3.18v.002a2.043 2.043 0 0 1-.756 2.776l-4.79.458Zm0 0 .146.251v.002c.23.4.611.683 1.06.795.434.109.89.06 1.28-.174l2.304-1.33-4.79.457Zm-6.185 2.026-.005.001c-.71.192-1.437.09-2.053-.28l-.008-.004-2.293-1.32a3.04 3.04 0 0 1-1.122-4.144v-.002c.214-.375.364-.755.423-1.117.058-.36.032-.738-.159-1.063-.367-.625-1.183-.86-2.018-.86a3.04 3.04 0 0 1-3.033-3.034v-2.346A3.04 3.04 0 0 1 5.2 11.793c.835 0 1.651-.235 2.018-.86.37-.632.157-1.465-.266-2.184a3.049 3.049 0 0 1-.295-2.301v-.002A2.94 2.94 0 0 1 8.072 4.61l.003-.002 2.307-1.32.006-.004c1.264-.749 2.946-.316 3.715.985l.002.003.158.263c.429.74 1.027 1.266 1.757 1.266.731 0 1.33-.528 1.76-1.27l.145-.25v-.002c.77-1.31 2.449-1.744 3.726-.982l.006.004 2.294 1.32a3.04 3.04 0 0 1 1.122 4.144l-.001.002c-.213.376-.363.756-.422 1.117-.059.36-.032.738.159 1.063.366.626 1.183.86 2.018.86a3.04 3.04 0 0 1 3.033 3.034v2.347a3.04 3.04 0 0 1-3.033 3.033c-.835 0-1.652.235-2.018.86-.37.632-.157 1.465.265 2.184.402.701.513 1.523.298 2.295l-.003.008a2.94 2.94 0 0 1-1.415 1.838l-.002.001-2.304 1.318c-.436.24-.898.363-1.368.363-.23 0-.468-.033-.716-.091a2.774 2.774 0 0 1-1.655-1.253l-.158-.264c-.43-.74-1.028-1.266-1.758-1.266s-1.33.528-1.76 1.27l-.144.25v.001a2.697 2.697 0 0 1-1.654 1.262Z" fill="#8C95AF" stroke="currentColor"/></symbol><symbol fill="none" viewBox="0 0 32 32" id="trash" xmlns="http://www.w3.org/2000/svg"><path d="m3.942 7.471 2.72-.267h.002c7.048-.715 14.198-.438 21.38.267a.501.501 0 0 1 .445.547v.01a.488.488 0 0 1-.489.445H27.918C20.854 7.767 13.786 7.5 6.776 8.21l-2.718.267a.507.507 0 0 1-.561-.457.494.494 0 0 1 .444-.548Z" fill="currentColor" stroke="currentColor"/><path d="m11.258 7.123-.012-.002a.504.504 0 0 1-.407-.568V6.55l.294-1.747c.11-.661.225-1.29.617-1.775.365-.45 1.049-.861 2.503-.861h3.494c1.456 0 2.143.424 2.51.884.395.496.506 1.13.61 1.763v.003l.293 1.733a.49.49 0 0 1-.394.569l-.01.001a.49.49 0 0 1-.568-.394l-.002-.01-.293-1.73-.002-.015c-.044-.274-.085-.532-.146-.746-.063-.225-.162-.459-.359-.647-.199-.191-.445-.286-.706-.335a5.065 5.065 0 0 0-.92-.063h-3.493c-.357 0-.66.011-.912.055-.256.046-.503.133-.705.322-.2.186-.298.42-.362.644a7.153 7.153 0 0 0-.154.767L11.828 6.7l-.002.007a.5.5 0 0 1-.568.416ZM6.366 12.221v-.004a.51.51 0 0 1 .464-.531c.29-.01.517.2.538.469l.866 13.424v.004l.002.026c.036.487.068.938.143 1.323.077.398.208.779.478 1.093.543.634 1.48.808 2.863.808h8.56c1.389 0 2.33-.173 2.873-.808.27-.315.4-.697.476-1.095.073-.388.103-.843.135-1.333l.002-.018.866-13.423v-.001a.519.519 0 0 1 .537-.47c.28.024.485.261.465.533v.003l-.866 13.424v.001c-.076 1.07-.161 2.081-.711 2.85-.518.722-1.54 1.337-3.777 1.337h-8.56c-2.238 0-3.26-.615-3.777-1.337-.55-.769-.635-1.78-.71-2.85l-.001-.001-.866-13.424Z" fill="currentColor" stroke="currentColor"/><path d="M18.213 22.5h-4.44c-.27 0-.5-.23-.5-.5s.23-.5.5-.5h4.44c.27 0 .5.23.5.5s-.23.5-.5.5ZM19.333 17.167h-6.666c-.27 0-.5-.23-.5-.5s.23-.5.5-.5h6.666c.27 0 .5.23.5.5s-.23.5-.5.5Z" fill="currentColor" stroke="currentColor"/></symbol><symbol fill="none" viewBox="0 0 32 32" id="trend-up" xmlns="http://www.w3.org/2000/svg"><path d="M16.74 18.62a.489.489 0 0 1-.766-.073l-1.45-2.184-.339-.508-.432.431-3.4 3.4a.489.489 0 0 1-.353.147.49.49 0 0 1-.353-.147.506.506 0 0 1 0-.706l4.267-4.267a.489.489 0 0 1 .765.074l1.451 2.183.338.509.432-.432 4.734-4.734a.506.506 0 0 1 .706 0 .506.506 0 0 1 0 .707l-5.6 5.6Z" fill="currentColor" stroke="currentColor"/><path d="M21.5 13.667v-.5h-2.167c-.27 0-.5-.23-.5-.5s.23-.5.5-.5H22c.27 0 .5.23.5.5v2.666c0 .27-.23.5-.5.5s-.5-.23-.5-.5v-1.666Z" fill="currentColor" stroke="currentColor"/><path d="M20 29.833h-8c-3.563 0-5.986-.763-7.528-2.305C2.93 25.986 2.167 23.563 2.167 20v-8c0-3.563.763-5.986 2.305-7.528C6.014 2.93 8.437 2.167 12 2.167h8c3.563 0 5.986.763 7.528 2.305C29.07 6.014 29.833 8.437 29.833 12v8c0 3.563-.763 5.986-2.305 7.528-1.542 1.542-3.965 2.305-7.528 2.305ZM12 3.167c-3.109 0-5.365.547-6.825 2.008C3.715 6.635 3.167 8.89 3.167 12v8c0 3.109.547 5.365 2.008 6.825 1.46 1.46 3.716 2.008 6.825 2.008h8c3.109 0 5.365-.547 6.825-2.008 1.46-1.46 2.008-3.716 2.008-6.825v-8c0-3.109-.547-5.365-2.008-6.825-1.46-1.46-3.716-2.008-6.825-2.008h-8Z" fill="currentColor" stroke="currentColor"/></symbol></svg>