<?xml version="1.0" encoding="utf-8"?><svg xmlns="http://www.w3.org/2000/svg" xmlns:xlink="http://www.w3.org/1999/xlink"><symbol fill="none" viewBox="0 0 24 24" id="adjust" xmlns="http://www.w3.org/2000/svg"><path d="M15 22.75H9c-5.43 0-7.75-2.32-7.75-7.75V9c0-5.43 2.32-7.75 7.75-7.75h6c5.43 0 7.75 2.32 7.75 7.75v6c0 5.43-2.32 7.75-7.75 7.75Zm-6-20C4.39 2.75 2.75 4.39 2.75 9v6c0 4.61 1.64 6.25 6.25 6.25h6c4.61 0 6.25-1.64 6.25-6.25V9c0-4.61-1.64-6.25-6.25-6.25H9Z" fill="currentColor"/><path d="M15.58 19.25c-.41 0-.75-.34-.75-.75v-3.9c0-.41.34-.75.75-.75s.75.34.75.75v3.9c0 .41-.34.75-.75.75ZM15.58 8.2c-.41 0-.75-.34-.75-.75V5.5c0-.41.34-.75.75-.75s.75.34.75.75v1.95c0 .41-.34.75-.75.75Z" fill="currentColor"/><path d="M15.58 13.4a3.35 3.35 0 1 1 3.35-3.35c0 1.85-1.51 3.35-3.35 3.35Zm0-5.2c-1.02 0-1.85.83-1.85 1.85s.83 1.85 1.85 1.85 1.85-.83 1.85-1.85-.84-1.85-1.85-1.85ZM8.42 19.25c-.41 0-.75-.34-.75-.75v-1.95c0-.41.34-.75.75-.75s.75.34.75.75v1.95c0 .41-.33.75-.75.75ZM8.42 10.15c-.41 0-.75-.34-.75-.75V5.5c0-.41.34-.75.75-.75s.75.34.75.75v3.9c0 .41-.33.75-.75.75Z" fill="currentColor"/><path d="M8.42 17.3a3.35 3.35 0 1 1 0-6.7 3.35 3.35 0 0 1 0 6.7Zm0-5.2c-1.02 0-1.85.83-1.85 1.85s.83 1.85 1.85 1.85 1.85-.83 1.85-1.85-.82-1.85-1.85-1.85Z" fill="currentColor"/></symbol><symbol fill="none" viewBox="0 0 48 48" id="arrow-down" xmlns="http://www.w3.org/2000/svg"><path d="M24 33.1a4.952 4.952 0 0 1-3.506-1.454l-13.04-13.04a1.009 1.009 0 0 1 0-1.412 1.009 1.009 0 0 1 1.412 0l13.04 13.04a2.963 2.963 0 0 0 4.188 0l13.04-13.04a1.009 1.009 0 0 1 1.413 0 1.009 1.009 0 0 1 0 1.412l-13.04 13.04A4.953 4.953 0 0 1 24 33.1Z" fill="#191919" stroke="#191919"/></symbol><symbol fill="none" viewBox="0 0 24 24" id="arrow-left" xmlns="http://www.w3.org/2000/svg"><path d="M9.57 18.82c-.19 0-.38-.07-.53-.22l-6.07-6.07a.754.754 0 0 1 0-1.06L9.04 5.4c.29-.29.77-.29 1.06 0 .29.29.29.77 0 1.06L4.56 12l5.54 5.54c.29.29.29.77 0 1.06-.14.15-.34.22-.53.22Z" fill="currentColor"/><path d="M20.5 12.75H3.67c-.41 0-.75-.34-.75-.75s.34-.75.75-.75H20.5c.41 0 .75.34.75.75s-.34.75-.75.75Z" fill="currentColor"/></symbol><symbol fill="none" viewBox="0 0 24 24" id="arrow-right" xmlns="http://www.w3.org/2000/svg"><path d="M14.43 18.82c-.19 0-.38-.07-.53-.22a.754.754 0 0 1 0-1.06L19.44 12 13.9 6.46a.754.754 0 0 1 0-1.06c.29-.29.77-.29 1.06 0l6.07 6.07c.29.29.29.77 0 1.06l-6.07 6.07c-.15.15-.34.22-.53.22Z" fill="currentColor"/><path d="M20.33 12.75H3.5c-.41 0-.75-.34-.75-.75s.34-.75.75-.75h16.83c.41 0 .75.34.75.75s-.34.75-.75.75Z" fill="currentColor"/></symbol><symbol fill="none" viewBox="0 0 14 14" id="builder" xmlns="http://www.w3.org/2000/svg"><path d="M12.13 5.503v-.109A5.088 5.088 0 0 0 8.551.517h-.039a5.325 5.325 0 0 0-1.657-.23 5.254 5.254 0 0 0-4.967 5.216 1.92 1.92 0 0 0 0 3.622 5.12 5.12 0 0 0 5.12 4.59h.148a5.203 5.203 0 0 0 4.915-4.583 1.92 1.92 0 0 0 .057-3.63Zm-5.005 6.931a3.84 3.84 0 0 1-3.898-3.2h7.533a3.897 3.897 0 0 1-3.635 3.2Zm4.364-4.48H2.53a.64.64 0 0 1 0-1.28h1.28a.64.64 0 1 0 0-1.28h-.64a4.096 4.096 0 0 1 1.92-3.296v2.016a.64.64 0 1 0 1.28 0V1.612c.174-.03.35-.049.525-.058h.115c.215.003.429.022.64.058v2.502a.64.64 0 1 0 1.28 0V2.08c.272.157.525.344.756.557a3.84 3.84 0 0 1 1.164 2.758h-.64a.64.64 0 0 0 0 1.28h1.28a.64.64 0 1 1 0 1.28Z" fill="currentColor"/></symbol><symbol fill="none" viewBox="0 0 35 35" id="chevron-down" xmlns="http://www.w3.org/2000/svg"><path d="m25 14-7 7-7-7" stroke="currentColor" stroke-width="2" stroke-linecap="round" stroke-linejoin="round"/></symbol><symbol fill="none" viewBox="0 0 24 24" id="eye" xmlns="http://www.w3.org/2000/svg"><path d="M12 16.33c-2.39 0-4.33-1.94-4.33-4.33S9.61 7.67 12 7.67s4.33 1.94 4.33 4.33-1.94 4.33-4.33 4.33Zm0-7.16c-1.56 0-2.83 1.27-2.83 2.83s1.27 2.83 2.83 2.83 2.83-1.27 2.83-2.83S13.56 9.17 12 9.17Z" fill="currentColor"/><path d="M12 21.02c-3.76 0-7.31-2.2-9.75-6.02-1.06-1.65-1.06-4.34 0-6 2.45-3.82 6-6.02 9.75-6.02s7.3 2.2 9.74 6.02c1.06 1.65 1.06 4.34 0 6-2.44 3.82-5.99 6.02-9.74 6.02Zm0-16.54c-3.23 0-6.32 1.94-8.48 5.33-.75 1.17-.75 3.21 0 4.38 2.16 3.39 5.25 5.33 8.48 5.33 3.23 0 6.32-1.94 8.48-5.33.75-1.17.75-3.21 0-4.38-2.16-3.39-5.25-5.33-8.48-5.33Z" fill="currentColor"/></symbol><symbol fill="none" viewBox="0 0 24 24" id="folder" xmlns="http://www.w3.org/2000/svg"><path d="M17 22.75H7c-4.41 0-5.75-1.34-5.75-5.75V7c0-4.41 1.34-5.75 5.75-5.75h1.5c1.75 0 2.3.57 3 1.5l1.5 2c.33.44.38.5 1 .5h3c4.41 0 5.75 1.34 5.75 5.75v6c0 4.41-1.34 5.75-5.75 5.75Zm-10-20c-3.58 0-4.25.68-4.25 4.25v10c0 3.57.67 4.25 4.25 4.25h10c3.58 0 4.25-.68 4.25-4.25v-6c0-3.57-.67-4.25-4.25-4.25h-3c-1.28 0-1.7-.44-2.2-1.1l-1.5-2c-.52-.69-.68-.9-1.8-.9H7Z" fill="currentColor"/><path d="M20 7.13c-.41 0-.75-.34-.75-.75V5c0-1.58-.67-2.25-2.25-2.25H8c-.41 0-.75-.34-.75-.75s.34-.75.75-.75h9c2.42 0 3.75 1.33 3.75 3.75v1.38c0 .41-.34.75-.75.75Z" fill="currentColor"/></symbol><symbol fill="none" viewBox="0 0 14 14" id="furniture" xmlns="http://www.w3.org/2000/svg"><path d="M13.333 4.667 6.667 0 0 4.667h6v8.666h1.333V4.667h6Zm-6.666-3.04 2.44 1.706h-4.88l2.44-1.706Z" fill="currentColor"/><path d="M1.427 6.667.12 6.913l.547 2.914v3.506H2l.013-2.666h1.32v2.666h1.334v-4H1.933l-.506-2.666ZM11.4 9.333H8.667v4H10v-2.666h1.32l.013 2.666h1.334V9.827l.546-2.914-1.306-.246-.507 2.666Z" fill="currentColor"/></symbol><symbol fill="none" viewBox="0 0 24 24" id="gps" xmlns="http://www.w3.org/2000/svg"><path d="M12 20.25c-4.55 0-8.25-3.7-8.25-8.25S7.45 3.75 12 3.75s8.25 3.7 8.25 8.25-3.7 8.25-8.25 8.25Zm0-15c-3.72 0-6.75 3.03-6.75 6.75s3.03 6.75 6.75 6.75 6.75-3.03 6.75-6.75S15.72 5.25 12 5.25Z" fill="currentColor"/><path d="M12 15.75c-2.07 0-3.75-1.68-3.75-3.75 0-2.07 1.68-3.75 3.75-3.75 2.07 0 3.75 1.68 3.75 3.75 0 2.07-1.68 3.75-3.75 3.75Zm0-6c-1.24 0-2.25 1.01-2.25 2.25s1.01 2.25 2.25 2.25 2.25-1.01 2.25-2.25S13.24 9.75 12 9.75ZM12 4.75c-.41 0-.75-.34-.75-.75V2c0-.41.34-.75.75-.75s.75.34.75.75v2c0 .41-.34.75-.75.75ZM4 12.75H2c-.41 0-.75-.34-.75-.75s.34-.75.75-.75h2c.41 0 .75.34.75.75s-.34.75-.75.75ZM12 22.75c-.41 0-.75-.34-.75-.75v-2c0-.41.34-.75.75-.75s.75.34.75.75v2c0 .41-.34.75-.75.75ZM22 12.75h-2c-.41 0-.75-.34-.75-.75s.34-.75.75-.75h2c.41 0 .75.34.75.75s-.34.75-.75.75Z" fill="currentColor"/></symbol><symbol fill="none" viewBox="0 0 14 12" id="ground" xmlns="http://www.w3.org/2000/svg"><path d="M7 11.333H.333V10h3.833A5.354 5.354 0 0 0 .333 6.173 5.494 5.494 0 0 1 1.666 6 5.332 5.332 0 0 1 7 11.333Zm6.666-5.16A5.494 5.494 0 0 0 12.333 6a5.332 5.332 0 0 0-4.587 2.62 6.547 6.547 0 0 1 .58 2.713h5.334V10H9.826a5.374 5.374 0 0 1 3.84-3.827Zm-4.24-.826a6.686 6.686 0 0 1 2.727-3.334A5.324 5.324 0 0 0 7 7.333v.014a6.673 6.673 0 0 1 2.426-2ZM6.613 3.9A5.685 5.685 0 0 0 3.466.667 7.274 7.274 0 0 1 5 5.14c0 .14-.02.273-.027.407.287.16.553.346.813.546.14-.786.434-1.526.827-2.193Z" fill="currentColor"/></symbol><symbol fill="none" viewBox="0 0 24 24" id="home" xmlns="http://www.w3.org/2000/svg"><path d="M12 18.75c-.41 0-.75-.34-.75-.75v-3c0-.41.34-.75.75-.75s.75.34.75.75v3c0 .41-.34.75-.75.75Z" fill="currentColor"/><path d="M17.6 22.56H6.4c-1.82 0-3.48-1.4-3.78-3.19L1.29 11.4c-.22-1.24.39-2.83 1.38-3.62L9.6 2.23c1.34-1.08 3.45-1.07 4.8.01l6.93 5.54c.98.79 1.58 2.38 1.38 3.62l-1.33 7.96c-.3 1.77-2 3.2-3.78 3.2ZM11.99 2.93c-.53 0-1.06.16-1.45.47L3.61 8.96c-.56.45-.96 1.49-.84 2.2l1.33 7.96c.18 1.05 1.23 1.94 2.3 1.94h11.2c1.07 0 2.12-.89 2.3-1.95l1.33-7.96c.11-.7-.29-1.76-.84-2.2l-6.93-5.54c-.4-.32-.94-.48-1.47-.48Z" fill="currentColor"/></symbol><symbol fill="none" viewBox="0 0 10 14" id="light" xmlns="http://www.w3.org/2000/svg"><path d="M5 .667c-.306 0-.62.026-.932.093C2.228 1.113.76 2.6.414 4.44c-.32 1.74.32 3.34 1.48 4.373.287.254.44.607.44.98v1.54c0 .734.6 1.334 1.334 1.334h.186a1.32 1.32 0 0 0 2.294 0h.186c.734 0 1.334-.6 1.334-1.334v-1.54c0-.366.146-.726.426-.973A4.663 4.663 0 0 0 5.001.667ZM6.335 10H3.668v-.667h2.666V10Zm-2.666 1.333v-.666h2.666v.666H3.668Zm3.54-3.506c-.06.053-.107.12-.16.173h-4.1c-.054-.06-.1-.127-.16-.18a3.363 3.363 0 0 1-1.06-3.133c.24-1.294 1.306-2.367 2.593-2.62C4.548 2.02 4.774 2 5 2a3.335 3.335 0 0 1 3.333 3.333c0 .954-.406 1.86-1.126 2.494Z" fill="currentColor"/><path d="M5.334 6h-.666v2h.666V6Z" fill="currentColor"/><path d="m3.92 4.583-.47.471 1.413 1.414.472-.471L3.92 4.583Z" fill="currentColor"/><path d="m4.668 6.004.472.47 1.414-1.413-.472-.472-1.414 1.415Z" fill="currentColor"/></symbol><symbol fill="none" viewBox="0 0 24 24" id="location" xmlns="http://www.w3.org/2000/svg"><path d="M12 14.17c-2.13 0-3.87-1.73-3.87-3.87S9.87 6.44 12 6.44s3.87 1.73 3.87 3.87-1.74 3.86-3.87 3.86Zm0-6.23c-1.3 0-2.37 1.06-2.37 2.37s1.06 2.37 2.37 2.37 2.37-1.06 2.37-2.37S13.3 7.94 12 7.94Z" fill="currentColor"/><path d="M12 22.76a5.97 5.97 0 0 1-4.13-1.67c-2.95-2.84-6.21-7.37-4.98-12.76C4 3.44 8.27 1.25 12 1.25h.01c3.73 0 8 2.19 9.11 7.09 1.22 5.39-2.04 9.91-4.99 12.75A5.97 5.97 0 0 1 12 22.76Zm0-20.01c-2.91 0-6.65 1.55-7.64 5.91C3.28 13.37 6.24 17.43 8.92 20a4.426 4.426 0 0 0 6.17 0c2.67-2.57 5.63-6.63 4.57-11.34-1-4.36-4.75-5.91-7.66-5.91Z" fill="currentColor"/></symbol><symbol fill="none" viewBox="0 0 136 31" id="logo" xmlns="http://www.w3.org/2000/svg"><path d="M8.165 6.353c2.361 0 4.089.637 5.18 1.914 1.09 1.274 1.636 3.555 1.636 6.835s-.63 5.553-1.89 6.806c-1.258 1.253-3.43 1.879-6.51 1.879-.966 0-2.733-.11-5.295-.332l-1.283-.133V.098h4.521V7.25c1.44-.598 2.653-.897 3.644-.897h-.003ZM6.58 19.796c1.508 0 2.517-.362 3.037-1.082.517-.72.775-2.012.775-3.875 0-2.996-.946-4.492-2.833-4.492-.901 0-1.754.11-2.565.332l-.472.1v8.883c1.034.09 1.721.134 2.058.134ZM27.502 6.753h4.521V23.39h-4.485v-.93c-1.619.885-3.025 1.33-4.217 1.33-2.34 0-3.915-.637-4.723-1.915-.81-1.273-1.213-3.41-1.213-6.405V6.753h4.52v8.785c0 1.641.136 2.761.406 3.36.27.598.922.898 1.956.898a8.13 8.13 0 0 0 2.8-.466l.438-.133V6.753h-.003ZM44.547 6.753h4.522V23.39h-4.486v-.93c-1.619.885-3.025 1.33-4.217 1.33-2.34 0-3.914-.637-4.723-1.915-.81-1.273-1.213-3.41-1.213-6.405V6.753h4.52v8.785c0 1.641.136 2.761.406 3.36.27.598.923.898 1.956.898.988 0 1.923-.154 2.8-.466l.438-.133V6.753h-.002ZM70.722 23.345c-1.505.335-2.659.5-3.44.5-2.024 0-3.41-.447-4.154-1.344-.74-.901-1.109-2.56-1.109-4.978v-7.437h-1.712c-2.32 0-4.308 1.698-4.308 3.997v9.366h-4.53V6.812h4.488v1.763c2.145-1.725 4.065-1.408 6.062-1.44V2.184h4.518v4.628h4.149v3.79h-4.149v6.823c0 .667.015 1.135.054 1.413.033.282.154.516.37.72.21.199.544.297.994.297l2.563-.068.207 3.558h-.003Z" fill="#191919"/><path d="M79.665 23.727c-.49 0-1.04-.065-1.652-.195-.613-.13-1.208-.29-1.785-.486a13.3 13.3 0 0 1-1.535-.616l.835-.81v8.685h-2.403V10.018c0-.67.216-1.21.652-1.621.433-.412.995-.729 1.685-.957a11.573 11.573 0 0 1 2.202-.486 17.715 17.715 0 0 1 2.202-.145c1.334 0 2.593.27 3.773.809 1.178.539 2.136 1.455 2.872 2.737.733 1.286 1.103 3.032 1.103 5.236 0 1.665-.306 3.105-.916 4.326a6.508 6.508 0 0 1-2.686 2.82c-1.18.659-2.626.99-4.338.99h-.009Zm-.063-2.204c1.205 0 2.196-.255 2.974-.762.778-.506 1.364-1.214 1.758-2.121.393-.907.591-1.944.591-3.111 0-1.168-.132-2.258-.393-3.274-.262-1.017-.766-1.831-1.511-2.448-.745-.616-1.83-.924-3.254-.924-1.138 0-2.13.13-2.974.388-.844.258-1.265.628-1.265 1.102v10.015a8.679 8.679 0 0 0 2.037.86 7.768 7.768 0 0 0 2.037.275ZM92.417 23.407h-2.403V1.185h2.403v22.222ZM104.71 23.514c1.109-.172 2.007-.54 2.698-1.105.691-.563 1.036-1.416 1.036-2.566v-7.84c0-.693-.093-1.316-.279-1.867a4.712 4.712 0 0 0-.79-1.46 4.255 4.255 0 0 0-1.235-1.04 6.18 6.18 0 0 0-1.646-.617 9.09 9.09 0 0 0-2.01-.21 17.18 17.18 0 0 0-3.325.34c-1.142.226-2.052.558-2.731.99v2.335c.703-.54 1.541-.936 2.517-1.185a11.277 11.277 0 0 1 2.782-.373c1.382 0 2.448.293 3.193.877.745.583 1.121 1.505 1.121 2.758v7.422c0 .735-.367 1.206-1.103 1.414-.736.207-1.817.308-3.241.308a7.765 7.765 0 0 1-2.124-.294c-.69-.195-1.262-.53-1.712-1.007-.45-.477-.676-1.114-.676-1.914 0-.996.372-1.754 1.12-2.273.745-.518 1.812-.779 3.194-.779 1.141 0 2.187.136 3.142.406.955.27 1.682.59 1.727.957l.46-2.142c-.877-.26-1.343-.492-1.86-.7a8.624 8.624 0 0 0-1.76-.47 14.797 14.797 0 0 0-2.337-.163c-1.184 0-2.232.177-3.142.536a4.35 4.35 0 0 0-2.14 1.754c-.516.812-.774 1.89-.774 3.23 0 .974.192 1.78.576 2.417.385.64.89 1.141 1.514 1.508a6.62 6.62 0 0 0 2.04.78c.736.15 1.466.228 2.19.228 1.274 0 2.464-.086 3.572-.26l.003.005ZM110.85 8.53a17.043 17.043 0 0 1 1.638-.696 13.338 13.338 0 0 1 1.718-.5 16.018 16.018 0 0 1 1.784-.291 17.154 17.154 0 0 1 1.836-.098c1.607 0 2.887.234 3.833.696.946.466 1.637 1.141 2.067 2.027.429.886.646 1.956.646 3.209V23.41h-2.403V12.877c0-.388-.049-.8-.148-1.233a3.524 3.524 0 0 0-.573-1.247c-.286-.4-.724-.723-1.316-.972-.592-.249-1.382-.373-2.367-.373-.679 0-1.382.053-2.106.163-.724.11-1.457.27-2.202.486v13.71h-2.404V8.53h-.003ZM135.484 9.212V7.135c-4.855 0-6.861.252-7.967 1.588-.505.61-.745 1.395-.745 2.184v12.497h2.403V13.037c.024-2.569.135-3.976 6.309-3.828v.003Z" fill="#3457BF"/></symbol><symbol fill="none" viewBox="0 0 24 24" id="medal-star" xmlns="http://www.w3.org/2000/svg"><path d="M12 16.75c-.4 0-.8-.03-1.18-.1-2.12-.31-4.05-1.53-5.27-3.34A7.767 7.767 0 0 1 4.25 9c0-4.27 3.48-7.75 7.75-7.75S19.75 4.73 19.75 9c0 1.54-.45 3.03-1.3 4.31a7.8 7.8 0 0 1-5.3 3.35c-.35.06-.75.09-1.15.09Zm0-14c-3.45 0-6.25 2.8-6.25 6.25 0 1.25.36 2.45 1.04 3.47a6.254 6.254 0 0 0 4.26 2.69c.64.11 1.27.11 1.86 0 1.75-.25 3.3-1.24 4.29-2.7a6.232 6.232 0 0 0 1.04-3.47c.01-3.44-2.79-6.24-6.24-6.24Z" fill="currentColor"/><path d="M6.47 22.59c-.14 0-.27-.02-.41-.05-.65-.15-1.15-.65-1.3-1.3l-.35-1.47a.261.261 0 0 0-.19-.19l-1.65-.39a1.74 1.74 0 0 1-1.28-1.22c-.17-.61 0-1.27.45-1.72l3.9-3.9c.16-.16.38-.24.6-.22.22.02.42.14.55.33.99 1.46 2.54 2.45 4.27 2.7.64.11 1.27.11 1.86 0 1.75-.25 3.3-1.24 4.29-2.7.12-.19.33-.31.55-.33.22-.02.44.06.6.22l3.9 3.9c.45.45.62 1.11.45 1.72a1.74 1.74 0 0 1-1.28 1.22l-1.65.39c-.09.02-.16.09-.19.19l-.35 1.47c-.15.65-.65 1.15-1.3 1.3-.65.16-1.32-.07-1.74-.58L12 17.13l-4.2 4.84c-.34.4-.82.62-1.33.62Zm-.38-8.56L2.8 17.32c-.09.09-.08.19-.06.25.01.05.06.15.18.17l1.65.39c.65.15 1.15.65 1.3 1.3l.35 1.47c.03.13.13.17.19.19.06.01.16.02.25-.08l3.83-4.41a7.768 7.768 0 0 1-4.4-2.57Zm7.42 2.56 3.83 4.4c.09.11.2.11.26.09.06-.01.15-.06.19-.19l.35-1.47c.15-.65.65-1.15 1.3-1.3l1.65-.39c.12-.03.17-.12.18-.17.02-.05.03-.16-.06-.25l-3.29-3.29a7.793 7.793 0 0 1-4.41 2.57Z" fill="currentColor"/><path d="M13.891 12.89c-.26 0-.57-.07-.94-.29l-.95-.57-.95.56c-.87.52-1.44.22-1.65.07-.21-.15-.66-.6-.43-1.59l.24-1.03-.8-.74c-.44-.44-.6-.97-.45-1.45.15-.48.59-.82 1.21-.92l1.07-.18.51-1.12c.29-.57.74-.89 1.25-.89s.97.33 1.25.9l.59 1.18.99.12c.61.1 1.05.44 1.21.92.15.48-.01 1.01-.45 1.45l-.83.83.26.93c.23.99-.22 1.44-.43 1.59-.11.09-.35.23-.7.23Zm-4.28-4.5.69.69c.32.32.48.86.38 1.3l-.19.8.8-.47c.43-.25 1.01-.25 1.43 0l.8.47-.18-.8c-.1-.45.05-.98.37-1.3l.69-.69-.87-.15c-.42-.07-.84-.38-1.03-.76l-.5-.98-.5 1c-.18.37-.6.69-1.02.76l-.87.13Z" fill="currentColor"/></symbol><symbol fill="none" viewBox="0 0 34 34" id="move" xmlns="http://www.w3.org/2000/svg"><path d="m15.795 20.394.009 8.986-1.35-1.35a1.2 1.2 0 1 0-1.697 1.698l3.394 3.394c.113.11.245.196.39.255a1.2 1.2 0 0 0 .917 0c.146-.059.278-.145.39-.255l3.395-3.394a1.2 1.2 0 1 0-1.697-1.697l-1.35 1.349.009-8.986a1.205 1.205 0 1 0-2.41 0ZM4.62 15.804l1.35-1.35a1.2 1.2 0 1 0-1.698-1.697L.878 16.151a1.2 1.2 0 0 0-.255.39 1.2 1.2 0 0 0 0 .917 1.2 1.2 0 0 0 .255.39l3.394 3.395a1.2 1.2 0 1 0 1.697-1.697l-1.349-1.35 8.986.009A1.2 1.2 0 0 0 14.81 17a1.202 1.202 0 0 0-1.205-1.205l-8.986.009Zm23.41-3.047a1.2 1.2 0 0 0 0 1.697l1.35 1.35-8.986-.009a1.205 1.205 0 1 0 0 2.41l8.986-.009-1.35 1.35a1.2 1.2 0 1 0 1.698 1.697l3.394-3.394c.11-.113.196-.245.255-.39a1.2 1.2 0 0 0 0-.917 1.198 1.198 0 0 0-.255-.39l-3.394-3.395a1.2 1.2 0 0 0-1.697 0ZM17.459.623a1.2 1.2 0 0 0-.916 0 1.2 1.2 0 0 0-.39.255l-3.395 3.394a1.2 1.2 0 1 0 1.697 1.697l1.35-1.349-.009 8.986A1.2 1.2 0 0 0 17 14.81a1.202 1.202 0 0 0 1.205-1.205l-.009-8.986 1.35 1.35a1.2 1.2 0 1 0 1.697-1.698L17.849.878a1.2 1.2 0 0 0-.39-.255Z" fill="currentColor"/></symbol><symbol fill="none" viewBox="0 0 32 32" id="nature" xmlns="http://www.w3.org/2000/svg"><path d="m7.79 13.3.002.002c.455.88 1.44 1.361 2.648 1.361h11.12c1.21 0 2.19-.481 2.673-1.356l.003-.007c.456-.897.255-1.97-.446-2.94l-5.558-7.77-.001-.001c-1.099-1.566-3.348-1.569-4.435-.013L8.237 10.36c-.702.97-.903 2.044-.447 2.94Zm2.478-1.485.002-.003 5.559-7.798a.693.693 0 0 1 .133-.14.173.173 0 0 1 .04-.023c.007.002.021.007.045.024.039.027.09.076.153.155l5.556 7.78v.001c.093.132.147.237.178.314-.08.02-.198.038-.36.038h-11.12c-.168 0-.29-.016-.372-.034.03-.074.087-.18.186-.314Zm-.221.435v.004-.004Z" fill="currentColor" stroke="currentColor" stroke-width=".5"/><path d="m20.737 12.682-.002-.004a1.273 1.273 0 0 0-1.015-.515h-7.426c-.395 0-.781.181-1.018.52l-5.319 7.465c-.584.806-.81 1.524-.845 2.126a2.66 2.66 0 0 0 .279 1.373c.156.305.443.708.95 1.035.509.327 1.224.568 2.22.568h14.892c.996 0 1.708-.24 2.213-.569.505-.327.788-.73.943-1.034.156-.303.317-.77.286-1.37-.031-.6-.254-1.316-.839-2.116v-.002l-5.319-7.477Zm-12.76 8.93 4.961-6.962h6.12l4.952 6.962.001.002c.202.277.306.497.35.655.023.08.03.14.028.18 0 .021-.002.036-.005.046l-.004.013-.003.007-.004.007c-.002.003-.041.062-.201.122-.155.059-.393.106-.732.106H8.547c-.339 0-.573-.047-.726-.105-.14-.053-.194-.109-.21-.13-.007-.025-.02-.102.02-.247.044-.16.144-.379.345-.654l.001-.002Z" fill="currentColor" stroke="currentColor" stroke-width=".5"/><path d="M14.75 29.333c0 .685.565 1.25 1.25 1.25s1.25-.565 1.25-1.25V24c0-.685-.565-1.25-1.25-1.25s-1.25.565-1.25 1.25v5.333Z" fill="currentColor" stroke="currentColor" stroke-width=".5"/></symbol><symbol fill="none" viewBox="0 0 24 24" id="notification" xmlns="http://www.w3.org/2000/svg"><path d="M12.02 20.53c-2.33 0-4.66-.37-6.87-1.11-.84-.29-1.48-.88-1.76-1.65-.29-.77-.19-1.62.27-2.38l1.15-1.91c.24-.4.46-1.2.46-1.67V8.92c0-3.72 3.03-6.75 6.75-6.75s6.75 3.03 6.75 6.75v2.89c0 .46.22 1.27.46 1.68l1.14 1.9c.43.72.51 1.59.22 2.38a2.72 2.72 0 0 1-1.71 1.65c-2.2.74-4.53 1.11-6.86 1.11Zm0-16.86c-2.89 0-5.25 2.35-5.25 5.25v2.89c0 .73-.3 1.81-.67 2.44l-1.15 1.91c-.22.37-.28.76-.15 1.09.12.34.42.6.83.74a20 20 0 0 0 12.79 0c.36-.12.64-.39.77-.75s.1-.75-.1-1.08l-1.15-1.91c-.38-.65-.67-1.72-.67-2.45V8.92c0-2.9-2.35-5.25-5.25-5.25Z" fill="currentColor"/><path d="M13.88 3.94c-.07 0-.14-.01-.21-.03-.29-.08-.57-.14-.84-.18-.85-.11-1.67-.05-2.44.18-.28.09-.58 0-.77-.21a.742.742 0 0 1-.14-.78 2.724 2.724 0 0 1 2.55-1.74c1.14 0 2.14.68 2.55 1.74.1.27.05.57-.14.78-.15.16-.36.24-.56.24ZM12.02 22.81c-.99 0-1.95-.4-2.65-1.1-.7-.7-1.1-1.66-1.1-2.65h1.5c0 .59.24 1.17.66 1.59.42.42 1 .66 1.59.66 1.24 0 2.25-1.01 2.25-2.25h1.5c0 2.07-1.68 3.75-3.75 3.75Z" fill="currentColor"/></symbol><symbol fill="none" viewBox="0 0 24 24" id="profile-circle" xmlns="http://www.w3.org/2000/svg"><path d="M12.12 13.53h-.17c-2.27-.07-3.97-1.84-3.97-4.02 0-2.22 1.81-4.03 4.03-4.03s4.03 1.81 4.03 4.03a4.014 4.014 0 0 1-3.89 4.02h-.03ZM12 6.97c-1.4 0-2.53 1.14-2.53 2.53a2.52 2.52 0 0 0 2.43 2.53.84.84 0 0 1 .23 0 2.535 2.535 0 0 0 2.4-2.53c0-1.39-1.13-2.53-2.53-2.53ZM12 22.75c-2.69 0-5.26-1-7.25-2.82a.755.755 0 0 1-.24-.63c.13-1.19.87-2.3 2.1-3.12 2.98-1.98 7.81-1.98 10.78 0 1.23.83 1.97 1.93 2.1 3.12.03.24-.06.47-.24.63A10.71 10.71 0 0 1 12 22.75ZM6.08 19.1A9.208 9.208 0 0 0 12 21.25c2.17 0 4.26-.76 5.92-2.15-.18-.61-.66-1.2-1.37-1.68-2.46-1.64-6.63-1.64-9.11 0-.71.48-1.18 1.07-1.36 1.68Z" fill="currentColor"/><path d="M12 22.75C6.07 22.75 1.25 17.93 1.25 12S6.07 1.25 12 1.25 22.75 6.07 22.75 12 17.93 22.75 12 22.75Zm0-20C6.9 2.75 2.75 6.9 2.75 12S6.9 21.25 12 21.25s9.25-4.15 9.25-9.25S17.1 2.75 12 2.75Z" fill="currentColor"/></symbol><symbol fill="none" viewBox="0 0 24 24" id="profile-user" xmlns="http://www.w3.org/2000/svg"><path d="M9.16 11.62h-.08a.543.543 0 0 0-.18 0C6 11.53 3.81 9.25 3.81 6.44c0-2.86 2.33-5.19 5.19-5.19 2.86 0 5.19 2.33 5.19 5.19-.01 2.81-2.21 5.09-5 5.18h-.03ZM9 2.75a3.7 3.7 0 0 0-3.69 3.69c0 2 1.56 3.61 3.55 3.68.06-.01.19-.01.32 0 1.96-.09 3.5-1.7 3.51-3.68A3.7 3.7 0 0 0 9 2.75ZM16.54 11.75c-.03 0-.06 0-.09-.01-.41.04-.83-.25-.87-.66-.04-.41.21-.78.62-.83.12-.01.25-.01.36-.01 1.46-.08 2.6-1.28 2.6-2.75 0-1.52-1.23-2.75-2.75-2.75a.74.74 0 0 1-.75-.74c0-.41.34-.75.75-.75a4.26 4.26 0 0 1 4.25 4.25c0 2.3-1.8 4.16-4.09 4.25h-.03ZM9.17 22.55c-1.96 0-3.93-.5-5.42-1.5-1.39-.92-2.15-2.18-2.15-3.55 0-1.37.76-2.64 2.15-3.57 3-1.99 7.86-1.99 10.84 0 1.38.92 2.15 2.18 2.15 3.55 0 1.37-.76 2.64-2.15 3.57-1.5 1-3.46 1.5-5.42 1.5Zm-4.59-7.36c-.96.64-1.48 1.46-1.48 2.32 0 .85.53 1.67 1.48 2.3 2.49 1.67 6.69 1.67 9.18 0 .96-.64 1.48-1.46 1.48-2.32 0-.85-.53-1.67-1.48-2.3-2.49-1.66-6.69-1.66-9.18 0ZM18.34 20.75c-.35 0-.66-.24-.73-.6a.76.76 0 0 1 .58-.89c.63-.13 1.21-.38 1.66-.73.57-.43.88-.97.88-1.54 0-.57-.31-1.11-.87-1.53-.44-.34-.99-.58-1.64-.73a.756.756 0 0 1-.57-.9c.09-.4.49-.66.9-.57.86.19 1.61.53 2.22 1 .93.7 1.46 1.69 1.46 2.73s-.54 2.03-1.47 2.74c-.62.48-1.4.83-2.26 1-.06.02-.11.02-.16.02Z" fill="currentColor"/></symbol><symbol fill="none" viewBox="0 0 32 32" id="rotate-left" xmlns="http://www.w3.org/2000/svg"><path d="m6.813 11.613-.002.002a11.037 11.037 0 0 0-1.858 6.145c0 6.103 4.958 11.06 11.06 11.06 6.103 0 11.06-4.957 11.06-11.06C27.073 11.656 22.102 6.7 16 6.7c-1.273 0-2.522.18-3.705.541a.5.5 0 0 1-.63-.331.5.5 0 0 1 .332-.631A13.884 13.884 0 0 1 16 5.687c6.657 0 12.06 5.415 12.06 12.06 0 6.645-5.404 12.086-12.06 12.086-6.657 0-12.06-5.415-12.06-12.06 0-2.393.703-4.71 2.035-6.707a.507.507 0 0 1 .692-.145.507.507 0 0 1 .146.692Z" fill="#191919" stroke="#191919"/><path d="m10.11 6.768 3.854-4.426a.496.496 0 0 1 .7-.05l.008.005c.202.176.225.5.044.708l-3.85 4.41-.002.002a.51.51 0 0 1-.37.176.498.498 0 0 1-.383-.825Z" fill="#191919" stroke="#191919"/><path d="M10.188 7.49v-.001a.497.497 0 0 1-.104-.688l.005-.006a.501.501 0 0 1 .7-.108l4.49 3.277a.5.5 0 0 1 .105.7l-.007.01-.006.009a.447.447 0 0 1-.384.19.556.556 0 0 1-.298-.094l-4.5-3.29Z" fill="#191919" stroke="#191919"/></symbol><symbol fill="none" viewBox="0 0 32 32" id="rotate-right" xmlns="http://www.w3.org/2000/svg"><path d="m19.999 6.29.004.002a.5.5 0 0 1 .331.631.5.5 0 0 1-.63.332A12.676 12.676 0 0 0 16 6.7c-6.103 0-11.06 4.957-11.06 11.06 0 6.103 4.957 11.06 11.06 11.06 6.103 0 11.06-4.957 11.06-11.06 0-2.205-.642-4.328-1.858-6.145l-.001-.002a.495.495 0 0 1 .14-.688l.006-.004a.495.495 0 0 1 .688.14l.003.004a11.988 11.988 0 0 1 2.035 6.707C28.061 24.418 22.657 29.833 16 29.833S3.94 24.418 3.94 17.773C3.94 11.13 9.344 5.7 16 5.7c1.38 0 2.716.193 3.999.59Z" fill="#191919" stroke="#191919"/><path d="M17.27 2.992a.508.508 0 0 1 .045-.708.508.508 0 0 1 .708.044l3.853 4.427a.508.508 0 0 1-.044.708l-.013.011-.012.012a.42.42 0 0 1-.3.107.516.516 0 0 1-.385-.176L17.27 2.992Z" fill="#191919" stroke="#191919"/><path d="m21.201 6.684.008-.005a.503.503 0 0 1 .7.116.503.503 0 0 1-.115.698l-4.49 3.29-.009.007a.436.436 0 0 1-.282.083.523.523 0 0 1-.41-.21.515.515 0 0 1 .11-.702L21.2 6.684Z" fill="#191919" stroke="#191919"/></symbol><symbol fill="none" viewBox="0 0 28 28" id="save" xmlns="http://www.w3.org/2000/svg"><path d="M.007 13.995c0-3.308-.02-6.617.008-9.925C.029 2.396.838 1.167 2.334.405 2.94.096 3.607.007 4.279.007 9.203 0 14.127.01 19.05 0c1.306-.003 2.398.428 3.315 1.37 1.429 1.467 2.888 2.905 4.343 4.346.867.858 1.296 1.875 1.293 3.1-.012 5.014-.004 10.026-.005 15.04 0 2.38-1.765 4.142-4.153 4.142-6.563.002-13.124.002-19.687 0-2.387 0-4.146-1.761-4.147-4.148-.002-3.285 0-6.57 0-9.855H.007Zm2.03 0v9.878c0 .592.134 1.134.582 1.564.455.436 1.017.536 1.612.537h16.075c1.172 0 2.345.003 3.517-.001.643-.002 1.23-.15 1.675-.662.358-.412.463-.903.463-1.425.003-2.37.002-4.741.002-7.112V8.826c0-.594-.14-1.133-.578-1.568-1.555-1.549-3.107-3.1-4.662-4.65a1.803 1.803 0 0 0-.543-.356c-.104-.047-.164-.024-.162.101.002.07 0 .14 0 .21l-.001 5.322c-.001.866-.324 1.55-1.134 1.952-.374.185-.78.2-1.182.202-3.758.003-7.517.003-11.275 0-.232 0-.467-.006-.697-.036-.677-.087-1.184-.426-1.508-1.034-.2-.376-.236-.784-.237-1.195-.005-1.782-.002-3.563-.002-5.346 0-.078 0-.155-.004-.232-.004-.097-.058-.138-.153-.127-.393.041-.76.145-1.073.402-.52.427-.715.995-.715 1.646V13.996Zm9.968-11.937H6.367c-.326 0-.328 0-.328.315v5.299c0 .313 0 .314.304.314h11.3c.318 0 .32 0 .32-.326V2.384c0-.326-.002-.326-.32-.326h-5.638Z" fill="currentColor"/><path d="M19.002 17.963C19 20.576 16.98 23 13.998 23.02c-2.742.02-4.99-2.256-5-5.036-.008-2.336 1.807-5.019 5.05-5.005 3.083.012 4.954 2.613 4.954 4.984Zm-4.995 3.005c1.663.025 2.947-1.273 2.954-2.995.007-1.588-1.224-2.961-2.968-2.962-1.778 0-2.966 1.463-2.956 2.956.011 1.7 1.261 3.03 2.97 3.002Z" fill="currentColor"/></symbol><symbol fill="none" viewBox="0 0 24 24" id="search" xmlns="http://www.w3.org/2000/svg"><path d="M1.1 11.5c0 5.733 4.667 10.4 10.4 10.4 5.733 0 10.4-4.667 10.4-10.4 0-5.733-4.667-10.4-10.4-10.4-5.733 0-10.4 4.667-10.4 10.4Zm1.8 0c0-4.737 3.853-8.6 8.6-8.6s8.6 3.863 8.6 8.6-3.853 8.6-8.6 8.6-8.6-3.863-8.6-8.6Z" fill="currentColor" stroke="currentColor" stroke-width=".3"/><path d="M21.364 22.636c.18.18.408.264.636.264a.892.892 0 0 0 .636-.264.905.905 0 0 0 0-1.272l-2-2a.905.905 0 0 0-1.272 0 .905.905 0 0 0 0 1.272l2 2Z" fill="currentColor" stroke="currentColor" stroke-width=".3"/></symbol><symbol fill="none" viewBox="0 0 24 24" id="security-user" xmlns="http://www.w3.org/2000/svg"><path d="M12 22.76c-1.09 0-2.17-.32-3.02-.95l-4.3-3.21c-1.14-.85-2.03-2.62-2.03-4.04V7.13c0-1.54 1.13-3.18 2.58-3.72l4.99-1.87c.99-.37 2.55-.37 3.54 0l5 1.87c1.45.54 2.58 2.18 2.58 3.72v7.43c0 1.42-.89 3.19-2.03 4.04l-4.3 3.21c-.84.63-1.92.95-3.01.95ZM10.75 2.94 5.76 4.81c-.86.32-1.61 1.4-1.61 2.32v7.43c0 .95.67 2.28 1.42 2.84l4.3 3.21c1.15.86 3.1.86 4.25 0l4.3-3.21c.76-.57 1.42-1.9 1.42-2.84V7.13c0-.91-.75-1.99-1.61-2.32l-4.99-1.87c-.66-.25-1.82-.25-2.49 0Z" fill="currentColor"/><path d="M12 11.67h-.07c-1.45-.04-2.51-1.15-2.51-2.5 0-1.38 1.13-2.51 2.51-2.51s2.51 1.13 2.51 2.51a2.514 2.514 0 0 1-2.42 2.51c-.01-.01-.01-.01-.02-.01Zm-.07-3.51c-.56 0-1.01.45-1.01 1.01 0 .55.43.99.97 1.01H12a1 1 0 0 0 .94-1.01 1 1 0 0 0-1.01-1.01ZM12 17.35c-.86 0-1.73-.23-2.4-.68-.67-.44-1.05-1.09-1.05-1.78s.38-1.34 1.05-1.79c1.35-.9 3.46-.89 4.8 0 .67.44 1.05 1.09 1.05 1.78s-.38 1.34-1.05 1.79c-.67.45-1.54.68-2.4.68Zm-1.57-3.01c-.25.16-.39.36-.38.54 0 .18.14.38.38.54.84.56 2.3.56 3.14 0 .25-.16.39-.36.39-.54 0-.18-.14-.38-.38-.54-.84-.55-2.31-.55-3.15 0Z" fill="currentColor"/></symbol><symbol fill="none" viewBox="0 0 24 24" id="setting" xmlns="http://www.w3.org/2000/svg"><path d="M12 15.75c-2.07 0-3.75-1.68-3.75-3.75 0-2.07 1.68-3.75 3.75-3.75 2.07 0 3.75 1.68 3.75 3.75 0 2.07-1.68 3.75-3.75 3.75Zm0-6c-1.24 0-2.25 1.01-2.25 2.25s1.01 2.25 2.25 2.25 2.25-1.01 2.25-2.25S13.24 9.75 12 9.75Z" fill="currentColor"/><path d="M15.21 22.19c-.21 0-.42-.03-.63-.08-.62-.17-1.14-.56-1.47-1.11l-.12-.2c-.59-1.02-1.4-1.02-1.99 0l-.11.19c-.33.56-.85.96-1.47 1.12-.63.17-1.28.08-1.83-.25l-1.72-.99a2.65 2.65 0 0 1-.98-3.62c.29-.51.37-.97.2-1.26-.17-.29-.6-.46-1.19-.46-1.46 0-2.65-1.19-2.65-2.65v-1.76c0-1.46 1.19-2.65 2.65-2.65.59 0 1.02-.17 1.19-.46.17-.29.1-.75-.2-1.26-.35-.61-.44-1.33-.26-2.01.18-.69.62-1.26 1.24-1.61l1.73-.99c1.13-.67 2.62-.28 3.3.87l.12.2c.59 1.02 1.4 1.02 1.99 0l.11-.19c.68-1.16 2.17-1.55 3.31-.87l1.72.99a2.65 2.65 0 0 1 .98 3.62c-.29.51-.37.97-.2 1.26.17.29.6.46 1.19.46 1.46 0 2.65 1.19 2.65 2.65v1.76c0 1.46-1.19 2.65-2.65 2.65-.59 0-1.02.17-1.19.46-.17.29-.1.75.2 1.26.35.61.45 1.33.26 2.01a2.58 2.58 0 0 1-1.24 1.61l-1.73.99c-.38.21-.79.32-1.21.32ZM12 18.49c.89 0 1.72.56 2.29 1.55l.11.19c.12.21.32.36.56.42.24.06.48.03.68-.09l1.73-1a1.157 1.157 0 0 0 .43-1.57c-.57-.98-.64-1.99-.2-2.76.44-.77 1.35-1.21 2.49-1.21.64 0 1.15-.51 1.15-1.15v-1.76c0-.63-.51-1.15-1.15-1.15-1.14 0-2.05-.44-2.49-1.21-.44-.77-.37-1.78.2-2.76.15-.26.19-.57.11-.87-.08-.3-.27-.54-.53-.7l-1.73-.99a.92.92 0 0 0-1.26.33l-.11.19c-.57.99-1.4 1.55-2.29 1.55-.89 0-1.72-.56-2.29-1.55l-.11-.2a.918.918 0 0 0-1.24-.32l-1.73 1A1.157 1.157 0 0 0 6.19 6c.57.98.64 1.99.2 2.76-.44.77-1.35 1.21-2.49 1.21-.64 0-1.15.51-1.15 1.15v1.76c0 .63.51 1.15 1.15 1.15 1.14 0 2.05.44 2.49 1.21.44.77.37 1.78-.2 2.76-.15.26-.19.57-.11.87.08.3.27.54.53.7l1.73.99c.21.13.46.16.69.1.24-.06.44-.22.57-.43l.11-.19c.57-.98 1.4-1.55 2.29-1.55Z" fill="currentColor"/></symbol><symbol fill="none" viewBox="0 0 24 24" id="setting-2" xmlns="http://www.w3.org/2000/svg"><path d="M12 15.75c-2.07 0-3.75-1.68-3.75-3.75 0-2.07 1.68-3.75 3.75-3.75 2.07 0 3.75 1.68 3.75 3.75 0 2.07-1.68 3.75-3.75 3.75Zm0-6c-1.24 0-2.25 1.01-2.25 2.25s1.01 2.25 2.25 2.25 2.25-1.01 2.25-2.25S13.24 9.75 12 9.75Z" fill="currentColor"/><path d="M15.21 22.19c-.21 0-.42-.03-.63-.08-.62-.17-1.14-.56-1.47-1.11l-.12-.2c-.59-1.02-1.4-1.02-1.99 0l-.11.19c-.33.56-.85.96-1.47 1.12-.63.17-1.28.08-1.83-.25l-1.72-.99a2.65 2.65 0 0 1-.98-3.62c.29-.51.37-.97.2-1.26-.17-.29-.6-.46-1.19-.46-1.46 0-2.65-1.19-2.65-2.65v-1.76c0-1.46 1.19-2.65 2.65-2.65.59 0 1.02-.17 1.19-.46.17-.29.1-.75-.2-1.26-.35-.61-.44-1.33-.26-2.01.18-.69.62-1.26 1.24-1.61l1.73-.99c1.13-.67 2.62-.28 3.3.87l.12.2c.59 1.02 1.4 1.02 1.99 0l.11-.19c.68-1.16 2.17-1.55 3.31-.87l1.72.99a2.65 2.65 0 0 1 .98 3.62c-.29.51-.37.97-.2 1.26.17.29.6.46 1.19.46 1.46 0 2.65 1.19 2.65 2.65v1.76c0 1.46-1.19 2.65-2.65 2.65-.59 0-1.02.17-1.19.46-.17.29-.1.75.2 1.26.35.61.45 1.33.26 2.01a2.58 2.58 0 0 1-1.24 1.61l-1.73.99c-.38.21-.79.32-1.21.32ZM12 18.49c.89 0 1.72.56 2.29 1.55l.11.19c.12.21.32.36.56.42.24.06.48.03.68-.09l1.73-1a1.157 1.157 0 0 0 .43-1.57c-.57-.98-.64-1.99-.2-2.76.44-.77 1.35-1.21 2.49-1.21.64 0 1.15-.51 1.15-1.15v-1.76c0-.63-.51-1.15-1.15-1.15-1.14 0-2.05-.44-2.49-1.21-.44-.77-.37-1.78.2-2.76.15-.26.19-.57.11-.87-.08-.3-.27-.54-.53-.7l-1.73-.99a.92.92 0 0 0-1.26.33l-.11.19c-.57.99-1.4 1.55-2.29 1.55-.89 0-1.72-.56-2.29-1.55l-.11-.2a.918.918 0 0 0-1.24-.32l-1.73 1A1.157 1.157 0 0 0 6.19 6c.57.98.64 1.99.2 2.76-.44.77-1.35 1.21-2.49 1.21-.64 0-1.15.51-1.15 1.15v1.76c0 .63.51 1.15 1.15 1.15 1.14 0 2.05.44 2.49 1.21.44.77.37 1.78-.2 2.76-.15.26-.19.57-.11.87.08.3.27.54.53.7l1.73.99c.21.13.46.16.69.1.24-.06.44-.22.57-.43l.11-.19c.57-.98 1.4-1.55 2.29-1.55Z" fill="currentColor"/></symbol><symbol fill="none" viewBox="0 0 24 24" id="setting-3" xmlns="http://www.w3.org/2000/svg"><path d="M15 22.75H9c-5.43 0-7.75-2.32-7.75-7.75V9c0-5.43 2.32-7.75 7.75-7.75h6c5.43 0 7.75 2.32 7.75 7.75v6c0 5.43-2.32 7.75-7.75 7.75Zm-6-20C4.39 2.75 2.75 4.39 2.75 9v6c0 4.61 1.64 6.25 6.25 6.25h6c4.61 0 6.25-1.64 6.25-6.25V9c0-4.61-1.64-6.25-6.25-6.25H9Z" fill="currentColor"/><path d="M15.58 19.25c-.41 0-.75-.34-.75-.75v-3.9c0-.41.34-.75.75-.75s.75.34.75.75v3.9c0 .41-.34.75-.75.75ZM15.58 8.2c-.41 0-.75-.34-.75-.75V5.5c0-.41.34-.75.75-.75s.75.34.75.75v1.95c0 .41-.34.75-.75.75Z" fill="currentColor"/><path d="M15.58 13.4a3.35 3.35 0 1 1 3.35-3.35c0 1.85-1.51 3.35-3.35 3.35Zm0-5.2c-1.02 0-1.85.83-1.85 1.85s.83 1.85 1.85 1.85 1.85-.83 1.85-1.85-.84-1.85-1.85-1.85ZM8.42 19.25c-.41 0-.75-.34-.75-.75v-1.95c0-.41.34-.75.75-.75s.75.34.75.75v1.95c0 .41-.33.75-.75.75ZM8.42 10.15c-.41 0-.75-.34-.75-.75V5.5c0-.41.34-.75.75-.75s.75.34.75.75v3.9c0 .41-.33.75-.75.75Z" fill="currentColor"/><path d="M8.42 17.3a3.35 3.35 0 1 1 0-6.7 3.35 3.35 0 0 1 0 6.7Zm0-5.2c-1.02 0-1.85.83-1.85 1.85s.83 1.85 1.85 1.85 1.85-.83 1.85-1.85-.82-1.85-1.85-1.85Z" fill="currentColor"/></symbol><symbol fill="none" viewBox="0 0 24 24" id="shield-security" xmlns="http://www.w3.org/2000/svg"><path d="M12 22.76c-1.09 0-2.17-.32-3.02-.95l-4.3-3.21c-1.14-.85-2.03-2.62-2.03-4.04V7.12c0-1.54 1.13-3.18 2.58-3.72l4.99-1.87c.99-.37 2.55-.37 3.54 0l5 1.87c1.45.54 2.58 2.18 2.58 3.72v7.43c0 1.42-.89 3.19-2.03 4.04l-4.3 3.21c-.84.64-1.92.96-3.01.96ZM10.75 2.94 5.76 4.81c-.86.32-1.61 1.4-1.61 2.32v7.43c0 .95.67 2.28 1.42 2.84l4.3 3.21c1.15.86 3.1.86 4.25 0l4.3-3.21c.76-.57 1.42-1.9 1.42-2.84V7.12c0-.91-.75-1.99-1.61-2.32l-4.99-1.87c-.66-.24-1.82-.24-2.49.01Z" fill="currentColor"/><path d="M12 13.25c-1.52 0-2.75-1.23-2.75-2.75S10.48 7.75 12 7.75s2.75 1.23 2.75 2.75-1.23 2.75-2.75 2.75Zm0-4a1.25 1.25 0 1 0 0 2.5 1.25 1.25 0 0 0 0-2.5Z" fill="currentColor"/><path d="M12 16.25c-.41 0-.75-.34-.75-.75v-3c0-.41.34-.75.75-.75s.75.34.75.75v3c0 .41-.34.75-.75.75Z" fill="currentColor"/></symbol><symbol fill="none" viewBox="0 0 24 24" id="sms" xmlns="http://www.w3.org/2000/svg"><path d="M17 21.25H7c-3.65 0-5.75-2.1-5.75-5.75v-7c0-3.65 2.1-5.75 5.75-5.75h10c3.65 0 5.75 2.1 5.75 5.75v7c0 3.65-2.1 5.75-5.75 5.75Zm-10-17c-2.86 0-4.25 1.39-4.25 4.25v7c0 2.86 1.39 4.25 4.25 4.25h10c2.86 0 4.25-1.39 4.25-4.25v-7c0-2.86-1.39-4.25-4.25-4.25H7Z" fill="currentColor"/><path d="M11.999 12.87c-.84 0-1.69-.26-2.34-.79l-3.13-2.5a.748.748 0 0 1 .93-1.17l3.13 2.5c.76.61 2.05.61 2.81 0l3.13-2.5c.32-.26.8-.21 1.05.12.26.32.21.8-.12 1.05l-3.13 2.5c-.64.53-1.49.79-2.33.79Z" fill="currentColor"/></symbol><symbol fill="none" viewBox="0 0 165 24" id="tracker-middle" xmlns="http://www.w3.org/2000/svg"><path d="m165 12-20.627 12H0l20.627-12L0 0h144.373L165 12Z" fill="#8C95AF"/></symbol><symbol fill="none" viewBox="0 0 165 24" id="tracker-start" xmlns="http://www.w3.org/2000/svg"><path d="m164.979 12-20.624 12H0V0h144.355l20.624 12Z" fill="#8C95AF"/></symbol><symbol fill="none" viewBox="0 0 32 32" id="trash" xmlns="http://www.w3.org/2000/svg"><path d="m3.942 7.471 2.72-.267h.002c7.048-.715 14.198-.438 21.38.267a.501.501 0 0 1 .445.547v.01a.488.488 0 0 1-.489.445H27.918C20.854 7.767 13.786 7.5 6.776 8.21l-2.718.267a.507.507 0 0 1-.561-.457.494.494 0 0 1 .444-.548Z" fill="currentColor" stroke="currentColor"/><path d="m11.258 7.123-.012-.002a.504.504 0 0 1-.407-.568V6.55l.294-1.747c.11-.661.225-1.29.617-1.775.365-.45 1.049-.861 2.503-.861h3.494c1.456 0 2.143.424 2.51.884.395.496.506 1.13.61 1.763v.003l.293 1.733a.49.49 0 0 1-.394.569l-.01.001a.49.49 0 0 1-.568-.394l-.002-.01-.293-1.73-.002-.015c-.044-.274-.085-.532-.146-.746-.063-.225-.162-.459-.359-.647-.199-.191-.445-.286-.706-.335a5.065 5.065 0 0 0-.92-.063h-3.493c-.357 0-.66.011-.912.055-.256.046-.503.133-.705.322-.2.186-.298.42-.362.644a7.153 7.153 0 0 0-.154.767L11.828 6.7l-.002.007a.5.5 0 0 1-.568.416ZM6.366 12.221v-.004a.51.51 0 0 1 .464-.531c.29-.01.517.2.538.469l.866 13.424v.004l.002.026c.036.487.068.938.143 1.323.077.398.208.779.478 1.093.543.634 1.48.808 2.863.808h8.56c1.389 0 2.33-.173 2.873-.808.27-.315.4-.697.476-1.095.073-.388.103-.843.135-1.333l.002-.018.866-13.423v-.001a.519.519 0 0 1 .537-.47c.28.024.485.261.465.533v.003l-.866 13.424v.001c-.076 1.07-.161 2.081-.711 2.85-.518.722-1.54 1.337-3.777 1.337h-8.56c-2.238 0-3.26-.615-3.777-1.337-.55-.769-.635-1.78-.71-2.85l-.001-.001-.866-13.424Z" fill="currentColor" stroke="currentColor"/><path d="M18.213 22.5h-4.44c-.27 0-.5-.23-.5-.5s.23-.5.5-.5h4.44c.27 0 .5.23.5.5s-.23.5-.5.5ZM19.333 17.167h-6.666c-.27 0-.5-.23-.5-.5s.23-.5.5-.5h6.666c.27 0 .5.23.5.5s-.23.5-.5.5Z" fill="currentColor" stroke="currentColor"/></symbol><symbol fill="none" viewBox="0 0 24 24" id="trend-up" xmlns="http://www.w3.org/2000/svg"><path d="M7.5 15.25c-.19 0-.38-.07-.53-.22a.754.754 0 0 1 0-1.06l3.2-3.2a.741.741 0 0 1 1.15.11l1.09 1.64 3.55-3.55c.29-.29.77-.29 1.06 0 .29.29.29.77 0 1.06l-4.2 4.2a.741.741 0 0 1-1.15-.11l-1.09-1.64-2.55 2.55c-.15.15-.34.22-.53.22Z" fill="currentColor"/><path d="M16.5 12.25c-.41 0-.75-.34-.75-.75v-1.25H14.5c-.41 0-.75-.34-.75-.75s.34-.75.75-.75h2c.41 0 .75.34.75.75v2c0 .41-.34.75-.75.75Z" fill="currentColor"/><path d="M15 22.75H9c-5.43 0-7.75-2.32-7.75-7.75V9c0-5.43 2.32-7.75 7.75-7.75h6c5.43 0 7.75 2.32 7.75 7.75v6c0 5.43-2.32 7.75-7.75 7.75Zm-6-20C4.39 2.75 2.75 4.39 2.75 9v6c0 4.61 1.64 6.25 6.25 6.25h6c4.61 0 6.25-1.64 6.25-6.25V9c0-4.61-1.64-6.25-6.25-6.25H9Z" fill="currentColor"/></symbol><symbol fill="none" viewBox="0 0 24 24" id="user" xmlns="http://www.w3.org/2000/svg"><path d="M12 12.75c-3.17 0-5.75-2.58-5.75-5.75S8.83 1.25 12 1.25 17.75 3.83 17.75 7s-2.58 5.75-5.75 5.75Zm0-10A4.26 4.26 0 0 0 7.75 7 4.26 4.26 0 0 0 12 11.25 4.26 4.26 0 0 0 16.25 7 4.26 4.26 0 0 0 12 2.75ZM20.59 22.75c-.41 0-.75-.34-.75-.75 0-3.45-3.52-6.25-7.84-6.25S4.16 18.55 4.16 22c0 .41-.34.75-.75.75s-.75-.34-.75-.75c0-4.27 4.19-7.75 9.34-7.75 5.15 0 9.34 3.48 9.34 7.75 0 .41-.34.75-.75.75Z" fill="currentColor"/></symbol><symbol fill="none" viewBox="0 0 14 8" id="water" xmlns="http://www.w3.org/2000/svg"><path d="M2.566 4.333c.794 0 .947.667 2.22.667 1.3 0 1.394-.667 2.22-.667.794 0 .947.667 2.22.667 1.3 0 1.394-.667 2.22-.667.794 0 .934.654 2.207.667V3.667c-.793 0-.947-.667-2.22-.667-1.3 0-1.393.667-2.22.667-.793 0-.947-.667-2.22-.667-1.3 0-1.393.667-2.22.667-.793 0-.947-.667-2.22-.667-1.3 0-1.393.667-2.22.667V5C1.6 5 1.78 4.333 2.566 4.333Zm8.88 1.334c-1.3 0-1.393.666-2.22.666-.793 0-.946-.666-2.22-.666-1.3 0-1.4.666-2.226.666-.827 0-.92-.666-2.22-.666-1.3 0-1.4.666-2.227.666v1.334C1.633 7.667 1.74 7 2.56 7c.826 0 .92.667 2.22.667 1.3 0 1.4-.667 2.226-.667.794 0 .947.667 2.22.667 1.294 0 1.394-.667 2.22-.667.794 0 .947.667 2.22.667V6.333c-.826 0-.92-.666-2.22-.666Zm-8.88-4c.794 0 .947.666 2.22.666 1.3 0 1.394-.666 2.22-.666.794 0 .947.666 2.22.666 1.3 0 1.394-.666 2.22-.666.794 0 .934.653 2.207.666V1c-.793 0-.947-.667-2.22-.667-1.3 0-1.393.667-2.22.667-.793 0-.947-.667-2.22-.667C5.693.333 5.6 1 4.773 1 3.98 1 3.826.333 2.553.333 1.253.333 1.16 1 .333 1v1.333c1.267 0 1.447-.666 2.233-.666Z" fill="currentColor"/></symbol></svg>