<svg width="306" height="70" viewBox="0 0 306 70" fill="none" xmlns="http://www.w3.org/2000/svg">
<path d="M18.4414 15.058C23.7744 15.058 27.6757 16.5179 30.1386 19.4444C32.6015 22.3642 33.8364 27.5926 33.8364 35.1093C33.8364 42.6259 32.4116 47.834 29.5687 50.7062C26.7258 53.5784 21.8203 55.0111 14.8658 55.0111C12.681 55.0111 8.69148 54.7599 2.90394 54.2506L0.00678253 53.9451V0.724075H10.2181V17.1154C13.4681 15.7438 16.2092 15.058 18.4482 15.058H18.4414ZM14.859 45.8648C18.265 45.8648 20.5447 45.0364 21.7185 43.3864C22.8855 41.7364 23.469 38.7759 23.469 34.5049C23.469 27.6401 21.3318 24.2111 17.0709 24.2111C15.0354 24.2111 13.1085 24.4623 11.2765 24.9716L10.2113 25.2025V45.5593C12.5453 45.763 14.0991 45.8648 14.859 45.8648Z" fill="#191919"/>
<path d="M62.116 15.9747H72.3273V54.1012H62.1974V51.9691C58.5403 53.9994 55.365 55.0179 52.6713 55.0179C47.3859 55.0179 43.8306 53.558 42.0055 50.6315C40.1735 47.7117 39.2643 42.816 39.2643 35.9512V15.9747H49.4757V36.1074C49.4757 39.8691 49.781 42.4358 50.3916 43.8074C51.0023 45.179 52.4746 45.8648 54.8086 45.8648C57.1426 45.8648 59.151 45.5117 61.1321 44.7988L62.1227 44.4932V15.9747H62.116Z" fill="#191919"/>
<path d="M100.614 15.9747H110.825V54.1012H100.695V51.9691C97.038 53.9994 93.8626 55.0179 91.169 55.0179C85.8835 55.0179 82.3282 53.558 80.5031 50.6315C78.6712 47.7117 77.762 42.816 77.762 35.9512V15.9747H87.9733V36.1074C87.9733 39.8691 88.2786 42.4358 88.8893 43.8074C89.4999 45.179 90.9722 45.8648 93.3063 45.8648C95.5385 45.8648 97.6486 45.5117 99.6298 44.7988L100.62 44.4932V15.9747H100.614Z" fill="#191919"/>
<path d="M159.731 53.9994C156.331 54.7667 153.726 55.1469 151.962 55.1469C147.389 55.1469 144.261 54.1216 142.578 52.0642C140.909 50 140.075 46.1975 140.075 40.6568V23.6136H136.207C130.969 23.6136 126.478 27.5043 126.478 32.7735V54.237H116.246V16.1105H126.383V20.1506C131.227 16.1988 135.563 16.9253 140.075 16.8506V5.50432H150.279V16.1105H159.649V24.7951H150.279V40.4327C150.279 41.9605 150.313 43.0333 150.401 43.6716C150.476 44.3167 150.747 44.8531 151.236 45.3216C151.711 45.7765 152.464 46.0006 153.482 46.0006L159.269 45.8444L159.737 53.9994H159.731Z" fill="#191919"/>
<path d="M179.929 54.8753C178.823 54.8753 177.582 54.7259 176.198 54.4272C174.814 54.1284 173.47 53.7617 172.167 53.3136C170.865 52.8654 169.704 52.3969 168.7 51.9012L170.587 50.0475V69.9494H165.159V23.4574C165.159 21.9228 165.647 20.687 166.631 19.7432C167.608 18.7994 168.877 18.0728 170.437 17.55C171.991 17.0272 173.653 16.6605 175.411 16.4364C177.168 16.2123 178.83 16.1037 180.384 16.1037C183.396 16.1037 186.239 16.7216 188.906 17.9574C191.565 19.1932 193.73 21.2914 195.392 24.2315C197.048 27.1784 197.882 31.1778 197.882 36.2296C197.882 40.0457 197.19 43.3457 195.813 46.1432C194.429 48.9407 192.407 51.0932 189.747 52.6074C187.081 54.1148 183.817 54.8753 179.95 54.8753H179.929ZM179.787 49.8235C182.508 49.8235 184.747 49.2395 186.504 48.0784C188.261 46.9173 189.584 45.2944 190.473 43.2167C191.362 41.1389 191.81 38.7623 191.81 36.087C191.81 33.4117 191.511 30.913 190.921 28.5839C190.331 26.2549 189.191 24.3876 187.508 22.9753C185.825 21.563 183.376 20.8568 180.16 20.8568C177.589 20.8568 175.35 21.1556 173.443 21.7463C171.536 22.337 170.587 23.1858 170.587 24.2722V47.2228C172.12 48.1123 173.653 48.771 175.187 49.192C176.72 49.613 178.253 49.8235 179.787 49.8235Z" fill="#3457BF"/>
<path d="M208.731 54.142H203.303V3.21605H208.731V54.142Z" fill="#3457BF"/>
<path d="M236.495 54.3864C238.999 53.9926 241.028 53.1506 242.588 51.8537C244.149 50.5636 244.929 48.608 244.929 45.9735V28.0068C244.929 26.4179 244.719 24.992 244.298 23.729C243.877 22.466 243.28 21.3457 242.513 20.3815C241.747 19.4173 240.817 18.6228 239.725 17.9981C238.633 17.3802 237.391 16.9049 236.007 16.5858C234.616 16.2667 233.11 16.1037 231.468 16.1037C229.039 16.1037 226.535 16.3685 223.957 16.8846C221.378 17.4006 219.323 18.1611 217.789 19.1525V24.5031C219.377 23.2673 221.27 22.3574 223.475 21.787C225.68 21.2167 227.777 20.9315 229.758 20.9315C232.879 20.9315 235.288 21.6037 236.97 22.9414C238.653 24.279 239.501 26.3907 239.501 29.263V46.2722C239.501 47.9562 238.673 49.0358 237.011 49.5111C235.349 49.9864 232.906 50.2173 229.69 50.2173C228.055 50.2173 226.454 49.9932 224.893 49.5451C223.333 49.0969 222.043 48.3296 221.026 47.2364C220.008 46.1432 219.499 44.6833 219.499 42.85C219.499 40.5685 220.34 38.8302 222.03 37.642C223.712 36.4537 226.121 35.8562 229.242 35.8562C231.82 35.8562 234.182 36.1685 236.339 36.7864C238.497 37.4043 240.139 38.1376 240.241 38.9796L241.279 34.0704C239.297 33.4728 238.246 32.9432 237.079 32.4679C235.912 31.9994 234.589 31.6395 233.103 31.3883C231.617 31.1438 229.853 31.0148 227.824 31.0148C225.151 31.0148 222.783 31.4222 220.727 32.2438C218.671 33.0654 217.056 34.4031 215.896 36.2636C214.729 38.1241 214.146 40.5957 214.146 43.6648C214.146 45.8988 214.58 47.7457 215.448 49.2056C216.317 50.6722 217.457 51.8197 218.868 52.6617C220.279 53.5037 221.813 54.1012 223.475 54.4475C225.137 54.7938 226.786 54.9704 228.421 54.9704C231.298 54.9704 233.985 54.7734 236.488 54.3728L236.495 54.3864Z" fill="#3457BF"/>
<path d="M250.364 20.0488C251.558 19.458 252.793 18.9216 254.061 18.4531C255.33 17.9846 256.626 17.5975 257.942 17.3056C259.259 17.0136 260.602 16.7827 261.973 16.6401C263.343 16.4907 264.721 16.4161 266.118 16.4161C269.748 16.4161 272.639 16.9525 274.776 18.0117C276.913 19.0778 278.474 20.6259 279.444 22.6562C280.414 24.6864 280.903 27.1377 280.903 30.0099V54.1488H275.475V30.0099C275.475 29.1204 275.366 28.1765 275.142 27.1852C274.918 26.1938 274.484 25.2432 273.846 24.3265C273.202 23.4099 272.211 22.6698 270.874 22.0994C269.538 21.529 267.753 21.2438 265.528 21.2438C263.995 21.2438 262.407 21.3661 260.772 21.6173C259.137 21.8685 257.481 22.2352 255.798 22.7309V54.1488H250.37V20.0488H250.364Z" fill="#3457BF"/>
<path d="M306 21.6105V16.8506C295.036 16.8506 290.503 17.4278 288.006 20.4901C286.867 21.8889 286.324 23.6883 286.324 25.4944V54.1352H291.752V30.3765C291.806 24.4895 292.057 21.2642 306 21.6037V21.6105Z" fill="#3457BF"/>
</svg>
