<svg width="8" height="6" viewBox="0 0 8 6" fill="none" xmlns="http://www.w3.org/2000/svg">
<path d="M2.93476 5.49998C2.87018 5.50027 2.8062 5.48768 2.74654 5.46296C2.68688 5.43824 2.63275 5.40187 2.58731 5.35599L0.697462 3.46614C0.651725 3.42049 0.615438 3.36627 0.590681 3.30659C0.565923 3.2469 0.55318 3.18292 0.55318 3.1183C0.55318 3.05368 0.565923 2.9897 0.590681 2.93001C0.615438 2.87032 0.651725 2.8161 0.697462 2.77046C0.789234 2.67776 0.914052 2.62527 1.04449 2.62454C1.17494 2.62381 1.30033 2.67488 1.39314 2.76654L1.39706 2.77046L2.93867 4.31207L6.60725 0.644279C6.65289 0.598543 6.70711 0.562259 6.7668 0.537501C6.82649 0.512743 6.89047 0.5 6.95509 0.5C7.01971 0.5 7.08369 0.512743 7.14338 0.537501C7.20306 0.562259 7.25728 0.598543 7.30293 0.644279C7.39506 0.736438 7.44682 0.861416 7.44682 0.99173C7.44682 1.12204 7.39506 1.24702 7.30293 1.33918L3.2869 5.35521C3.24087 5.40165 3.18598 5.4384 3.1255 5.46326C3.06501 5.48813 3.00015 5.50061 2.93476 5.49998Z" fill="white"/>
</svg>
